HubotSans-RegularNarrowItalic.ufo
<glyph name="exclam" format="2">
  <advance width="183"/>
  <unicode hex="0021"/>
  <outline>
    <contour>
      <point x="54" y="173" type="line"/>
      <point x="90" y="173" type="line"/>
      <point x="186" y="530" type="line"/>
      <point x="228" y="729" type="line"/>
      <point x="153" y="729" type="line"/>
      <point x="111" y="530" type="line"/>
    </contour>
    <contour>
      <point x="-6" y="0" type="line"/>
      <point x="77" y="0" type="line"/>
      <point x="96" y="91" type="line"/>
      <point x="13" y="91" type="line"/>
    </contour>
  </outline>
</glyph>
<glyph name="numbersign" format="2">
  <advance width="501"/>
  <unicode hex="0023"/>
  <outline>
    <contour>
      <point x="70" y="0" type="line"/>
      <point x="135" y="0" type="line"/>
      <point x="178" y="204" type="line"/>
      <point x="304" y="204" type="line"/>
      <point x="261" y="0" type="line"/>
      <point x="326" y="0" type="line"/>
      <point x="369" y="204" type="line"/>
      <point x="463" y="204" type="line"/>
      <point x="475" y="262" type="line"/>
      <point x="381" y="262" type="line"/>
      <point x="428" y="484" type="line"/>
      <point x="522" y="484" type="line"/>
      <point x="535" y="542" type="line"/>
      <point x="441" y="542" type="line"/>
      <point x="480" y="729" type="line"/>
      <point x="415" y="729" type="line"/>
      <point x="376" y="542" type="line"/>
      <point x="250" y="542" type="line"/>
      <point x="289" y="729" type="line"/>
      <point x="224" y="729" type="line"/>
      <point x="185" y="542" type="line"/>
      <point x="87" y="542" type="line"/>
      <point x="74" y="484" type="line"/>
      <point x="172" y="484" type="line"/>
      <point x="125" y="262" type="line"/>
      <point x="27" y="262" type="line"/>
      <point x="15" y="204" type="line"/>
      <point x="113" y="204" type="line"/>
    </contour>
    <contour>
      <point x="190" y="262" type="line"/>
      <point x="237" y="484" type="line"/>
      <point x="363" y="484" type="line"/>
      <point x="316" y="262" type="line"/>
    </contour>
  </outline>
</glyph>
<glyph name="percent" format="2">
  <advance width="618"/>
  <unicode hex="0025"/>
  <outline>
    <contour>
      <point x="76" y="0" type="line"/>
      <point x="137" y="0" type="line"/>
      <point x="586" y="729" type="line"/>
      <point x="524" y="729" type="line"/>
    </contour>
    <contour>
      <point x="180" y="356" type="curve" smooth="yes"/>
      <point x="243" y="356"/>
      <point x="279" y="404"/>
      <point x="295" y="481" type="curve" smooth="yes"/>
      <point x="316" y="582" type="line" smooth="yes"/>
      <point x="336" y="678"/>
      <point x="304" y="736"/>
      <point x="219" y="736" type="curve" smooth="yes"/>
      <point x="155" y="736"/>
      <point x="119" y="685"/>
      <point x="104" y="610" type="curve" smooth="yes"/>
      <point x="84" y="510" type="line" smooth="yes"/>
      <point x="66" y="420"/>
      <point x="91" y="356"/>
    </contour>
    <contour>
      <point x="178" y="407" type="curve" smooth="yes"/>
      <point x="141" y="407"/>
      <point x="127" y="435"/>
      <point x="137" y="483" type="curve" smooth="yes"/>
      <point x="166" y="623" type="line" smooth="yes"/>
      <point x="175" y="666"/>
      <point x="194" y="684"/>
      <point x="219" y="684" type="curve" smooth="yes"/>
      <point x="259" y="684"/>
      <point x="272" y="656"/>
      <point x="262" y="608" type="curve" smooth="yes"/>
      <point x="233" y="469" type="line" smooth="yes"/>
      <point x="223" y="421"/>
      <point x="202" y="407"/>
    </contour>
    <contour>
      <point x="442" y="-7" type="curve" smooth="yes"/>
      <point x="505" y="-7"/>
      <point x="541" y="41"/>
      <point x="557" y="118" type="curve" smooth="yes"/>
      <point x="578" y="219" type="line" smooth="yes"/>
      <point x="598" y="315"/>
      <point x="566" y="373"/>
      <point x="481" y="373" type="curve" smooth="yes"/>
      <point x="417" y="373"/>
      <point x="381" y="322"/>
      <point x="366" y="247" type="curve" smooth="yes"/>
      <point x="346" y="147" type="line" smooth="yes"/>
      <point x="328" y="57"/>
      <point x="353" y="-7"/>
    </contour>
    <contour>
      <point x="440" y="44" type="curve" smooth="yes"/>
      <point x="403" y="44"/>
      <point x="389" y="72"/>
      <point x="399" y="120" type="curve" smooth="yes"/>
      <point x="428" y="260" type="line" smooth="yes"/>
      <point x="437" y="303"/>
      <point x="456" y="321"/>
      <point x="481" y="321" type="curve" smooth="yes"/>
      <point x="521" y="321"/>
      <point x="534" y="293"/>
      <point x="524" y="245" type="curve" smooth="yes"/>
      <point x="495" y="106" type="line" smooth="yes"/>
      <point x="485" y="58"/>
      <point x="464" y="44"/>
    </contour>
  </outline>
</glyph>
<glyph name="ampersand" format="2">
  <advance width="509"/>
  <unicode hex="0026"/>
  <outline>
    <contour>
      <point x="142" y="-7" type="curve" smooth="yes"/>
      <point x="198" y="-7"/>
      <point x="255" y="18"/>
      <point x="297" y="83" type="curve"/>
      <point x="329" y="0" type="line"/>
      <point x="411" y="0" type="line"/>
      <point x="350" y="145" type="line"/>
      <point x="372" y="184"/>
      <point x="393" y="231"/>
      <point x="408" y="283" type="curve"/>
      <point x="474" y="283" type="line"/>
      <point x="488" y="347" type="line"/>
      <point x="367" y="347" type="line"/>
      <point x="362" y="323" type="line" smooth="yes"/>
      <point x="353" y="280"/>
      <point x="341" y="245"/>
      <point x="324" y="205" type="curve"/>
      <point x="253" y="390" type="line"/>
      <point x="337" y="438"/>
      <point x="387" y="493"/>
      <point x="403" y="565" type="curve" smooth="yes"/>
      <point x="407" y="583" type="line" smooth="yes"/>
      <point x="427" y="673"/>
      <point x="374" y="736"/>
      <point x="293" y="736" type="curve" smooth="yes"/>
      <point x="220" y="736"/>
      <point x="171" y="684"/>
      <point x="155" y="618" type="curve" smooth="yes"/>
      <point x="147" y="585" type="line" smooth="yes"/>
      <point x="133" y="527"/>
      <point x="144" y="465"/>
      <point x="171" y="404" type="curve"/>
      <point x="169" y="393" type="line"/>
      <point x="99" y="356"/>
      <point x="53" y="304"/>
      <point x="32" y="207" type="curve" smooth="yes"/>
      <point x="24" y="170" type="line" smooth="yes"/>
      <point x="0" y="59"/>
      <point x="51" y="-7"/>
    </contour>
    <contour>
      <point x="164" y="54" type="curve" smooth="yes"/>
      <point x="114" y="54"/>
      <point x="82" y="86"/>
      <point x="100" y="169" type="curve" smooth="yes"/>
      <point x="108" y="206" type="line" smooth="yes"/>
      <point x="122" y="271"/>
      <point x="147" y="312"/>
      <point x="195" y="341" type="curve"/>
      <point x="272" y="138" type="line"/>
      <point x="250" y="89"/>
      <point x="208" y="54"/>
    </contour>
    <contour>
      <point x="235" y="431" type="curve"/>
      <point x="217" y="485"/>
      <point x="208" y="528"/>
      <point x="220" y="578" type="curve" smooth="yes"/>
      <point x="227" y="607" type="line" smooth="yes"/>
      <point x="237" y="648"/>
      <point x="258" y="677"/>
      <point x="293" y="677" type="curve" smooth="yes"/>
      <point x="334" y="677"/>
      <point x="351" y="642"/>
      <point x="341" y="590" type="curve" smooth="yes"/>
      <point x="337" y="569" type="line" smooth="yes"/>
      <point x="328" y="522"/>
      <point x="301" y="479"/>
    </contour>
  </outline>
</glyph>
<glyph name="quotesingle" format="2">
  <advance width="141"/>
  <unicode hex="0027"/>
  <anchor x="-22" y="0" name="#entry"/>
  <anchor x="128" y="0" name="#exit"/>
  <outline>
    <contour>
      <point x="86" y="423" type="line"/>
      <point x="122" y="423" type="line"/>
      <point x="174" y="590" type="line"/>
      <point x="204" y="729" type="line"/>
      <point x="136" y="729" type="line"/>
      <point x="106" y="590" type="line"/>
    </contour>
  </outline>
</glyph>
<glyph name="parenleft" format="2">
  <advance width="262"/>
  <unicode hex="0028"/>
  <outline>
    <contour>
      <point x="83" y="-167" type="curve"/>
      <point x="135" y="-167" type="line"/>
      <point x="119" y="-98"/>
      <point x="107" y="-7"/>
      <point x="107" y="86" type="curve" smooth="yes"/>
      <point x="107" y="340"/>
      <point x="213" y="645"/>
      <point x="345" y="793" type="curve"/>
      <point x="275" y="793" type="line"/>
      <point x="137" y="641"/>
      <point x="36" y="350"/>
      <point x="36" y="106" type="curve" smooth="yes"/>
      <point x="36" y="5"/>
      <point x="51" y="-94"/>
    </contour>
  </outline>
</glyph>
<glyph name="asterisk" format="2">
  <advance width="258"/>
  <unicode hex="002A"/>
  <outline>
    <contour>
      <point x="162" y="481" type="line"/>
      <point x="197" y="481" type="line"/>
      <point x="206" y="530" type="line"/>
      <point x="207" y="589" type="line"/>
      <point x="246" y="552" type="line"/>
      <point x="283" y="527" type="line"/>
      <point x="307" y="559" type="line"/>
      <point x="270" y="583" type="line"/>
      <point x="222" y="605" type="line"/>
      <point x="278" y="628" type="line"/>
      <point x="322" y="651" type="line"/>
      <point x="311" y="683" type="line"/>
      <point x="266" y="659" type="line"/>
      <point x="213" y="623" type="line"/>
      <point x="232" y="682" type="line"/>
      <point x="240" y="729" type="line"/>
      <point x="205" y="729" type="line"/>
      <point x="197" y="682" type="line"/>
      <point x="196" y="623" type="line"/>
      <point x="156" y="659" type="line"/>
      <point x="120" y="683" type="line"/>
      <point x="97" y="651" type="line"/>
      <point x="133" y="628" type="line"/>
      <point x="181" y="605" type="line"/>
      <point x="125" y="583" type="line"/>
      <point x="80" y="559" type="line"/>
      <point x="92" y="527" type="line"/>
      <point x="137" y="552" type="line"/>
      <point x="190" y="589" type="line"/>
      <point x="170" y="530" type="line"/>
    </contour>
  </outline>
</glyph>
<glyph name="plus" format="2">
  <advance width="501"/>
  <unicode hex="002B"/>
  <outline>
    <contour>
      <point x="196" y="161" type="line"/>
      <point x="261" y="161" type="line"/>
      <point x="347" y="561" type="line"/>
      <point x="282" y="561" type="line"/>
    </contour>
    <contour>
      <point x="65" y="331" type="line"/>
      <point x="467" y="331" type="line"/>
      <point x="479" y="391" type="line"/>
      <point x="77" y="391" type="line"/>
    </contour>
  </outline>
</glyph>
<glyph name="comma" format="2">
  <advance width="162"/>
  <unicode hex="002C"/>
  <anchor x="-9" y="0" name="#entry"/>
  <anchor x="132" y="0" name="#exit"/>
  <anchor x="136" y="523" name="top"/>
  <outline>
    <contour>
      <point x="-69" y="-153" type="line"/>
      <point x="-11" y="-153" type="line"/>
      <point x="72" y="3" type="line"/>
      <point x="93" y="105" type="line"/>
      <point x="1" y="105" type="line"/>
      <point x="-21" y="0" type="line"/>
      <point x="29" y="0" type="line"/>
    </contour>
  </outline>
</glyph>
<glyph name="hyphen" format="2">
  <advance width="290"/>
  <unicode hex="002D"/>
  <outline>
    <contour>
      <point x="42" y="290" type="line"/>
      <point x="260" y="290" type="line"/>
      <point x="274" y="356" type="line"/>
      <point x="56" y="356" type="line"/>
    </contour>
  </outline>
</glyph>
<glyph name="period" format="2">
  <advance width="163"/>
  <unicode hex="002E"/>
  <anchor x="-62" y="0" name="#entry"/>
  <anchor x="103" y="0" name="#exit"/>
  <anchor x="48" y="105" name="_top"/>
  <anchor x="137" y="523" name="top"/>
  <outline>
    <contour>
      <point x="-20" y="0" type="line"/>
      <point x="72" y="0" type="line"/>
      <point x="94" y="105" type="line"/>
      <point x="2" y="105" type="line"/>
    </contour>
  </outline>
</glyph>
<glyph name="slash" format="2">
  <advance width="311"/>
  <unicode hex="002F"/>
  <outline>
    <contour>
      <point x="-66" y="-82" type="line"/>
      <point x="5" y="-82" type="line"/>
      <point x="379" y="729" type="line"/>
      <point x="307" y="729" type="line"/>
    </contour>
  </outline>
</glyph>
<glyph name="zero" format="2">
  <advance width="461"/>
  <unicode hex="0030"/>
  <note>
zero
</note>
  <outline>
    <contour>
      <point x="198" y="-7" type="curve" smooth="yes"/>
      <point x="302" y="-7"/>
      <point x="367" y="60"/>
      <point x="395" y="191" type="curve" smooth="yes"/>
      <point x="459" y="490" type="line" smooth="yes"/>
      <point x="492" y="644"/>
      <point x="440" y="736"/>
      <point x="308" y="736" type="curve" smooth="yes"/>
      <point x="201" y="736"/>
      <point x="138" y="669"/>
      <point x="110" y="538" type="curve" smooth="yes"/>
      <point x="46" y="239" type="line" smooth="yes"/>
      <point x="12" y="80"/>
      <point x="69" y="-7"/>
    </contour>
    <contour>
      <point x="199" y="54" type="curve" smooth="yes"/>
      <point x="118" y="54"/>
      <point x="91" y="111"/>
      <point x="113" y="215" type="curve" smooth="yes"/>
      <point x="183" y="545" type="line" smooth="yes"/>
      <point x="201" y="630"/>
      <point x="237" y="675"/>
      <point x="304" y="675" type="curve" smooth="yes"/>
      <point x="383" y="675"/>
      <point x="414" y="621"/>
      <point x="391" y="514" type="curve" smooth="yes"/>
      <point x="320" y="184" type="line" smooth="yes"/>
      <point x="301" y="96"/>
      <point x="265" y="54"/>
    </contour>
    <contour>
      <point x="99" y="331" type="line"/>
      <point x="376" y="331" type="line"/>
      <point x="390" y="398" type="line"/>
      <point x="113" y="398" type="line"/>
    </contour>
  </outline>
</glyph>
<glyph name="one" format="2">
  <advance width="272"/>
  <unicode hex="0031"/>
  <note>
one
</note>
  <outline>
    <contour>
      <point x="82" y="0" type="line"/>
      <point x="156" y="0" type="line"/>
      <point x="309" y="729" type="line"/>
      <point x="247" y="729" type="line"/>
      <point x="211" y="615" type="line"/>
      <point x="108" y="615" type="line"/>
      <point x="95" y="549" type="line"/>
      <point x="198" y="549" type="line"/>
    </contour>
  </outline>
</glyph>
<glyph name="two" format="2">
  <advance width="447"/>
  <unicode hex="0032"/>
  <note>
two
</note>
  <outline>
    <contour>
      <point x="-10" y="0" type="line"/>
      <point x="358" y="0" type="line"/>
      <point x="368" y="64" type="line"/>
      <point x="116" y="64" type="line"/>
      <point x="84" y="63" type="line"/>
      <point x="85" y="67" type="line"/>
      <point x="128" y="113" type="line"/>
      <point x="311" y="323" type="line" smooth="yes"/>
      <point x="380" y="401"/>
      <point x="451" y="484"/>
      <point x="451" y="588" type="curve" smooth="yes"/>
      <point x="451" y="678"/>
      <point x="392" y="735"/>
      <point x="297" y="735" type="curve" smooth="yes"/>
      <point x="184" y="735"/>
      <point x="115" y="651"/>
      <point x="93" y="516" type="curve"/>
      <point x="162" y="516" type="line"/>
      <point x="177" y="610"/>
      <point x="216" y="670"/>
      <point x="288" y="670" type="curve" smooth="yes"/>
      <point x="371" y="670"/>
      <point x="385" y="612"/>
      <point x="372" y="548" type="curve" smooth="yes"/>
      <point x="368" y="529" type="line" smooth="yes"/>
      <point x="358" y="483"/>
      <point x="324" y="433"/>
      <point x="264" y="365" type="curve" smooth="yes"/>
      <point x="5" y="72" type="line"/>
    </contour>
  </outline>
</glyph>
<glyph name="three" format="2">
  <advance width="439"/>
  <unicode hex="0033"/>
  <note>
three
</note>
  <outline>
    <contour>
      <point x="175" y="-6" type="curve" smooth="yes"/>
      <point x="280" y="-6"/>
      <point x="353" y="61"/>
      <point x="375" y="180" type="curve" smooth="yes"/>
      <point x="389" y="259"/>
      <point x="382" y="337"/>
      <point x="316" y="363" type="curve"/>
      <point x="317" y="369" type="line"/>
      <point x="380" y="384"/>
      <point x="436" y="436"/>
      <point x="455" y="538" type="curve" smooth="yes"/>
      <point x="477" y="650"/>
      <point x="425" y="734"/>
      <point x="307" y="734" type="curve" smooth="yes"/>
      <point x="192" y="734"/>
      <point x="130" y="645"/>
      <point x="106" y="515" type="curve"/>
      <point x="174" y="515" type="line"/>
      <point x="200" y="628"/>
      <point x="236" y="672"/>
      <point x="303" y="672" type="curve" smooth="yes"/>
      <point x="377" y="672"/>
      <point x="400" y="614"/>
      <point x="382" y="536" type="curve" smooth="yes"/>
      <point x="372" y="498" type="line" smooth="yes"/>
      <point x="358" y="442"/>
      <point x="319" y="403"/>
      <point x="242" y="403" type="curve" smooth="yes"/>
      <point x="192" y="403" type="line"/>
      <point x="179" y="345" type="line"/>
      <point x="222" y="345" type="line" smooth="yes"/>
      <point x="300" y="345"/>
      <point x="326" y="289"/>
      <point x="307" y="209" type="curve" smooth="yes"/>
      <point x="297" y="163" type="line" smooth="yes"/>
      <point x="281" y="96"/>
      <point x="241" y="59"/>
      <point x="179" y="59" type="curve" smooth="yes"/>
      <point x="97" y="59"/>
      <point x="76" y="119"/>
      <point x="95" y="216" type="curve"/>
      <point x="26" y="216" type="line"/>
      <point x="0" y="84"/>
      <point x="49" y="-6"/>
    </contour>
  </outline>
</glyph>
<glyph name="four" format="2">
  <advance width="467"/>
  <unicode hex="0034"/>
  <note>
four
</note>
  <outline>
    <contour>
      <point x="18" y="187" type="line"/>
      <point x="418" y="187" type="line"/>
      <point x="431" y="251" type="line"/>
      <point x="116" y="251" type="line"/>
      <point x="117" y="258" type="line"/>
      <point x="417" y="729" type="line"/>
      <point x="338" y="729" type="line"/>
      <point x="31" y="246" type="line"/>
    </contour>
    <contour>
      <point x="224" y="0" type="line"/>
      <point x="297" y="0" type="line"/>
      <point x="383" y="407" type="line"/>
      <point x="326" y="407" type="line"/>
      <point x="274" y="235" type="line"/>
    </contour>
  </outline>
</glyph>
<glyph name="five" format="2">
  <advance width="439"/>
  <unicode hex="0035"/>
  <note>
five
</note>
  <outline>
    <contour>
      <point x="175" y="-6" type="curve" smooth="yes"/>
      <point x="331" y="-6"/>
      <point x="401" y="168"/>
      <point x="401" y="322" type="curve" smooth="yes"/>
      <point x="401" y="422"/>
      <point x="357" y="479"/>
      <point x="274" y="479" type="curve" smooth="yes"/>
      <point x="229" y="479"/>
      <point x="186" y="455"/>
      <point x="160" y="416" type="curve"/>
      <point x="153" y="416" type="line"/>
      <point x="229" y="665" type="line"/>
      <point x="481" y="665" type="line"/>
      <point x="495" y="729" type="line"/>
      <point x="181" y="729" type="line"/>
      <point x="66" y="333" type="line"/>
      <point x="133" y="331" type="line"/>
      <point x="158" y="389"/>
      <point x="196" y="425"/>
      <point x="248" y="425" type="curve" smooth="yes"/>
      <point x="335" y="425"/>
      <point x="336" y="337"/>
      <point x="320" y="259" type="curve" smooth="yes"/>
      <point x="304" y="188" type="line" smooth="yes"/>
      <point x="283" y="102"/>
      <point x="243" y="59"/>
      <point x="181" y="59" type="curve" smooth="yes"/>
      <point x="85" y="59"/>
      <point x="81" y="138"/>
      <point x="96" y="215" type="curve"/>
      <point x="27" y="215" type="line"/>
      <point x="8" y="114"/>
      <point x="27" y="-6"/>
    </contour>
  </outline>
</glyph>
<glyph name="six" format="2">
  <advance width="449"/>
  <unicode hex="0036"/>
  <note>
six
</note>
  <outline>
    <contour>
      <point x="191" y="-7" type="curve" smooth="yes"/>
      <point x="343" y="-7"/>
      <point x="407" y="164"/>
      <point x="407" y="315" type="curve" smooth="yes"/>
      <point x="407" y="415"/>
      <point x="362" y="472"/>
      <point x="279" y="472" type="curve" smooth="yes"/>
      <point x="223" y="472"/>
      <point x="175" y="441"/>
      <point x="148" y="385" type="curve"/>
      <point x="142" y="385" type="line"/>
      <point x="148" y="406"/>
      <point x="153" y="427"/>
      <point x="173" y="514" type="curve" smooth="yes"/>
      <point x="200" y="632"/>
      <point x="241" y="675"/>
      <point x="311" y="675" type="curve" smooth="yes"/>
      <point x="405" y="675"/>
      <point x="403" y="589"/>
      <point x="395" y="531" type="curve"/>
      <point x="464" y="531" type="line"/>
      <point x="473" y="652"/>
      <point x="439" y="735"/>
      <point x="311" y="735" type="curve" smooth="yes"/>
      <point x="202" y="735"/>
      <point x="135" y="663"/>
      <point x="99" y="496" type="curve" smooth="yes"/>
      <point x="52" y="273" type="line" smooth="yes"/>
      <point x="23" y="135"/>
      <point x="35" y="-7"/>
    </contour>
    <contour>
      <point x="194" y="57" type="curve" smooth="yes"/>
      <point x="96" y="57"/>
      <point x="99" y="154"/>
      <point x="117" y="243" type="curve" smooth="yes"/>
      <point x="135" y="320" type="line"/>
      <point x="160" y="379"/>
      <point x="201" y="419"/>
      <point x="252" y="419" type="curve" smooth="yes"/>
      <point x="343" y="419"/>
      <point x="343" y="325"/>
      <point x="328" y="256" type="curve" smooth="yes"/>
      <point x="317" y="198" type="line" smooth="yes"/>
      <point x="299" y="110"/>
      <point x="262" y="57"/>
    </contour>
  </outline>
</glyph>
<glyph name="seven" format="2">
  <advance width="426"/>
  <unicode hex="0037"/>
  <note>
seven
</note>
  <outline>
    <contour>
      <point x="29" y="0" type="line"/>
      <point x="112" y="0" type="line"/>
      <point x="477" y="663" type="line"/>
      <point x="490" y="729" type="line"/>
      <point x="138" y="729" type="line"/>
      <point x="93" y="511" type="line"/>
      <point x="158" y="511" type="line"/>
      <point x="190" y="667" type="line"/>
      <point x="400" y="667" type="line"/>
      <point x="399" y="657" type="line"/>
    </contour>
  </outline>
</glyph>
<glyph name="eight" format="2">
  <advance width="437"/>
  <unicode hex="0038"/>
  <note>
eight
</note>
  <outline>
    <contour>
      <point x="184" y="-7" type="curve" smooth="yes"/>
      <point x="329" y="-7"/>
      <point x="383" y="121"/>
      <point x="383" y="233" type="curve" smooth="yes"/>
      <point x="383" y="286"/>
      <point x="367" y="336"/>
      <point x="312" y="363" type="curve"/>
      <point x="314" y="370" type="line"/>
      <point x="414" y="399"/>
      <point x="448" y="495"/>
      <point x="448" y="577" type="curve" smooth="yes"/>
      <point x="448" y="672"/>
      <point x="401" y="736"/>
      <point x="296" y="736" type="curve" smooth="yes"/>
      <point x="160" y="736"/>
      <point x="109" y="614"/>
      <point x="109" y="520" type="curve" smooth="yes"/>
      <point x="109" y="468"/>
      <point x="125" y="411"/>
      <point x="171" y="386" type="curve"/>
      <point x="170" y="378" type="line"/>
      <point x="68" y="356"/>
      <point x="26" y="244"/>
      <point x="26" y="158" type="curve" smooth="yes"/>
      <point x="26" y="66"/>
      <point x="74" y="-7"/>
    </contour>
    <contour>
      <point x="189" y="59" type="curve" smooth="yes"/>
      <point x="103" y="59"/>
      <point x="86" y="121"/>
      <point x="100" y="196" type="curve" smooth="yes"/>
      <point x="109" y="241" type="line" smooth="yes"/>
      <point x="124" y="309"/>
      <point x="168" y="346"/>
      <point x="222" y="346" type="curve" smooth="yes"/>
      <point x="315" y="346"/>
      <point x="323" y="264"/>
      <point x="311" y="210" type="curve" smooth="yes"/>
      <point x="302" y="161" type="line" smooth="yes"/>
      <point x="289" y="100"/>
      <point x="254" y="59"/>
    </contour>
    <contour>
      <point x="262" y="402" type="curve" smooth="yes"/>
      <point x="179" y="402"/>
      <point x="162" y="471"/>
      <point x="176" y="542" type="curve" smooth="yes"/>
      <point x="182" y="571" type="line" smooth="yes"/>
      <point x="195" y="635"/>
      <point x="233" y="670"/>
      <point x="288" y="670" type="curve" smooth="yes"/>
      <point x="377" y="670"/>
      <point x="394" y="605"/>
      <point x="377" y="533" type="curve" smooth="yes"/>
      <point x="370" y="503" type="line" smooth="yes"/>
      <point x="354" y="438"/>
      <point x="317" y="402"/>
    </contour>
  </outline>
</glyph>
<glyph name="equal" format="2">
  <advance width="500"/>
  <unicode hex="003D"/>
  <anchor x="271" y="361" name="center"/>
  <outline>
    <contour>
      <point x="56" y="435" type="line"/>
      <point x="518" y="435" type="line"/>
      <point x="531" y="495" type="line"/>
      <point x="69" y="495" type="line"/>
    </contour>
    <contour>
      <point x="13" y="235" type="line"/>
      <point x="475" y="235" type="line"/>
      <point x="488" y="295" type="line"/>
      <point x="26" y="295" type="line"/>
    </contour>
  </outline>
</glyph>
<glyph name="greater" format="2">
  <advance width="501"/>
  <unicode hex="003E"/>
  <outline>
    <contour>
      <point x="-16" y="130" type="line"/>
      <point x="452" y="317" type="line"/>
      <point x="472" y="406" type="line"/>
      <point x="84" y="599" type="line"/>
      <point x="69" y="525" type="line"/>
      <point x="385" y="369" type="line"/>
      <point x="384" y="362" type="line"/>
      <point x="2" y="213" type="line"/>
    </contour>
  </outline>
</glyph>
<glyph name="question" format="2">
  <advance width="356"/>
  <unicode hex="003F"/>
  <outline>
    <contour>
      <point x="132" y="177" type="line"/>
      <point x="195" y="177" type="line"/>
      <point x="200" y="201" type="line" smooth="yes"/>
      <point x="229" y="339"/>
      <point x="352" y="416"/>
      <point x="385" y="567" type="curve" smooth="yes"/>
      <point x="407" y="668"/>
      <point x="380" y="739"/>
      <point x="280" y="739" type="curve" smooth="yes"/>
      <point x="187" y="739"/>
      <point x="114" y="675"/>
      <point x="87" y="526" type="curve"/>
      <point x="149" y="526" type="line"/>
      <point x="168" y="622"/>
      <point x="203" y="675"/>
      <point x="264" y="675" type="curve" smooth="yes"/>
      <point x="310" y="675"/>
      <point x="332" y="644"/>
      <point x="315" y="562" type="curve" smooth="yes"/>
      <point x="287" y="428"/>
      <point x="171" y="354"/>
      <point x="138" y="204" type="curve" smooth="yes"/>
    </contour>
    <contour>
      <point x="87" y="0" type="line"/>
      <point x="165" y="0" type="line"/>
      <point x="184" y="86" type="line"/>
      <point x="105" y="86" type="line"/>
    </contour>
  </outline>
</glyph>
<glyph name="at" format="2">
  <advance width="622"/>
  <unicode hex="0040"/>
  <outline>
    <contour>
      <point x="254" y="-101" type="curve" smooth="yes"/>
      <point x="318" y="-101"/>
      <point x="390" y="-77"/>
      <point x="440" y="-28" type="curve"/>
      <point x="418" y="3" type="line"/>
      <point x="377" y="-32"/>
      <point x="326" y="-53"/>
      <point x="269" y="-53" type="curve" smooth="yes"/>
      <point x="123" y="-53"/>
      <point x="58" y="99"/>
      <point x="96" y="315" type="curve" smooth="yes"/>
      <point x="135" y="536"/>
      <point x="249" y="690"/>
      <point x="397" y="690" type="curve" smooth="yes"/>
      <point x="525" y="690"/>
      <point x="595" y="564"/>
      <point x="559" y="361" type="curve" smooth="yes"/>
      <point x="538" y="240"/>
      <point x="492" y="151"/>
      <point x="443" y="151" type="curve" smooth="yes"/>
      <point x="413" y="151"/>
      <point x="404" y="185"/>
      <point x="421" y="263" type="curve" smooth="yes"/>
      <point x="474" y="504" type="line"/>
      <point x="439" y="504" type="line"/>
      <point x="418" y="422" type="line"/>
      <point x="414" y="422" type="line"/>
      <point x="413" y="482"/>
      <point x="391" y="515"/>
      <point x="352" y="515" type="curve" smooth="yes"/>
      <point x="286" y="515"/>
      <point x="225" y="429"/>
      <point x="202" y="296" type="curve" smooth="yes"/>
      <point x="180" y="172"/>
      <point x="209" y="107"/>
      <point x="268" y="107" type="curve" smooth="yes"/>
      <point x="308" y="107"/>
      <point x="348" y="141"/>
      <point x="375" y="211" type="curve"/>
      <point x="378" y="211" type="line"/>
      <point x="369" y="146"/>
      <point x="389" y="104"/>
      <point x="436" y="104" type="curve" smooth="yes"/>
      <point x="513" y="104"/>
      <point x="583" y="214"/>
      <point x="610" y="367" type="curve" smooth="yes"/>
      <point x="649" y="589"/>
      <point x="563" y="738"/>
      <point x="406" y="738" type="curve" smooth="yes"/>
      <point x="235" y="738"/>
      <point x="89" y="568"/>
      <point x="44" y="311" type="curve" smooth="yes"/>
      <point x="0" y="66"/>
      <point x="81" y="-101"/>
    </contour>
    <contour>
      <point x="287" y="153" type="curve" smooth="yes"/>
      <point x="248" y="153"/>
      <point x="233" y="200"/>
      <point x="250" y="299" type="curve" smooth="yes"/>
      <point x="268" y="399"/>
      <point x="305" y="471"/>
      <point x="352" y="471" type="curve" smooth="yes"/>
      <point x="391" y="471"/>
      <point x="405" y="418"/>
      <point x="390" y="319" type="curve"/>
      <point x="369" y="221"/>
      <point x="331" y="153"/>
    </contour>
  </outline>
</glyph>
<glyph name="A" format="2">
  <advance width="446"/>
  <unicode hex="0041"/>
  <note>
A
</note>
  <anchor x="289" y="0" name="#exit"/>
  <anchor x="177" y="0" name="bottom"/>
  <anchor x="357" y="0" name="ogonek"/>
  <anchor x="320" y="729" name="top"/>
  <outline>
    <contour>
      <point x="-23" y="0" type="line"/>
      <point x="46" y="0" type="line"/>
      <point x="274" y="575" type="line"/>
      <point x="306" y="666" type="line"/>
      <point x="309" y="666" type="line"/>
      <point x="305" y="574" type="line"/>
      <point x="289" y="0" type="line"/>
      <point x="357" y="0" type="line"/>
      <point x="369" y="729" type="line"/>
      <point x="271" y="729" type="line"/>
    </contour>
    <contour>
      <point x="96" y="164" type="line"/>
      <point x="307" y="164" type="line"/>
      <point x="309" y="220" type="line"/>
      <point x="118" y="220" type="line"/>
    </contour>
  </outline>
</glyph>
<glyph name="B" format="2">
  <advance width="408"/>
  <unicode hex="0042"/>
  <note>
B
</note>
  <anchor x="150" y="0" name="bottom"/>
  <anchor x="305" y="729" name="top"/>
  <outline>
    <contour>
      <point x="5" y="0" type="line"/>
      <point x="139" y="0" type="line" smooth="yes"/>
      <point x="258" y="0"/>
      <point x="331" y="53"/>
      <point x="353" y="206" type="curve" smooth="yes"/>
      <point x="369" y="307"/>
      <point x="346" y="354"/>
      <point x="286" y="374" type="curve"/>
      <point x="287" y="379" type="line"/>
      <point x="358" y="397"/>
      <point x="402" y="447"/>
      <point x="418" y="557" type="curve" smooth="yes"/>
      <point x="437" y="674"/>
      <point x="387" y="729"/>
      <point x="285" y="729" type="curve" smooth="yes"/>
      <point x="159" y="729" type="line"/>
    </contour>
    <contour>
      <point x="86" y="56" type="line"/>
      <point x="217" y="673" type="line"/>
      <point x="283" y="673" type="line" smooth="yes"/>
      <point x="341" y="673"/>
      <point x="371" y="638"/>
      <point x="353" y="555" type="curve" smooth="yes"/>
      <point x="344" y="509" type="line" smooth="yes"/>
      <point x="327" y="435"/>
      <point x="284" y="403"/>
      <point x="228" y="403" type="curve" smooth="yes"/>
      <point x="145" y="403" type="line"/>
      <point x="134" y="348" type="line"/>
      <point x="216" y="348" type="line" smooth="yes"/>
      <point x="276" y="348"/>
      <point x="307" y="314"/>
      <point x="288" y="220" type="curve" smooth="yes"/>
      <point x="277" y="165" type="line" smooth="yes"/>
      <point x="264" y="101"/>
      <point x="227" y="56"/>
      <point x="149" y="56" type="curve" smooth="yes"/>
    </contour>
  </outline>
</glyph>
<glyph name="C" format="2">
  <advance width="444"/>
  <unicode hex="0043"/>
  <note>
C
</note>
  <anchor x="180" y="0" name="bottom"/>
  <anchor x="316" y="729" name="top"/>
  <outline>
    <contour>
      <point x="189" y="-7" type="curve" smooth="yes"/>
      <point x="306" y="-7"/>
      <point x="369" y="72"/>
      <point x="399" y="249" type="curve"/>
      <point x="333" y="249" type="line"/>
      <point x="307" y="115"/>
      <point x="274" y="51"/>
      <point x="195" y="51" type="curve" smooth="yes"/>
      <point x="115" y="51"/>
      <point x="89" y="109"/>
      <point x="110" y="213" type="curve" smooth="yes"/>
      <point x="181" y="545" type="line" smooth="yes"/>
      <point x="199" y="634"/>
      <point x="236" y="678"/>
      <point x="305" y="678" type="curve" smooth="yes"/>
      <point x="389" y="678"/>
      <point x="412" y="611"/>
      <point x="380" y="476" type="curve"/>
      <point x="447" y="476" type="line"/>
      <point x="483" y="643"/>
      <point x="438" y="736"/>
      <point x="307" y="736" type="curve" smooth="yes"/>
      <point x="205" y="736"/>
      <point x="140" y="676"/>
      <point x="111" y="545" type="curve" smooth="yes"/>
      <point x="45" y="233" type="line" smooth="yes"/>
      <point x="13" y="81"/>
      <point x="63" y="-7"/>
    </contour>
  </outline>
</glyph>
<glyph name="D" format="2">
  <advance width="447"/>
  <unicode hex="0044"/>
  <note>
D
</note>
  <anchor x="175" y="0" name="bottom"/>
  <anchor x="129" y="365" name="center"/>
  <anchor x="330" y="729" name="top"/>
  <outline>
    <contour>
      <point x="5" y="0" type="line"/>
      <point x="160" y="0" type="line" smooth="yes"/>
      <point x="287" y="0"/>
      <point x="355" y="63"/>
      <point x="386" y="210" type="curve" smooth="yes"/>
      <point x="445" y="486" type="line" smooth="yes"/>
      <point x="479" y="643"/>
      <point x="431" y="729"/>
      <point x="307" y="729" type="curve" smooth="yes"/>
      <point x="159" y="729" type="line"/>
    </contour>
    <contour>
      <point x="80" y="29" type="line"/>
      <point x="222" y="700" type="line"/>
      <point x="185" y="670" type="line"/>
      <point x="299" y="670" type="line" smooth="yes"/>
      <point x="385" y="670"/>
      <point x="402" y="609"/>
      <point x="377" y="493" type="curve" smooth="yes"/>
      <point x="318" y="216" type="line" smooth="yes"/>
      <point x="293" y="99"/>
      <point x="252" y="59"/>
      <point x="172" y="59" type="curve" smooth="yes"/>
      <point x="55" y="59" type="line"/>
    </contour>
  </outline>
</glyph>
<glyph name="E" format="2">
  <advance width="360"/>
  <unicode hex="0045"/>
  <note>
E
</note>
  <anchor x="5" y="0" name="#entry"/>
  <anchor x="131" y="0" name="bottom"/>
  <anchor x="269" y="0" name="ogonek"/>
  <anchor x="286" y="729" name="top"/>
  <anchor x="118" y="729" name="topleft"/>
  <outline>
    <contour>
      <point x="5" y="0" type="line"/>
      <point x="269" y="0" type="line"/>
      <point x="282" y="61" type="line"/>
      <point x="87" y="61" type="line"/>
      <point x="216" y="668" type="line"/>
      <point x="404" y="668" type="line"/>
      <point x="417" y="729" type="line"/>
      <point x="159" y="729" type="line"/>
    </contour>
    <contour>
      <point x="132" y="345" type="line"/>
      <point x="315" y="345" type="line"/>
      <point x="327" y="405" type="line"/>
      <point x="144" y="405" type="line"/>
    </contour>
  </outline>
</glyph>
<glyph name="F" format="2">
  <advance width="347"/>
  <unicode hex="0046"/>
  <note>
F
</note>
  <anchor x="114" y="0" name="bottom"/>
  <anchor x="269" y="729" name="top"/>
  <outline>
    <contour>
      <point x="5" y="0" type="line"/>
      <point x="75" y="0" type="line"/>
      <point x="216" y="668" type="line"/>
      <point x="399" y="668" type="line"/>
      <point x="411" y="729" type="line"/>
      <point x="159" y="729" type="line"/>
    </contour>
    <contour>
      <point x="131" y="342" type="line"/>
      <point x="311" y="342" type="line"/>
      <point x="324" y="402" type="line"/>
      <point x="144" y="402" type="line"/>
    </contour>
  </outline>
</glyph>
<glyph name="G" format="2">
  <advance width="444"/>
  <unicode hex="0047"/>
  <note>
G
</note>
  <anchor x="188" y="0" name="bottom"/>
  <anchor x="316" y="729" name="top"/>
  <outline>
    <contour>
      <point x="158" y="-7" type="curve" smooth="yes"/>
      <point x="204" y="-7"/>
      <point x="248" y="14"/>
      <point x="280" y="51" type="curve"/>
      <point x="288" y="51" type="line"/>
      <point x="292" y="0" type="line"/>
      <point x="338" y="0" type="line"/>
      <point x="417" y="370" type="line"/>
      <point x="243" y="370" type="line"/>
      <point x="230" y="307" type="line"/>
      <point x="334" y="307" type="line"/>
      <point x="291" y="108" type="line"/>
      <point x="265" y="69"/>
      <point x="224" y="52"/>
      <point x="191" y="52" type="curve" smooth="yes"/>
      <point x="101" y="52"/>
      <point x="92" y="121"/>
      <point x="109" y="201" type="curve" smooth="yes"/>
      <point x="182" y="545" type="line" smooth="yes"/>
      <point x="201" y="634"/>
      <point x="238" y="678"/>
      <point x="307" y="678" type="curve" smooth="yes"/>
      <point x="377" y="678"/>
      <point x="399" y="617"/>
      <point x="376" y="493" type="curve"/>
      <point x="442" y="493" type="line"/>
      <point x="469" y="649"/>
      <point x="427" y="736"/>
      <point x="309" y="736" type="curve" smooth="yes"/>
      <point x="207" y="736"/>
      <point x="142" y="676"/>
      <point x="113" y="545" type="curve" smooth="yes"/>
      <point x="40" y="203" type="line" smooth="yes"/>
      <point x="15" y="87"/>
      <point x="43" y="-7"/>
    </contour>
  </outline>
</glyph>
<glyph name="H" format="2">
  <advance width="455"/>
  <unicode hex="0048"/>
  <note>
H
</note>
  <anchor x="179" y="0" name="bottom"/>
  <anchor x="296" y="588" name="center"/>
  <anchor x="334" y="729" name="top"/>
  <anchor x="118" y="729" name="topleft"/>
  <outline>
    <contour>
      <point x="5" y="0" type="line"/>
      <point x="74" y="0" type="line"/>
      <point x="228" y="729" type="line"/>
      <point x="159" y="729" type="line"/>
    </contour>
    <contour>
      <point x="270" y="0" type="line"/>
      <point x="339" y="0" type="line"/>
      <point x="493" y="729" type="line"/>
      <point x="424" y="729" type="line"/>
    </contour>
    <contour>
      <point x="131" y="343" type="line"/>
      <point x="359" y="343" type="line"/>
      <point x="372" y="405" type="line"/>
      <point x="144" y="405" type="line"/>
    </contour>
  </outline>
</glyph>
<glyph name="I" format="2">
  <advance width="344"/>
  <unicode hex="0049"/>
  <note>
I
</note>
  <anchor x="116" y="0" name="bottom"/>
  <anchor x="252" y="0" name="ogonek"/>
  <anchor x="271" y="729" name="top"/>
  <anchor x="406" y="729" name="topleft"/>
  <outline>
    <contour>
      <point x="92" y="46" type="line"/>
      <point x="161" y="46" type="line"/>
      <point x="295" y="683" type="line"/>
      <point x="226" y="683" type="line"/>
    </contour>
    <contour>
      <point x="-19" y="0" type="line"/>
      <point x="252" y="0" type="line"/>
      <point x="265" y="62" type="line"/>
      <point x="-6" y="62" type="line"/>
    </contour>
    <contour>
      <point x="122" y="667" type="line"/>
      <point x="393" y="667" type="line"/>
      <point x="406" y="729" type="line"/>
      <point x="135" y="729" type="line"/>
    </contour>
  </outline>
</glyph>
<glyph name="J" format="2">
  <advance width="293"/>
  <unicode hex="004A"/>
  <note>
J
</note>
  <anchor x="109" y="0" name="bottom"/>
  <anchor x="297" y="729" name="top"/>
  <outline>
    <contour>
      <point x="-24" y="0" type="line"/>
      <point x="108" y="0" type="line" smooth="yes"/>
      <point x="151" y="0"/>
      <point x="183" y="20"/>
      <point x="193" y="71" type="curve" smooth="yes"/>
      <point x="332" y="729" type="line"/>
      <point x="262" y="729" type="line"/>
      <point x="121" y="60" type="line"/>
      <point x="-11" y="60" type="line"/>
    </contour>
  </outline>
</glyph>
<glyph name="K" format="2">
  <advance width="455"/>
  <unicode hex="004B"/>
  <note>
K
</note>
  <anchor x="171" y="0" name="bottom"/>
  <anchor x="326" y="729" name="top"/>
  <outline>
    <contour>
      <point x="5" y="0" type="line"/>
      <point x="74" y="0" type="line"/>
      <point x="123" y="231" type="line"/>
      <point x="224" y="362" type="line"/>
      <point x="295" y="0" type="line"/>
      <point x="367" y="0" type="line"/>
      <point x="281" y="413" type="line"/>
      <point x="517" y="729" type="line"/>
      <point x="439" y="729" type="line"/>
      <point x="144" y="332" type="line"/>
      <point x="228" y="729" type="line"/>
      <point x="159" y="729" type="line"/>
    </contour>
  </outline>
</glyph>
<glyph name="L" format="2">
  <advance width="337"/>
  <unicode hex="004C"/>
  <note>
L
</note>
  <anchor x="127" y="0" name="bottom"/>
  <anchor x="116" y="365" name="center"/>
  <anchor x="194" y="729" name="top"/>
  <anchor x="249" y="729" name="topright"/>
  <outline>
    <contour>
      <point x="5" y="0" type="line"/>
      <point x="249" y="0" type="line"/>
      <point x="262" y="62" type="line"/>
      <point x="87" y="62" type="line"/>
      <point x="229" y="729" type="line"/>
      <point x="159" y="729" type="line"/>
    </contour>
  </outline>
</glyph>
<glyph name="M" format="2">
  <advance width="555"/>
  <unicode hex="004D"/>
  <note>
M
</note>
  <anchor x="228" y="0" name="bottom"/>
  <anchor x="383" y="729" name="top"/>
  <outline>
    <contour>
      <point x="5" y="0" type="line"/>
      <point x="72" y="0" type="line"/>
      <point x="192" y="572" type="line"/>
      <point x="209" y="652" type="line"/>
      <point x="213" y="652" type="line"/>
      <point x="210" y="572" type="line"/>
      <point x="188" y="0" type="line"/>
      <point x="257" y="0" type="line"/>
      <point x="479" y="575" type="line"/>
      <point x="509" y="652" type="line"/>
      <point x="512" y="652" type="line"/>
      <point x="495" y="575" type="line"/>
      <point x="372" y="0" type="line"/>
      <point x="439" y="0" type="line"/>
      <point x="592" y="729" type="line"/>
      <point x="483" y="729" type="line"/>
      <point x="291" y="236" type="line"/>
      <point x="250" y="121" type="line"/>
      <point x="246" y="121" type="line"/>
      <point x="253" y="236" type="line"/>
      <point x="271" y="729" type="line"/>
      <point x="159" y="729" type="line"/>
    </contour>
  </outline>
</glyph>
<glyph name="N" format="2">
  <advance width="459"/>
  <unicode hex="004E"/>
  <note>
N
</note>
  <anchor x="181" y="0" name="bottom"/>
  <anchor x="336" y="729" name="top"/>
  <outline>
    <contour>
      <point x="5" y="0" type="line"/>
      <point x="73" y="0" type="line"/>
      <point x="199" y="600" type="line"/>
      <point x="203" y="600" type="line"/>
      <point x="206" y="545" type="line"/>
      <point x="252" y="0" type="line"/>
      <point x="343" y="0" type="line"/>
      <point x="496" y="729" type="line"/>
      <point x="429" y="729" type="line"/>
      <point x="303" y="128" type="line"/>
      <point x="299" y="128" type="line"/>
      <point x="298" y="179" type="line"/>
      <point x="251" y="729" type="line"/>
      <point x="159" y="729" type="line"/>
    </contour>
  </outline>
</glyph>
<glyph name="O" format="2">
  <advance width="455"/>
  <unicode hex="004F"/>
  <note>
O
</note>
  <anchor x="186" y="0" name="bottom"/>
  <anchor x="251" y="365" name="center"/>
  <anchor x="368" y="10" name="ogonek"/>
  <anchor x="313" y="729" name="top"/>
  <anchor x="126" y="729" name="topleft"/>
  <anchor x="400" y="709" name="topright"/>
  <outline>
    <contour>
      <point x="196" y="-7" type="curve" smooth="yes"/>
      <point x="300" y="-7"/>
      <point x="361" y="60"/>
      <point x="389" y="191" type="curve" smooth="yes"/>
      <point x="453" y="490" type="line" smooth="yes"/>
      <point x="486" y="644"/>
      <point x="438" y="736"/>
      <point x="306" y="736" type="curve" smooth="yes"/>
      <point x="199" y="736"/>
      <point x="138" y="669"/>
      <point x="110" y="538" type="curve" smooth="yes"/>
      <point x="46" y="239" type="line" smooth="yes"/>
      <point x="12" y="80"/>
      <point x="67" y="-7"/>
    </contour>
    <contour>
      <point x="197" y="54" type="curve" smooth="yes"/>
      <point x="116" y="54"/>
      <point x="89" y="111"/>
      <point x="111" y="215" type="curve" smooth="yes"/>
      <point x="181" y="545" type="line" smooth="yes"/>
      <point x="199" y="630"/>
      <point x="235" y="675"/>
      <point x="302" y="675" type="curve" smooth="yes"/>
      <point x="381" y="675"/>
      <point x="412" y="621"/>
      <point x="389" y="514" type="curve" smooth="yes"/>
      <point x="318" y="184" type="line" smooth="yes"/>
      <point x="299" y="96"/>
      <point x="263" y="54"/>
    </contour>
  </outline>
</glyph>
<glyph name="P" format="2">
  <advance width="403"/>
  <unicode hex="0050"/>
  <note>
P
</note>
  <anchor x="148" y="0" name="bottom"/>
  <anchor x="303" y="729" name="top"/>
  <outline>
    <contour>
      <point x="5" y="0" type="line"/>
      <point x="74" y="0" type="line"/>
      <point x="217" y="672" type="line"/>
      <point x="282" y="672" type="line" smooth="yes"/>
      <point x="345" y="672"/>
      <point x="373" y="630"/>
      <point x="357" y="550" type="curve" smooth="yes"/>
      <point x="346" y="492" type="line" smooth="yes"/>
      <point x="332" y="421"/>
      <point x="294" y="374"/>
      <point x="219" y="374" type="curve" smooth="yes"/>
      <point x="138" y="374" type="line"/>
      <point x="126" y="317" type="line"/>
      <point x="214" y="317" type="line" smooth="yes"/>
      <point x="333" y="317"/>
      <point x="400" y="385"/>
      <point x="422" y="537" type="curve" smooth="yes"/>
      <point x="441" y="672"/>
      <point x="386" y="729"/>
      <point x="282" y="729" type="curve" smooth="yes"/>
      <point x="159" y="729" type="line"/>
    </contour>
  </outline>
</glyph>
<glyph name="R" format="2">
  <advance width="408"/>
  <unicode hex="0052"/>
  <note>
R
</note>
  <anchor x="152" y="0" name="bottom"/>
  <anchor x="266" y="729" name="top"/>
  <outline>
    <contour>
      <point x="5" y="0" type="line"/>
      <point x="74" y="0" type="line"/>
      <point x="216" y="671" type="line"/>
      <point x="284" y="671" type="line" smooth="yes"/>
      <point x="346" y="671"/>
      <point x="373" y="630"/>
      <point x="354" y="537" type="curve" smooth="yes"/>
      <point x="345" y="494" type="line" smooth="yes"/>
      <point x="325" y="400"/>
      <point x="280" y="373"/>
      <point x="213" y="373" type="curve" smooth="yes"/>
      <point x="138" y="373" type="line"/>
      <point x="126" y="315" type="line"/>
      <point x="199" y="315" type="line"/>
      <point x="242" y="0" type="line"/>
      <point x="314" y="0" type="line"/>
      <point x="262" y="340" type="line"/>
      <point x="255" y="323" type="line"/>
      <point x="258" y="323" type="line"/>
      <point x="349" y="339"/>
      <point x="400" y="399"/>
      <point x="421" y="535" type="curve" smooth="yes"/>
      <point x="439" y="655"/>
      <point x="398" y="729"/>
      <point x="293" y="729" type="curve" smooth="yes"/>
      <point x="159" y="729" type="line"/>
    </contour>
  </outline>
</glyph>
<glyph name="S" format="2">
  <advance width="420"/>
  <unicode hex="0053"/>
  <note>
S
</note>
  <anchor x="181" y="0" name="bottom"/>
  <anchor x="287" y="729" name="top"/>
  <outline>
    <contour>
      <point x="180" y="-7" type="curve" smooth="yes"/>
      <point x="302" y="-7"/>
      <point x="360" y="91"/>
      <point x="360" y="195" type="curve" smooth="yes"/>
      <point x="360" y="274"/>
      <point x="327" y="325"/>
      <point x="280" y="373" type="curve" smooth="yes"/>
      <point x="238" y="414" type="line" smooth="yes"/>
      <point x="203" y="448"/>
      <point x="175" y="481"/>
      <point x="175" y="543" type="curve" smooth="yes"/>
      <point x="175" y="624"/>
      <point x="216" y="677"/>
      <point x="276" y="677" type="curve" smooth="yes"/>
      <point x="372" y="677"/>
      <point x="381" y="606"/>
      <point x="362" y="503" type="curve"/>
      <point x="429" y="503" type="line"/>
      <point x="451" y="644"/>
      <point x="415" y="736"/>
      <point x="277" y="736" type="curve" smooth="yes"/>
      <point x="175" y="736"/>
      <point x="106" y="655"/>
      <point x="106" y="532" type="curve" smooth="yes"/>
      <point x="106" y="455"/>
      <point x="141" y="408"/>
      <point x="181" y="368" type="curve" smooth="yes"/>
      <point x="225" y="323" type="line" smooth="yes"/>
      <point x="260" y="289"/>
      <point x="287" y="254"/>
      <point x="287" y="194" type="curve" smooth="yes"/>
      <point x="287" y="108"/>
      <point x="248" y="51"/>
      <point x="180" y="51" type="curve" smooth="yes"/>
      <point x="108" y="51"/>
      <point x="74" y="103"/>
      <point x="97" y="226" type="curve"/>
      <point x="32" y="226" type="line"/>
      <point x="8" y="82"/>
      <point x="47" y="-7"/>
    </contour>
  </outline>
</glyph>
<glyph name="T" format="2">
  <advance width="389"/>
  <unicode hex="0054"/>
  <note>
T
</note>
  <anchor x="140" y="0" name="bottom"/>
  <anchor x="217" y="365" name="center"/>
  <anchor x="294" y="729" name="top"/>
  <outline>
    <contour>
      <point x="105" y="0" type="line"/>
      <point x="174" y="0" type="line"/>
      <point x="315" y="669" type="line"/>
      <point x="443" y="669" type="line"/>
      <point x="456" y="729" type="line"/>
      <point x="131" y="729" type="line"/>
      <point x="119" y="669" type="line"/>
      <point x="246" y="669" type="line"/>
    </contour>
  </outline>
</glyph>
<glyph name="U" format="2">
  <advance width="451"/>
  <unicode hex="0055"/>
  <note>
U
</note>
  <anchor x="180" y="0" name="bottom"/>
  <anchor x="225" y="0" name="ogonek"/>
  <anchor x="322" y="729" name="top"/>
  <anchor x="422" y="729" name="topright"/>
  <outline>
    <contour>
      <point x="187" y="-7" type="curve" smooth="yes"/>
      <point x="277" y="-7"/>
      <point x="347" y="38"/>
      <point x="371" y="155" type="curve" smooth="yes"/>
      <point x="491" y="729" type="line"/>
      <point x="422" y="729" type="line"/>
      <point x="303" y="160" type="line" smooth="yes"/>
      <point x="290" y="96"/>
      <point x="256" y="53"/>
      <point x="192" y="53" type="curve" smooth="yes"/>
      <point x="125" y="53"/>
      <point x="91" y="95"/>
      <point x="111" y="190" type="curve" smooth="yes"/>
      <point x="224" y="729" type="line"/>
      <point x="154" y="729" type="line"/>
      <point x="43" y="199" type="line" smooth="yes"/>
      <point x="22" y="100"/>
      <point x="54" y="-7"/>
    </contour>
  </outline>
</glyph>
<glyph name="V" format="2">
  <advance width="431"/>
  <unicode hex="0056"/>
  <note>
V
</note>
  <anchor x="169" y="0" name="bottom"/>
  <anchor x="324" y="729" name="top"/>
  <outline>
    <contour>
      <point x="107" y="1" type="line"/>
      <point x="210" y="1" type="line"/>
      <point x="493" y="729" type="line"/>
      <point x="421" y="729" type="line"/>
      <point x="199" y="143" type="line"/>
      <point x="174" y="66" type="line"/>
      <point x="169" y="66" type="line"/>
      <point x="176" y="143" type="line"/>
      <point x="198" y="729" type="line"/>
      <point x="132" y="729" type="line"/>
    </contour>
  </outline>
</glyph>
<glyph name="W" format="2">
  <advance width="610"/>
  <unicode hex="0057"/>
  <note>
W
</note>
  <anchor x="261" y="0" name="bottom"/>
  <anchor x="416" y="729" name="top"/>
  <outline>
    <contour>
      <point x="70" y="0" type="line"/>
      <point x="159" y="0" type="line"/>
      <point x="337" y="493" type="line"/>
      <point x="379" y="618" type="line"/>
      <point x="382" y="618" type="line"/>
      <point x="371" y="493" type="line"/>
      <point x="340" y="0" type="line"/>
      <point x="431" y="0" type="line"/>
      <point x="674" y="729" type="line"/>
      <point x="606" y="729" type="line"/>
      <point x="476" y="320" type="line"/>
      <point x="400" y="77" type="line"/>
      <point x="395" y="77" type="line"/>
      <point x="398" y="117" type="line"/>
      <point x="441" y="729" type="line"/>
      <point x="366" y="729" type="line"/>
      <point x="149" y="112" type="line"/>
      <point x="138" y="77" type="line"/>
      <point x="134" y="77" type="line"/>
      <point x="159" y="315" type="line"/>
      <point x="200" y="729" type="line"/>
      <point x="134" y="729" type="line"/>
    </contour>
  </outline>
</glyph>
<glyph name="X" format="2">
  <advance width="442"/>
  <unicode hex="0058"/>
  <note>
X
</note>
  <anchor x="175" y="0" name="bottom"/>
  <anchor x="330" y="729" name="top"/>
  <outline>
    <contour>
      <point x="-24" y="0" type="line"/>
      <point x="48" y="0" type="line"/>
      <point x="231" y="316" type="line"/>
      <point x="236" y="316" type="line"/>
      <point x="287" y="0" type="line"/>
      <point x="354" y="0" type="line"/>
      <point x="291" y="379" type="line"/>
      <point x="495" y="729" type="line"/>
      <point x="423" y="729" type="line"/>
      <point x="259" y="440" type="line"/>
      <point x="254" y="440" type="line"/>
      <point x="209" y="729" type="line"/>
      <point x="142" y="729" type="line"/>
      <point x="201" y="382" type="line"/>
    </contour>
  </outline>
</glyph>
<glyph name="Y" format="2">
  <advance width="437"/>
  <unicode hex="0059"/>
  <note>
Y
</note>
  <anchor x="164" y="0" name="bottom"/>
  <anchor x="316" y="729" name="top"/>
  <anchor x="128" y="729" name="topleft"/>
  <outline>
    <contour>
      <point x="130" y="0" type="line"/>
      <point x="198" y="0" type="line"/>
      <point x="257" y="276" type="line"/>
      <point x="505" y="729" type="line"/>
      <point x="434" y="729" type="line"/>
      <point x="284" y="443" type="line"/>
      <point x="241" y="358" type="line"/>
      <point x="235" y="358" type="line"/>
      <point x="227" y="443" type="line"/>
      <point x="197" y="729" type="line"/>
      <point x="130" y="729" type="line"/>
      <point x="189" y="276" type="line"/>
    </contour>
  </outline>
</glyph>
<glyph name="Z" format="2">
  <advance width="388"/>
  <unicode hex="005A"/>
  <note>
Z
</note>
  <anchor x="138" y="0" name="bottom"/>
  <anchor x="216" y="365" name="center"/>
  <anchor x="293" y="729" name="top"/>
  <outline>
    <contour>
      <point x="-20" y="0" type="line"/>
      <point x="296" y="0" type="line"/>
      <point x="309" y="61" type="line"/>
      <point x="66" y="61" type="line"/>
      <point x="433" y="669" type="line"/>
      <point x="446" y="729" type="line"/>
      <point x="144" y="729" type="line"/>
      <point x="131" y="669" type="line"/>
      <point x="360" y="669" type="line"/>
      <point x="-7" y="61" type="line"/>
    </contour>
  </outline>
</glyph>
<glyph name="bracketleft" format="2">
  <advance width="271"/>
  <unicode hex="005B"/>
  <outline>
    <contour>
      <point x="-30" y="-167" type="line"/>
      <point x="146" y="-167" type="line"/>
      <point x="158" y="-111" type="line"/>
      <point x="51" y="-111" type="line"/>
      <point x="231" y="735" type="line"/>
      <point x="338" y="735" type="line"/>
      <point x="350" y="793" type="line"/>
      <point x="174" y="793" type="line"/>
    </contour>
  </outline>
</glyph>
<glyph name="backslash" format="2">
  <advance width="304"/>
  <unicode hex="005C"/>
  <outline>
    <contour>
      <point x="160" y="-82" type="line"/>
      <point x="224" y="-82" type="line"/>
      <point x="195" y="729" type="line"/>
      <point x="130" y="729" type="line"/>
    </contour>
  </outline>
</glyph>
<glyph name="asciicircum" format="2">
  <advance width="501"/>
  <unicode hex="005E"/>
  <outline>
    <contour>
      <point x="111" y="473" type="line"/>
      <point x="179" y="473" type="line"/>
      <point x="307" y="664" type="line"/>
      <point x="367" y="473" type="line"/>
      <point x="431" y="473" type="line"/>
      <point x="350" y="729" type="line"/>
      <point x="282" y="729" type="line"/>
    </contour>
  </outline>
</glyph>
<glyph name="underscore" format="2">
  <advance width="291"/>
  <unicode hex="005F"/>
  <outline>
    <contour>
      <point x="-65" y="-62" type="line"/>
      <point x="217" y="-62" type="line"/>
      <point x="231" y="0" type="line"/>
      <point x="-51" y="0" type="line"/>
    </contour>
  </outline>
</glyph>
<glyph name="a" format="2">
  <advance width="399"/>
  <unicode hex="0061"/>
  <note>
a
</note>
  <anchor x="153" y="0" name="bottom"/>
  <anchor x="294" y="0" name="ogonek"/>
  <anchor x="265" y="523" name="top"/>
  <outline>
    <contour>
      <point x="117" y="-7" type="curve" smooth="yes"/>
      <point x="166" y="-7"/>
      <point x="209" y="21"/>
      <point x="235" y="70" type="curve"/>
      <point x="240" y="70" type="line"/>
      <point x="232" y="0" type="line"/>
      <point x="294" y="0" type="line"/>
      <point x="404" y="523" type="line"/>
      <point x="343" y="523" type="line"/>
      <point x="318" y="441" type="line"/>
      <point x="313" y="441" type="line"/>
      <point x="303" y="496"/>
      <point x="272" y="530"/>
      <point x="212" y="530" type="curve" smooth="yes"/>
      <point x="141" y="530"/>
      <point x="91" y="482"/>
      <point x="65" y="366" type="curve" smooth="yes"/>
      <point x="23" y="177" type="line" smooth="yes"/>
      <point x="-1" y="71"/>
      <point x="27" y="-7"/>
    </contour>
    <contour>
      <point x="149" y="52" type="curve" smooth="yes"/>
      <point x="91" y="52"/>
      <point x="74" y="97"/>
      <point x="91" y="175" type="curve" smooth="yes"/>
      <point x="132" y="360" type="line" smooth="yes"/>
      <point x="147" y="427"/>
      <point x="173" y="470"/>
      <point x="225" y="470" type="curve" smooth="yes"/>
      <point x="271" y="470"/>
      <point x="296" y="435"/>
      <point x="303" y="371" type="curve"/>
      <point x="255" y="141" type="line"/>
      <point x="224" y="81"/>
      <point x="191" y="52"/>
    </contour>
  </outline>
</glyph>
<glyph name="b" format="2">
  <advance width="399"/>
  <unicode hex="0062"/>
  <note>
b
</note>
  <anchor x="156" y="0" name="bottom"/>
  <anchor x="326" y="800" name="top"/>
  <outline>
    <contour>
      <point x="188" y="-7" type="curve" smooth="yes"/>
      <point x="259" y="-7"/>
      <point x="310" y="42"/>
      <point x="335" y="158" type="curve" smooth="yes"/>
      <point x="376" y="347" type="line" smooth="yes"/>
      <point x="400" y="457"/>
      <point x="371" y="530"/>
      <point x="284" y="530" type="curve" smooth="yes"/>
      <point x="234" y="530"/>
      <point x="193" y="502"/>
      <point x="166" y="453" type="curve"/>
      <point x="159" y="453" type="line"/>
      <point x="216" y="729" type="line"/>
      <point x="148" y="729" type="line"/>
      <point x="-5" y="0" type="line"/>
      <point x="56" y="0" type="line"/>
      <point x="80" y="83" type="line"/>
      <point x="85" y="83" type="line"/>
      <point x="95" y="29"/>
      <point x="130" y="-7"/>
    </contour>
    <contour>
      <point x="174" y="54" type="curve" smooth="yes"/>
      <point x="127" y="54"/>
      <point x="102" y="89"/>
      <point x="96" y="153" type="curve"/>
      <point x="143" y="377" type="line"/>
      <point x="174" y="438"/>
      <point x="207" y="472"/>
      <point x="252" y="472" type="curve" smooth="yes"/>
      <point x="303" y="472"/>
      <point x="326" y="432"/>
      <point x="308" y="348" type="curve" smooth="yes"/>
      <point x="268" y="164" type="line" smooth="yes"/>
      <point x="252" y="90"/>
      <point x="222" y="54"/>
    </contour>
  </outline>
</glyph>
<glyph name="c" format="2">
  <advance width="384"/>
  <unicode hex="0063"/>
  <note>
c
</note>
  <anchor x="145" y="0" name="bottom"/>
  <anchor x="257" y="523" name="top"/>
  <outline>
    <contour>
      <point x="154" y="-7" type="curve" smooth="yes"/>
      <point x="243" y="-7"/>
      <point x="308" y="46"/>
      <point x="334" y="173" type="curve"/>
      <point x="268" y="173" type="line"/>
      <point x="252" y="102"/>
      <point x="224" y="52"/>
      <point x="160" y="52" type="curve" smooth="yes"/>
      <point x="94" y="52"/>
      <point x="72" y="97"/>
      <point x="89" y="176" type="curve" smooth="yes"/>
      <point x="129" y="364" type="line" smooth="yes"/>
      <point x="142" y="425"/>
      <point x="171" y="471"/>
      <point x="233" y="471" type="curve" smooth="yes"/>
      <point x="304" y="471"/>
      <point x="320" y="417"/>
      <point x="302" y="336" type="curve"/>
      <point x="367" y="336" type="line"/>
      <point x="387" y="452"/>
      <point x="350" y="530"/>
      <point x="237" y="530" type="curve" smooth="yes"/>
      <point x="150" y="530"/>
      <point x="86" y="478"/>
      <point x="61" y="362" type="curve" smooth="yes"/>
      <point x="24" y="193" type="line" smooth="yes"/>
      <point x="-1" y="76"/>
      <point x="40" y="-7"/>
    </contour>
  </outline>
</glyph>
<glyph name="d" format="2">
  <advance width="399"/>
  <unicode hex="0064"/>
  <note>
d
</note>
  <anchor x="153" y="0" name="bottom"/>
  <anchor x="373" y="611" name="center"/>
  <anchor x="323" y="800" name="top"/>
  <anchor x="448" y="730" name="topright"/>
  <outline>
    <contour>
      <point x="118" y="-7" type="curve" smooth="yes"/>
      <point x="167" y="-7"/>
      <point x="210" y="21"/>
      <point x="236" y="70" type="curve"/>
      <point x="242" y="70" type="line"/>
      <point x="232" y="0" type="line"/>
      <point x="294" y="0" type="line"/>
      <point x="448" y="730" type="line"/>
      <point x="379" y="730" type="line"/>
      <point x="319" y="441" type="line"/>
      <point x="312" y="441" type="line"/>
      <point x="303" y="496"/>
      <point x="272" y="530"/>
      <point x="212" y="530" type="curve" smooth="yes"/>
      <point x="141" y="530"/>
      <point x="91" y="482"/>
      <point x="65" y="366" type="curve" smooth="yes"/>
      <point x="23" y="177" type="line" smooth="yes"/>
      <point x="-1" y="71"/>
      <point x="27" y="-7"/>
    </contour>
    <contour>
      <point x="150" y="52" type="curve" smooth="yes"/>
      <point x="92" y="52"/>
      <point x="74" y="97"/>
      <point x="91" y="175" type="curve" smooth="yes"/>
      <point x="132" y="360" type="line" smooth="yes"/>
      <point x="147" y="427"/>
      <point x="173" y="470"/>
      <point x="225" y="470" type="curve" smooth="yes"/>
      <point x="271" y="470"/>
      <point x="296" y="434"/>
      <point x="303" y="370" type="curve"/>
      <point x="255" y="140" type="line"/>
      <point x="225" y="81"/>
      <point x="191" y="52"/>
    </contour>
  </outline>
</glyph>
<glyph name="e" format="2">
  <advance width="388"/>
  <unicode hex="0065"/>
  <note>
e
</note>
  <anchor x="-17" y="0" name="#entry"/>
  <anchor x="149" y="0" name="bottom"/>
  <anchor x="204" y="0" name="ogonek"/>
  <anchor x="238" y="523" name="top"/>
  <outline>
    <contour>
      <point x="152" y="-7" type="curve" smooth="yes"/>
      <point x="242" y="-7"/>
      <point x="307" y="50"/>
      <point x="329" y="158" type="curve"/>
      <point x="264" y="158" type="line"/>
      <point x="247" y="85"/>
      <point x="213" y="50"/>
      <point x="160" y="50" type="curve" smooth="yes"/>
      <point x="86" y="50"/>
      <point x="74" y="100"/>
      <point x="90" y="180" type="curve" smooth="yes"/>
      <point x="126" y="355" type="line" smooth="yes"/>
      <point x="140" y="425"/>
      <point x="172" y="472"/>
      <point x="233" y="472" type="curve" smooth="yes"/>
      <point x="302" y="472"/>
      <point x="319" y="426"/>
      <point x="301" y="344" type="curve" smooth="yes"/>
      <point x="289" y="289" type="line"/>
      <point x="302" y="299" type="line"/>
      <point x="100" y="299" type="line"/>
      <point x="90" y="245" type="line"/>
      <point x="348" y="245" type="line"/>
      <point x="365" y="327" type="line" smooth="yes"/>
      <point x="390" y="449"/>
      <point x="353" y="530"/>
      <point x="239" y="530" type="curve" smooth="yes"/>
      <point x="151" y="530"/>
      <point x="84" y="475"/>
      <point x="58" y="353" type="curve" smooth="yes"/>
      <point x="24" y="193" type="line" smooth="yes"/>
      <point x="-1" y="76"/>
      <point x="36" y="-7"/>
    </contour>
  </outline>
</glyph>
<glyph name="f" format="2">
  <advance width="260"/>
  <unicode hex="0066"/>
  <note>
f
</note>
  <anchor x="87" y="0" name="bottom"/>
  <anchor x="257" y="800" name="top"/>
  <outline>
    <contour>
      <point x="35" y="0" type="line"/>
      <point x="103" y="0" type="line"/>
      <point x="201" y="466" type="line"/>
      <point x="280" y="466" type="line"/>
      <point x="292" y="523" type="line"/>
      <point x="213" y="523" type="line"/>
      <point x="245" y="673" type="line"/>
      <point x="324" y="673" type="line"/>
      <point x="335" y="729" type="line"/>
      <point x="258" y="729" type="line" smooth="yes"/>
      <point x="211" y="729"/>
      <point x="184" y="705"/>
      <point x="175" y="664" type="curve" smooth="yes"/>
      <point x="145" y="523" type="line"/>
      <point x="79" y="523" type="line"/>
      <point x="67" y="466" type="line"/>
      <point x="133" y="466" type="line"/>
    </contour>
  </outline>
</glyph>
<glyph name="g" format="2">
  <advance width="404"/>
  <unicode hex="0067"/>
  <note>
g
</note>
  <anchor x="115" y="-200" name="bottom"/>
  <anchor x="251" y="523" name="top"/>
  <outline>
    <contour>
      <point x="117" y="-172" type="curve" smooth="yes"/>
      <point x="208" y="-172"/>
      <point x="271" y="-130"/>
      <point x="295" y="-17" type="curve" smooth="yes"/>
      <point x="410" y="523" type="line"/>
      <point x="348" y="523" type="line"/>
      <point x="323" y="434" type="line"/>
      <point x="318" y="434" type="line"/>
      <point x="309" y="493"/>
      <point x="274" y="530"/>
      <point x="213" y="530" type="curve" smooth="yes"/>
      <point x="139" y="530"/>
      <point x="84" y="477"/>
      <point x="58" y="355" type="curve" smooth="yes"/>
      <point x="32" y="231" type="line" smooth="yes"/>
      <point x="9" y="122"/>
      <point x="29" y="39"/>
      <point x="127" y="39" type="curve" smooth="yes"/>
      <point x="175" y="39"/>
      <point x="222" y="65"/>
      <point x="253" y="122" type="curve"/>
      <point x="256" y="122" type="line"/>
      <point x="228" y="-13" type="line" smooth="yes"/>
      <point x="214" y="-80"/>
      <point x="189" y="-116"/>
      <point x="121" y="-116" type="curve" smooth="yes"/>
      <point x="72" y="-116"/>
      <point x="42" y="-91"/>
      <point x="48" y="-31" type="curve"/>
      <point x="-17" y="-31" type="line"/>
      <point x="-23" y="-115"/>
      <point x="27" y="-172"/>
    </contour>
    <contour>
      <point x="156" y="96" type="curve" smooth="yes"/>
      <point x="92" y="96"/>
      <point x="83" y="150"/>
      <point x="101" y="236" type="curve" smooth="yes"/>
      <point x="125" y="345" type="line" smooth="yes"/>
      <point x="142" y="423"/>
      <point x="171" y="470"/>
      <point x="226" y="470" type="curve" smooth="yes"/>
      <point x="270" y="470"/>
      <point x="298" y="446"/>
      <point x="308" y="368" type="curve"/>
      <point x="271" y="191" type="line"/>
      <point x="238" y="132"/>
      <point x="204" y="96"/>
    </contour>
  </outline>
</glyph>
<glyph name="h" format="2">
  <advance width="415"/>
  <unicode hex="0068"/>
  <note>
h
</note>
  <anchor x="162" y="0" name="bottom"/>
  <anchor x="172" y="611" name="center"/>
  <anchor x="182" y="729" name="top"/>
  <outline>
    <contour>
      <point x="-5" y="0" type="line"/>
      <point x="63" y="0" type="line"/>
      <point x="143" y="378" type="line"/>
      <point x="173" y="435"/>
      <point x="210" y="472"/>
      <point x="260" y="472" type="curve" smooth="yes"/>
      <point x="320" y="472"/>
      <point x="334" y="422"/>
      <point x="320" y="356" type="curve" smooth="yes"/>
      <point x="244" y="0" type="line"/>
      <point x="313" y="0" type="line"/>
      <point x="388" y="354" type="line" smooth="yes"/>
      <point x="411" y="463"/>
      <point x="379" y="530"/>
      <point x="292" y="530" type="curve" smooth="yes"/>
      <point x="243" y="530"/>
      <point x="196" y="505"/>
      <point x="165" y="453" type="curve"/>
      <point x="159" y="453" type="line"/>
      <point x="216" y="729" type="line"/>
      <point x="148" y="729" type="line"/>
    </contour>
  </outline>
</glyph>
<glyph name="k" format="2">
  <advance width="395"/>
  <unicode hex="006B"/>
  <note>
k
</note>
  <anchor x="153" y="0" name="bottom"/>
  <anchor x="323" y="800" name="top"/>
  <outline>
    <contour>
      <point x="-5" y="0" type="line"/>
      <point x="63" y="0" type="line"/>
      <point x="217" y="729" type="line"/>
      <point x="148" y="729" type="line"/>
    </contour>
    <contour>
      <point x="245" y="0" type="line"/>
      <point x="317" y="0" type="line"/>
      <point x="233" y="324" type="line"/>
      <point x="176" y="267" type="line"/>
    </contour>
    <contour>
      <point x="85" y="142" type="line"/>
      <point x="199" y="274" type="line"/>
      <point x="208" y="274" type="line"/>
      <point x="413" y="523" type="line"/>
      <point x="336" y="523" type="line"/>
      <point x="106" y="238" type="line"/>
    </contour>
  </outline>
</glyph>
<glyph name="l" format="2">
  <advance width="168"/>
  <unicode hex="006C"/>
  <note>
l
</note>
  <anchor x="29" y="0" name="bottom"/>
  <anchor x="107" y="365" name="center"/>
  <anchor x="182" y="729" name="top"/>
  <anchor x="216" y="729" name="topright"/>
  <outline>
    <contour>
      <point x="-5" y="0" type="line"/>
      <point x="63" y="0" type="line"/>
      <point x="216" y="729" type="line"/>
      <point x="148" y="729" type="line"/>
    </contour>
  </outline>
</glyph>
<glyph name="m" format="2">
  <advance width="661"/>
  <unicode hex="006D"/>
  <note>
m
</note>
  <anchor x="284" y="0" name="bottom"/>
  <anchor x="396" y="523" name="top"/>
  <outline>
    <contour>
      <point x="-6" y="0" type="line"/>
      <point x="63" y="0" type="line"/>
      <point x="143" y="377" type="line"/>
      <point x="173" y="439"/>
      <point x="212" y="473"/>
      <point x="256" y="473" type="curve" smooth="yes"/>
      <point x="321" y="473"/>
      <point x="331" y="419"/>
      <point x="316" y="349" type="curve" smooth="yes"/>
      <point x="242" y="0" type="line"/>
      <point x="311" y="0" type="line"/>
      <point x="386" y="354" type="line" smooth="yes"/>
      <point x="387" y="358"/>
      <point x="389" y="367"/>
      <point x="390" y="373" type="curve"/>
      <point x="421" y="438"/>
      <point x="459" y="473"/>
      <point x="504" y="473" type="curve" smooth="yes"/>
      <point x="565" y="473"/>
      <point x="580" y="426"/>
      <point x="564" y="349" type="curve" smooth="yes"/>
      <point x="490" y="0" type="line"/>
      <point x="559" y="0" type="line"/>
      <point x="633" y="354" type="line" smooth="yes"/>
      <point x="656" y="466"/>
      <point x="623" y="530"/>
      <point x="537" y="530" type="curve" smooth="yes"/>
      <point x="483" y="530"/>
      <point x="433" y="499"/>
      <point x="399" y="440" type="curve"/>
      <point x="392" y="440" type="line"/>
      <point x="384" y="499"/>
      <point x="350" y="530"/>
      <point x="289" y="530" type="curve" smooth="yes"/>
      <point x="241" y="530"/>
      <point x="197" y="504"/>
      <point x="167" y="457" type="curve"/>
      <point x="159" y="457" type="line"/>
      <point x="166" y="523" type="line"/>
      <point x="105" y="523" type="line"/>
    </contour>
  </outline>
</glyph>
<glyph name="n" format="2">
  <advance width="415"/>
  <unicode hex="006E"/>
  <note>
n
</note>
  <anchor x="162" y="0" name="bottom"/>
  <anchor x="274" y="523" name="top"/>
  <outline>
    <contour>
      <point x="-5" y="0" type="line"/>
      <point x="63" y="0" type="line"/>
      <point x="143" y="378" type="line"/>
      <point x="173" y="435"/>
      <point x="210" y="472"/>
      <point x="260" y="472" type="curve" smooth="yes"/>
      <point x="320" y="472"/>
      <point x="334" y="422"/>
      <point x="320" y="356" type="curve" smooth="yes"/>
      <point x="244" y="0" type="line"/>
      <point x="313" y="0" type="line"/>
      <point x="388" y="354" type="line" smooth="yes"/>
      <point x="411" y="463"/>
      <point x="379" y="530"/>
      <point x="292" y="530" type="curve" smooth="yes"/>
      <point x="243" y="530"/>
      <point x="196" y="505"/>
      <point x="165" y="453" type="curve"/>
      <point x="158" y="453" type="line"/>
      <point x="167" y="523" type="line"/>
      <point x="105" y="523" type="line"/>
    </contour>
  </outline>
</glyph>
<glyph name="o" format="2">
  <advance width="394"/>
  <unicode hex="006F"/>
  <note>
o
</note>
  <anchor x="230" y="0" name="#exit"/>
  <anchor x="151" y="0" name="bottom"/>
  <anchor x="196" y="262" name="center"/>
  <anchor x="320" y="10" name="ogonek"/>
  <anchor x="248" y="523" name="top"/>
  <anchor x="319" y="504" name="topright"/>
  <outline>
    <contour>
      <point x="156" y="-7" type="curve" smooth="yes"/>
      <point x="244" y="-7"/>
      <point x="307" y="45"/>
      <point x="332" y="161" type="curve" smooth="yes"/>
      <point x="369" y="330" type="line" smooth="yes"/>
      <point x="395" y="450"/>
      <point x="351" y="530"/>
      <point x="237" y="530" type="curve" smooth="yes"/>
      <point x="149" y="530"/>
      <point x="87" y="479"/>
      <point x="61" y="362" type="curve" smooth="yes"/>
      <point x="24" y="193" type="line" smooth="yes"/>
      <point x="-2" y="73"/>
      <point x="42" y="-7"/>
    </contour>
    <contour>
      <point x="160" y="52" type="curve" smooth="yes"/>
      <point x="93" y="52"/>
      <point x="72" y="97"/>
      <point x="89" y="176" type="curve" smooth="yes"/>
      <point x="129" y="364" type="line" smooth="yes"/>
      <point x="142" y="425"/>
      <point x="172" y="471"/>
      <point x="232" y="471" type="curve" smooth="yes"/>
      <point x="299" y="471"/>
      <point x="319" y="426"/>
      <point x="303" y="347" type="curve" smooth="yes"/>
      <point x="264" y="160" type="line" smooth="yes"/>
      <point x="251" y="98"/>
      <point x="220" y="52"/>
    </contour>
  </outline>
</glyph>
<glyph name="q" format="2">
  <advance width="397"/>
  <unicode hex="0071"/>
  <note>
q
</note>
  <anchor x="153" y="0" name="bottom"/>
  <anchor x="265" y="523" name="top"/>
  <outline>
    <contour>
      <point x="189" y="-167" type="line"/>
      <point x="257" y="-167" type="line"/>
      <point x="403" y="523" type="line"/>
      <point x="343" y="523" type="line"/>
      <point x="319" y="441" type="line"/>
      <point x="314" y="441" type="line"/>
      <point x="304" y="494"/>
      <point x="270" y="530"/>
      <point x="212" y="530" type="curve" smooth="yes"/>
      <point x="141" y="530"/>
      <point x="90" y="482"/>
      <point x="65" y="366" type="curve" smooth="yes"/>
      <point x="23" y="177" type="line" smooth="yes"/>
      <point x="0" y="66"/>
      <point x="29" y="-7"/>
      <point x="116" y="-7" type="curve" smooth="yes"/>
      <point x="166" y="-7"/>
      <point x="207" y="21"/>
      <point x="233" y="70" type="curve"/>
      <point x="239" y="70" type="line"/>
    </contour>
    <contour>
      <point x="147" y="52" type="curve" smooth="yes"/>
      <point x="97" y="52"/>
      <point x="73" y="92"/>
      <point x="91" y="175" type="curve" smooth="yes"/>
      <point x="132" y="360" type="line" smooth="yes"/>
      <point x="147" y="433"/>
      <point x="177" y="470"/>
      <point x="225" y="470" type="curve" smooth="yes"/>
      <point x="271" y="470"/>
      <point x="296" y="436"/>
      <point x="303" y="373" type="curve"/>
      <point x="255" y="146" type="line"/>
      <point x="225" y="86"/>
      <point x="192" y="52"/>
    </contour>
  </outline>
</glyph>
<glyph name="r" format="2">
  <advance width="260"/>
  <unicode hex="0072"/>
  <note>
r
</note>
  <anchor x="26" y="0" name="bottom"/>
  <anchor x="182" y="523" name="top"/>
  <outline>
    <contour>
      <point x="-6" y="0" type="line"/>
      <point x="62" y="0" type="line"/>
      <point x="141" y="372" type="line"/>
      <point x="175" y="428"/>
      <point x="208" y="456"/>
      <point x="252" y="456" type="curve" smooth="yes"/>
      <point x="278" y="456" type="line"/>
      <point x="294" y="530" type="line"/>
      <point x="275" y="530" type="line" smooth="yes"/>
      <point x="236" y="530"/>
      <point x="197" y="508"/>
      <point x="163" y="444" type="curve"/>
      <point x="157" y="444" type="line"/>
      <point x="169" y="523" type="line"/>
      <point x="105" y="523" type="line"/>
    </contour>
  </outline>
</glyph>
<glyph name="s" format="2">
  <advance width="348"/>
  <unicode hex="0073"/>
  <note>
s
</note>
  <anchor x="124" y="0" name="bottom"/>
  <anchor x="236" y="523" name="top"/>
  <outline>
    <contour>
      <point x="137" y="-7" type="curve" smooth="yes"/>
      <point x="229" y="-7"/>
      <point x="290" y="52"/>
      <point x="290" y="143" type="curve" smooth="yes"/>
      <point x="290" y="202"/>
      <point x="261" y="242"/>
      <point x="207" y="287" type="curve" smooth="yes"/>
      <point x="187" y="304" type="line" smooth="yes"/>
      <point x="156" y="330"/>
      <point x="135" y="357"/>
      <point x="135" y="396" type="curve" smooth="yes"/>
      <point x="135" y="442"/>
      <point x="161" y="477"/>
      <point x="210" y="477" type="curve" smooth="yes"/>
      <point x="264" y="477"/>
      <point x="283" y="437"/>
      <point x="275" y="379" type="curve"/>
      <point x="337" y="379" type="line"/>
      <point x="343" y="472"/>
      <point x="301" y="529"/>
      <point x="209" y="529" type="curve" smooth="yes"/>
      <point x="126" y="529"/>
      <point x="68" y="475"/>
      <point x="68" y="385" type="curve" smooth="yes"/>
      <point x="68" y="334"/>
      <point x="89" y="293"/>
      <point x="145" y="248" type="curve" smooth="yes"/>
      <point x="166" y="229" type="line" smooth="yes"/>
      <point x="200" y="200"/>
      <point x="222" y="173"/>
      <point x="222" y="133" type="curve" smooth="yes"/>
      <point x="222" y="82"/>
      <point x="193" y="45"/>
      <point x="139" y="45" type="curve" smooth="yes"/>
      <point x="78" y="45"/>
      <point x="59" y="91"/>
      <point x="70" y="157" type="curve"/>
      <point x="7" y="157" type="line"/>
      <point x="-7" y="58"/>
      <point x="42" y="-7"/>
    </contour>
  </outline>
</glyph>
<glyph name="t" format="2">
  <advance width="271"/>
  <unicode hex="0074"/>
  <note>
t
</note>
  <anchor x="120" y="0" name="bottom"/>
  <anchor x="136" y="274" name="center"/>
  <anchor x="199" y="523" name="top"/>
  <anchor x="217" y="678" name="topright"/>
  <outline>
    <contour>
      <point x="95" y="0" type="curve" smooth="yes"/>
      <point x="187" y="0" type="line"/>
      <point x="199" y="57" type="line"/>
      <point x="120" y="57" type="line"/>
      <point x="251" y="674" type="line"/>
      <point x="183" y="674" type="line"/>
      <point x="51" y="53" type="line" smooth="yes"/>
      <point x="43" y="17"/>
      <point x="58" y="0"/>
    </contour>
    <contour>
      <point x="68" y="466" type="line"/>
      <point x="286" y="466" type="line"/>
      <point x="297" y="523" type="line"/>
      <point x="79" y="523" type="line"/>
    </contour>
  </outline>
</glyph>
<glyph name="v" format="2">
  <advance width="370"/>
  <unicode hex="0076"/>
  <note>
v
</note>
  <anchor x="141" y="0" name="bottom"/>
  <anchor x="253" y="523" name="top"/>
  <outline>
    <contour>
      <point x="87" y="0" type="line"/>
      <point x="177" y="0" type="line"/>
      <point x="402" y="523" type="line"/>
      <point x="332" y="523" type="line"/>
      <point x="160" y="101" type="line"/>
      <point x="147" y="70" type="line"/>
      <point x="143" y="70" type="line"/>
      <point x="143" y="100" type="line"/>
      <point x="148" y="523" type="line"/>
      <point x="80" y="523" type="line"/>
    </contour>
  </outline>
</glyph>
<glyph name="w" format="2">
  <advance width="536"/>
  <unicode hex="0077"/>
  <note>
w
</note>
  <anchor x="225" y="0" name="bottom"/>
  <anchor x="325" y="523" name="top"/>
  <outline>
    <contour>
      <point x="56" y="0" type="line"/>
      <point x="147" y="0" type="line"/>
      <point x="285" y="382" type="line"/>
      <point x="306" y="446" type="line"/>
      <point x="311" y="446" type="line"/>
      <point x="305" y="382" type="line"/>
      <point x="282" y="0" type="line"/>
      <point x="372" y="0" type="line"/>
      <point x="567" y="523" type="line"/>
      <point x="500" y="523" type="line"/>
      <point x="354" y="113" type="line"/>
      <point x="341" y="71" type="line"/>
      <point x="337" y="71" type="line"/>
      <point x="340" y="113" type="line"/>
      <point x="362" y="523" type="line"/>
      <point x="288" y="523" type="line"/>
      <point x="139" y="112" type="line"/>
      <point x="125" y="69" type="line"/>
      <point x="121" y="69" type="line"/>
      <point x="124" y="112" type="line"/>
      <point x="149" y="523" type="line"/>
      <point x="81" y="523" type="line"/>
    </contour>
  </outline>
</glyph>
<glyph name="x" format="2">
  <advance width="376"/>
  <unicode hex="0078"/>
  <note>
x
</note>
  <anchor x="142" y="0" name="bottom"/>
  <anchor x="254" y="523" name="top"/>
  <outline>
    <contour>
      <point x="-34" y="0" type="line"/>
      <point x="36" y="0" type="line"/>
      <point x="178" y="221" type="line"/>
      <point x="180" y="221" type="line"/>
      <point x="230" y="0" type="line"/>
      <point x="297" y="0" type="line"/>
      <point x="233" y="277" type="line"/>
      <point x="400" y="523" type="line"/>
      <point x="328" y="523" type="line"/>
      <point x="201" y="324" type="line"/>
      <point x="198" y="324" type="line"/>
      <point x="153" y="523" type="line"/>
      <point x="85" y="523" type="line"/>
      <point x="148" y="278" type="line"/>
    </contour>
  </outline>
</glyph>
<glyph name="y" format="2">
  <advance width="371"/>
  <unicode hex="0079"/>
  <note>
y
</note>
  <anchor x="267" y="0" name="bottom"/>
  <anchor x="226" y="523" name="top"/>
  <outline>
    <contour>
      <point x="-42" y="-167" type="line"/>
      <point x="70" y="-167" type="line" smooth="yes"/>
      <point x="107" y="-167"/>
      <point x="135" y="-148"/>
      <point x="144" y="-102" type="curve" smooth="yes"/>
      <point x="173" y="40" type="line"/>
      <point x="404" y="523" type="line"/>
      <point x="334" y="523" type="line"/>
      <point x="177" y="171" type="line"/>
      <point x="158" y="120" type="line"/>
      <point x="154" y="120" type="line"/>
      <point x="155" y="171" type="line"/>
      <point x="147" y="523" type="line"/>
      <point x="79" y="523" type="line"/>
      <point x="104" y="37" type="line"/>
      <point x="74" y="-109" type="line"/>
      <point x="-30" y="-109" type="line"/>
    </contour>
  </outline>
</glyph>
<glyph name="z" format="2">
  <advance width="325"/>
  <unicode hex="007A"/>
  <note>
z
</note>
  <anchor x="116" y="0" name="bottom"/>
  <anchor x="172" y="262" name="center"/>
  <anchor x="228" y="523" name="top"/>
  <outline>
    <contour>
      <point x="-29" y="0" type="line"/>
      <point x="242" y="0" type="line"/>
      <point x="255" y="57" type="line"/>
      <point x="61" y="57" type="line"/>
      <point x="336" y="471" type="line"/>
      <point x="348" y="523" type="line"/>
      <point x="90" y="523" type="line"/>
      <point x="78" y="466" type="line"/>
      <point x="258" y="466" type="line"/>
      <point x="-17" y="52" type="line"/>
    </contour>
  </outline>
</glyph>
<glyph name="braceleft" format="2">
  <advance width="319"/>
  <unicode hex="007B"/>
  <outline>
    <contour>
      <point x="97" y="-167" type="curve" smooth="yes"/>
      <point x="197" y="-167" type="line"/>
      <point x="209" y="-111" type="line"/>
      <point x="112" y="-111" type="line"/>
      <point x="178" y="202" type="line" smooth="yes"/>
      <point x="191" y="261"/>
      <point x="171" y="304"/>
      <point x="127" y="313" type="curve"/>
      <point x="128" y="317" type="line"/>
      <point x="174" y="322"/>
      <point x="213" y="367"/>
      <point x="226" y="428" type="curve" smooth="yes"/>
      <point x="292" y="737" type="line"/>
      <point x="389" y="737" type="line"/>
      <point x="401" y="793" type="line"/>
      <point x="301" y="793" type="line" smooth="yes"/>
      <point x="256" y="793"/>
      <point x="230" y="766"/>
      <point x="222" y="727" type="curve" smooth="yes"/>
      <point x="158" y="427" type="line" smooth="yes"/>
      <point x="147" y="373"/>
      <point x="110" y="343"/>
      <point x="77" y="343" type="curve" smooth="yes"/>
      <point x="59" y="343" type="line"/>
      <point x="47" y="284" type="line"/>
      <point x="65" y="284" type="line" smooth="yes"/>
      <point x="98" y="284"/>
      <point x="122" y="255"/>
      <point x="110" y="201" type="curve" smooth="yes"/>
      <point x="46" y="-101" type="line" smooth="yes"/>
      <point x="38" y="-140"/>
      <point x="52" y="-167"/>
    </contour>
  </outline>
</glyph>
<glyph name="bar" format="2">
  <advance width="270"/>
  <unicode hex="007C"/>
  <outline>
    <contour>
      <point x="31" y="-67" type="line"/>
      <point x="98" y="-67" type="line"/>
      <point x="268" y="729" type="line"/>
      <point x="201" y="729" type="line"/>
    </contour>
  </outline>
</glyph>
<glyph name="asciitilde" format="2">
  <advance width="450"/>
  <unicode hex="007E"/>
  <outline>
    <contour>
      <point x="73" y="303" type="curve"/>
      <point x="113" y="303" type="line"/>
      <point x="118" y="341"/>
      <point x="133" y="367"/>
      <point x="165" y="367" type="curve" smooth="yes"/>
      <point x="208" y="367"/>
      <point x="254" y="302"/>
      <point x="316" y="302" type="curve" smooth="yes"/>
      <point x="364" y="302"/>
      <point x="412" y="336"/>
      <point x="421" y="428" type="curve"/>
      <point x="382" y="428" type="line"/>
      <point x="376" y="391"/>
      <point x="361" y="364"/>
      <point x="325" y="364" type="curve" smooth="yes"/>
      <point x="281" y="364"/>
      <point x="235" y="428"/>
      <point x="177" y="428" type="curve" smooth="yes"/>
      <point x="130" y="428"/>
      <point x="82" y="395"/>
    </contour>
  </outline>
</glyph>
<glyph name="cent" format="2">
  <advance width="406"/>
  <unicode hex="00A2"/>
  <anchor x="177" y="103" name="bottom"/>
  <anchor x="289" y="626" name="top"/>
  <outline>
    <contour>
      <point x="259" y="612" type="line"/>
      <point x="309" y="612" type="line"/>
      <point x="343" y="729" type="line"/>
      <point x="273" y="729" type="line"/>
    </contour>
    <contour>
      <point x="119" y="0" type="line"/>
      <point x="189" y="0" type="line"/>
      <point x="203" y="117" type="line"/>
      <point x="153" y="117" type="line"/>
    </contour>
    <contour>
      <point x="186" y="96" type="curve" smooth="yes"/>
      <point x="275" y="96"/>
      <point x="340" y="149"/>
      <point x="366" y="276" type="curve"/>
      <point x="300" y="276" type="line"/>
      <point x="284" y="205"/>
      <point x="256" y="155"/>
      <point x="192" y="155" type="curve" smooth="yes"/>
      <point x="126" y="155"/>
      <point x="104" y="200"/>
      <point x="121" y="279" type="curve" smooth="yes"/>
      <point x="161" y="467" type="line" smooth="yes"/>
      <point x="174" y="528"/>
      <point x="203" y="574"/>
      <point x="265" y="574" type="curve" smooth="yes"/>
      <point x="336" y="574"/>
      <point x="352" y="520"/>
      <point x="334" y="439" type="curve"/>
      <point x="399" y="439" type="line"/>
      <point x="419" y="555"/>
      <point x="382" y="633"/>
      <point x="269" y="633" type="curve" smooth="yes"/>
      <point x="182" y="633"/>
      <point x="118" y="581"/>
      <point x="93" y="465" type="curve" smooth="yes"/>
      <point x="56" y="296" type="line" smooth="yes"/>
      <point x="31" y="179"/>
      <point x="72" y="96"/>
    </contour>
  </outline>
</glyph>
<glyph name="sterling" format="2">
  <advance width="501"/>
  <unicode hex="00A3"/>
  <outline>
    <contour>
      <point x="-14" y="0" type="line"/>
      <point x="398" y="0" type="line"/>
      <point x="438" y="187" type="line"/>
      <point x="376" y="187" type="line"/>
      <point x="349" y="61" type="line"/>
      <point x="135" y="61" type="line"/>
      <point x="193" y="335" type="line"/>
      <point x="357" y="335" type="line"/>
      <point x="369" y="390" type="line"/>
      <point x="204" y="390" type="line"/>
      <point x="235" y="536" type="line" smooth="yes"/>
      <point x="255" y="630"/>
      <point x="291" y="676"/>
      <point x="357" y="676" type="curve" smooth="yes"/>
      <point x="454" y="676"/>
      <point x="449" y="595"/>
      <point x="434" y="513" type="curve" smooth="yes"/>
      <point x="430" y="491" type="line"/>
      <point x="499" y="491" type="line"/>
      <point x="503" y="513" type="line" smooth="yes"/>
      <point x="527" y="646"/>
      <point x="497" y="736"/>
      <point x="362" y="736" type="curve" smooth="yes"/>
      <point x="265" y="736"/>
      <point x="195" y="679"/>
      <point x="165" y="537" type="curve" smooth="yes"/>
      <point x="134" y="390" type="line"/>
      <point x="66" y="378" type="line"/>
      <point x="56" y="335" type="line"/>
      <point x="122" y="335" type="line"/>
      <point x="64" y="61" type="line"/>
      <point x="-1" y="61" type="line"/>
    </contour>
  </outline>
</glyph>
<glyph name="currency" format="2">
  <advance width="631"/>
  <unicode hex="00A4"/>
  <outline>
    <contour>
      <point x="124" y="137" type="line"/>
      <point x="224" y="228" type="line"/>
      <point x="247" y="211"/>
      <point x="275" y="201"/>
      <point x="308" y="201" type="curve" smooth="yes"/>
      <point x="343" y="201"/>
      <point x="373" y="211"/>
      <point x="400" y="229" type="curve"/>
      <point x="470" y="137" type="line"/>
      <point x="516" y="177" type="line"/>
      <point x="448" y="267" type="line"/>
      <point x="468" y="289"/>
      <point x="487" y="321"/>
      <point x="493" y="360" type="curve" smooth="yes"/>
      <point x="500" y="396"/>
      <point x="496" y="428"/>
      <point x="482" y="456" type="curve"/>
      <point x="580" y="544" type="line"/>
      <point x="548" y="585" type="line"/>
      <point x="446" y="494" type="line"/>
      <point x="425" y="511"/>
      <point x="395" y="520"/>
      <point x="364" y="520" type="curve" smooth="yes"/>
      <point x="332" y="520"/>
      <point x="299" y="510"/>
      <point x="272" y="494" type="curve"/>
      <point x="203" y="585" type="line"/>
      <point x="156" y="544" type="line"/>
      <point x="224" y="456" type="line"/>
      <point x="200" y="430"/>
      <point x="184" y="395"/>
      <point x="178" y="360" type="curve" smooth="yes"/>
      <point x="172" y="328"/>
      <point x="175" y="294"/>
      <point x="189" y="267" type="curve"/>
      <point x="91" y="177" type="line"/>
    </contour>
    <contour>
      <point x="318" y="257" type="curve" smooth="yes"/>
      <point x="261" y="257"/>
      <point x="225" y="300"/>
      <point x="236" y="360" type="curve" smooth="yes"/>
      <point x="246" y="420"/>
      <point x="297" y="464"/>
      <point x="354" y="464" type="curve" smooth="yes"/>
      <point x="410" y="464"/>
      <point x="445" y="421"/>
      <point x="435" y="360" type="curve" smooth="yes"/>
      <point x="424" y="300"/>
      <point x="374" y="257"/>
    </contour>
  </outline>
</glyph>
<glyph name="brokenbar" format="2">
  <advance width="270"/>
  <unicode hex="00A6"/>
  <outline>
    <contour>
      <point x="132" y="407" type="line"/>
      <point x="199" y="407" type="line"/>
      <point x="268" y="729" type="line"/>
      <point x="201" y="729" type="line"/>
    </contour>
    <contour>
      <point x="31" y="-67" type="line"/>
      <point x="98" y="-67" type="line"/>
      <point x="167" y="255" type="line"/>
      <point x="100" y="255" type="line"/>
    </contour>
  </outline>
</glyph>
<glyph name="section" format="2">
  <advance width="367"/>
  <unicode hex="00A7"/>
  <outline>
    <contour>
      <point x="141" y="-10" type="curve" smooth="yes"/>
      <point x="225" y="-10"/>
      <point x="289" y="48"/>
      <point x="289" y="156" type="curve" smooth="yes"/>
      <point x="289" y="188"/>
      <point x="283" y="210"/>
      <point x="269" y="230" type="curve"/>
      <point x="311" y="261"/>
      <point x="338" y="303"/>
      <point x="338" y="368" type="curve" smooth="yes"/>
      <point x="338" y="432"/>
      <point x="308" y="461"/>
      <point x="260" y="503" type="curve" smooth="yes"/>
      <point x="228" y="529"/>
      <point x="200" y="556"/>
      <point x="200" y="598" type="curve" smooth="yes"/>
      <point x="200" y="654"/>
      <point x="226" y="689"/>
      <point x="268" y="689" type="curve" smooth="yes"/>
      <point x="329" y="689"/>
      <point x="325" y="625"/>
      <point x="317" y="577" type="curve"/>
      <point x="379" y="577" type="line"/>
      <point x="391" y="641"/>
      <point x="383" y="741"/>
      <point x="266" y="741" type="curve" smooth="yes"/>
      <point x="188" y="741"/>
      <point x="134" y="681"/>
      <point x="134" y="595" type="curve" smooth="yes"/>
      <point x="134" y="563"/>
      <point x="143" y="534"/>
      <point x="164" y="509" type="curve"/>
      <point x="114" y="483"/>
      <point x="82" y="437"/>
      <point x="82" y="380" type="curve" smooth="yes"/>
      <point x="82" y="328"/>
      <point x="108" y="287"/>
      <point x="155" y="248" type="curve" smooth="yes"/>
      <point x="199" y="211"/>
      <point x="218" y="187"/>
      <point x="218" y="145" type="curve" smooth="yes"/>
      <point x="218" y="80"/>
      <point x="191" y="42"/>
      <point x="143" y="42" type="curve" smooth="yes"/>
      <point x="77" y="42"/>
      <point x="76" y="105"/>
      <point x="86" y="163" type="curve"/>
      <point x="22" y="163" type="line"/>
      <point x="10" y="97"/>
      <point x="19" y="-10"/>
    </contour>
    <contour>
      <point x="230" y="266" type="curve"/>
      <point x="223" y="274"/>
      <point x="211" y="285"/>
      <point x="200" y="295" type="curve" smooth="yes"/>
      <point x="172" y="320"/>
      <point x="145" y="347"/>
      <point x="145" y="387" type="curve" smooth="yes"/>
      <point x="145" y="426"/>
      <point x="165" y="453"/>
      <point x="197" y="473" type="curve"/>
      <point x="202" y="467"/>
      <point x="210" y="460"/>
      <point x="217" y="454" type="curve" smooth="yes"/>
      <point x="256" y="422"/>
      <point x="273" y="398"/>
      <point x="273" y="362" type="curve" smooth="yes"/>
      <point x="273" y="319"/>
      <point x="258" y="291"/>
    </contour>
  </outline>
</glyph>
<glyph name="ordfeminine" format="2">
  <advance width="306"/>
  <unicode hex="00AA"/>
  <outline>
    <contour>
      <point x="173" y="385" type="curve" smooth="yes"/>
      <point x="210" y="385"/>
      <point x="239" y="407"/>
      <point x="245" y="444" type="curve"/>
      <point x="249" y="444" type="line"/>
      <point x="250" y="392" type="line"/>
      <point x="303" y="392" type="line"/>
      <point x="303" y="632" type="line" smooth="yes"/>
      <point x="303" y="712"/>
      <point x="264" y="740"/>
      <point x="204" y="740" type="curve" smooth="yes"/>
      <point x="143" y="740"/>
      <point x="102" y="706"/>
      <point x="103" y="635" type="curve"/>
      <point x="153" y="635" type="line"/>
      <point x="153" y="671"/>
      <point x="168" y="693"/>
      <point x="200" y="693" type="curve" smooth="yes"/>
      <point x="230" y="693"/>
      <point x="245" y="677"/>
      <point x="245" y="632" type="curve" smooth="yes"/>
      <point x="245" y="574" type="line"/>
      <point x="262" y="590" type="line"/>
      <point x="200" y="590" type="line" smooth="yes"/>
      <point x="122" y="591"/>
      <point x="96" y="539"/>
      <point x="96" y="492" type="curve" smooth="yes"/>
      <point x="96" y="475" type="line" smooth="yes"/>
      <point x="96" y="417"/>
      <point x="124" y="385"/>
    </contour>
    <contour>
      <point x="197" y="430" type="curve" smooth="yes"/>
      <point x="170" y="430"/>
      <point x="152" y="445"/>
      <point x="152" y="483" type="curve" smooth="yes"/>
      <point x="152" y="495" type="line" smooth="yes"/>
      <point x="152" y="531"/>
      <point x="169" y="555"/>
      <point x="211" y="555" type="curve" smooth="yes"/>
      <point x="245" y="555" type="line"/>
      <point x="245" y="500" type="line" smooth="yes"/>
      <point x="245" y="459"/>
      <point x="230" y="430"/>
    </contour>
  </outline>
</glyph>
<glyph name="logicalnot" format="2">
  <advance width="501"/>
  <unicode hex="00AC"/>
  <outline>
    <contour>
      <point x="365" y="144" type="line"/>
      <point x="427" y="144" type="line"/>
      <point x="479" y="390" type="line"/>
      <point x="4" y="390" type="line"/>
      <point x="-9" y="327" type="line"/>
      <point x="404" y="327" type="line"/>
    </contour>
  </outline>
</glyph>
<glyph name="registered" format="2">
  <advance width="447"/>
  <unicode hex="00AE"/>
  <outline>
    <contour>
      <point x="251" y="284" type="curve" smooth="yes"/>
      <point x="396" y="284"/>
      <point x="457" y="452"/>
      <point x="457" y="560" type="curve" smooth="yes"/>
      <point x="457" y="667"/>
      <point x="398" y="735"/>
      <point x="301" y="735" type="curve" smooth="yes"/>
      <point x="161" y="735"/>
      <point x="95" y="573"/>
      <point x="95" y="459" type="curve" smooth="yes"/>
      <point x="95" y="353"/>
      <point x="154" y="284"/>
    </contour>
    <contour>
      <point x="254" y="317" type="curve" smooth="yes"/>
      <point x="175" y="317"/>
      <point x="131" y="370"/>
      <point x="131" y="459" type="curve" smooth="yes"/>
      <point x="131" y="545"/>
      <point x="173" y="703"/>
      <point x="299" y="703" type="curve" smooth="yes"/>
      <point x="378" y="703"/>
      <point x="421" y="650"/>
      <point x="421" y="559" type="curve" smooth="yes"/>
      <point x="421" y="471"/>
      <point x="377" y="317"/>
    </contour>
    <contour>
      <point x="187" y="369" type="line"/>
      <point x="228" y="369" type="line"/>
      <point x="280" y="615" type="line"/>
      <point x="299" y="615" type="line" smooth="yes"/>
      <point x="323" y="615"/>
      <point x="328" y="597"/>
      <point x="323" y="573" type="curve" smooth="yes"/>
      <point x="319" y="553" type="line" smooth="yes"/>
      <point x="314" y="528"/>
      <point x="303" y="516"/>
      <point x="275" y="516" type="curve" smooth="yes"/>
      <point x="255" y="516" type="line"/>
      <point x="248" y="480" type="line"/>
      <point x="269" y="480" type="line"/>
      <point x="280" y="369" type="line"/>
      <point x="323" y="369" type="line"/>
      <point x="308" y="492" type="line"/>
      <point x="306" y="488" type="line"/>
      <point x="307" y="488" type="line"/>
      <point x="342" y="497"/>
      <point x="366" y="533"/>
      <point x="366" y="586" type="curve" smooth="yes"/>
      <point x="366" y="625"/>
      <point x="347" y="650"/>
      <point x="307" y="650" type="curve" smooth="yes"/>
      <point x="247" y="650" type="line"/>
    </contour>
  </outline>
</glyph>
<glyph name="degree" format="2">
  <advance width="437"/>
  <unicode hex="00B0"/>
  <outline>
    <contour>
      <point x="279" y="427" type="curve" smooth="yes"/>
      <point x="371" y="427"/>
      <point x="444" y="490"/>
      <point x="447" y="582" type="curve" smooth="yes"/>
      <point x="450" y="675"/>
      <point x="382" y="738"/>
      <point x="289" y="738" type="curve" smooth="yes"/>
      <point x="198" y="738"/>
      <point x="126" y="675"/>
      <point x="123" y="582" type="curve" smooth="yes"/>
      <point x="119" y="490"/>
      <point x="187" y="427"/>
    </contour>
    <contour>
      <point x="281" y="486" type="curve" smooth="yes"/>
      <point x="226" y="486"/>
      <point x="184" y="525"/>
      <point x="186" y="582" type="curve" smooth="yes"/>
      <point x="189" y="640"/>
      <point x="233" y="678"/>
      <point x="288" y="678" type="curve" smooth="yes"/>
      <point x="343" y="678"/>
      <point x="385" y="640"/>
      <point x="383" y="582" type="curve" smooth="yes"/>
      <point x="381" y="525"/>
      <point x="337" y="486"/>
    </contour>
  </outline>
</glyph>
<glyph name="plusminus" format="2">
  <advance width="501"/>
  <unicode hex="00B1"/>
  <outline>
    <contour>
      <point x="174" y="173" type="line"/>
      <point x="238" y="173" type="line"/>
      <point x="273" y="336" type="line"/>
      <point x="441" y="336" type="line"/>
      <point x="454" y="396" type="line"/>
      <point x="286" y="396" type="line"/>
      <point x="320" y="558" type="line"/>
      <point x="256" y="558" type="line"/>
      <point x="222" y="396" type="line"/>
      <point x="54" y="396" type="line"/>
      <point x="41" y="336" type="line"/>
      <point x="209" y="336" type="line"/>
    </contour>
    <contour>
      <point x="-30" y="0" type="line"/>
      <point x="370" y="0" type="line"/>
      <point x="382" y="59" type="line"/>
      <point x="-18" y="59" type="line"/>
    </contour>
  </outline>
</glyph>
<glyph name="paragraph" format="2">
  <advance width="597"/>
  <unicode hex="00B6"/>
  <outline>
    <contour>
      <point x="150" y="-151" type="line"/>
      <point x="219" y="-151" type="line"/>
      <point x="363" y="663" type="line"/>
      <point x="495" y="663" type="line"/>
      <point x="352" y="-151" type="line"/>
      <point x="421" y="-151" type="line"/>
      <point x="564" y="663" type="line"/>
      <point x="632" y="663" type="line"/>
      <point x="643" y="729" type="line"/>
      <point x="305" y="729" type="line" smooth="yes"/>
      <point x="189" y="729"/>
      <point x="103" y="672"/>
      <point x="83" y="559" type="curve" smooth="yes"/>
      <point x="65" y="455"/>
      <point x="117" y="386"/>
      <point x="246" y="388" type="curve"/>
    </contour>
  </outline>
</glyph>
<glyph name="ordmasculine" format="2">
  <advance width="295"/>
  <unicode hex="00BA"/>
  <outline>
    <contour>
      <point x="212" y="385" type="curve" smooth="yes"/>
      <point x="281" y="385"/>
      <point x="323" y="425"/>
      <point x="323" y="513" type="curve" smooth="yes"/>
      <point x="323" y="614" type="line" smooth="yes"/>
      <point x="323" y="698"/>
      <point x="283" y="740"/>
      <point x="212" y="740" type="curve" smooth="yes"/>
      <point x="142" y="740"/>
      <point x="100" y="700"/>
      <point x="100" y="614" type="curve" smooth="yes"/>
      <point x="100" y="513" type="line" smooth="yes"/>
      <point x="100" y="429"/>
      <point x="140" y="385"/>
    </contour>
    <contour>
      <point x="212" y="433" type="curve" smooth="yes"/>
      <point x="173" y="433"/>
      <point x="156" y="460"/>
      <point x="156" y="505" type="curve" smooth="yes"/>
      <point x="156" y="623" type="line" smooth="yes"/>
      <point x="156" y="666"/>
      <point x="173" y="693"/>
      <point x="212" y="693" type="curve" smooth="yes"/>
      <point x="251" y="693"/>
      <point x="267" y="666"/>
      <point x="267" y="623" type="curve" smooth="yes"/>
      <point x="267" y="505" type="line" smooth="yes"/>
      <point x="267" y="460"/>
      <point x="251" y="433"/>
    </contour>
  </outline>
</glyph>
<glyph name="multiply" format="2">
  <advance width="501"/>
  <unicode hex="00D7"/>
  <outline>
    <contour>
      <point x="52" y="161" type="line"/>
      <point x="482" y="515" type="line"/>
      <point x="444" y="561" type="line"/>
      <point x="15" y="208" type="line"/>
    </contour>
    <contour>
      <point x="362" y="164" type="line"/>
      <point x="413" y="205" type="line"/>
      <point x="134" y="558" type="line"/>
      <point x="84" y="516" type="line"/>
    </contour>
  </outline>
</glyph>
<glyph name="Thorn" format="2">
  <advance width="412"/>
  <unicode hex="00DE"/>
  <outline>
    <contour>
      <point x="30" y="0" type="line"/>
      <point x="99" y="0" type="line"/>
      <point x="228" y="729" type="line"/>
      <point x="159" y="729" type="line"/>
    </contour>
    <contour>
      <point x="114" y="160" type="line"/>
      <point x="191" y="160" type="line" smooth="yes"/>
      <point x="296" y="160"/>
      <point x="370" y="214"/>
      <point x="396" y="366" type="curve" smooth="yes"/>
      <point x="422" y="510"/>
      <point x="371" y="570"/>
      <point x="258" y="570" type="curve" smooth="yes"/>
      <point x="185" y="570" type="line"/>
      <point x="176" y="513" type="line"/>
      <point x="249" y="513" type="line" smooth="yes"/>
      <point x="324" y="513"/>
      <point x="347" y="470"/>
      <point x="334" y="394" type="curve" smooth="yes"/>
      <point x="324" y="336" type="line" smooth="yes"/>
      <point x="311" y="263"/>
      <point x="275" y="215"/>
      <point x="197" y="215" type="curve" smooth="yes"/>
      <point x="123" y="215" type="line"/>
    </contour>
  </outline>
</glyph>
<glyph name="germandbls" format="2">
  <advance width="457"/>
  <unicode hex="00DF"/>
  <outline>
    <contour>
      <point x="32" y="0" type="line"/>
      <point x="100" y="0" type="line"/>
      <point x="217" y="562" type="line" smooth="yes"/>
      <point x="234" y="644"/>
      <point x="268" y="675"/>
      <point x="316" y="675" type="curve" smooth="yes"/>
      <point x="385" y="675"/>
      <point x="407" y="617"/>
      <point x="387" y="532" type="curve" smooth="yes"/>
      <point x="371" y="464"/>
      <point x="329" y="416"/>
      <point x="266" y="416" type="curve" smooth="yes"/>
      <point x="240" y="416" type="line"/>
      <point x="231" y="362" type="line"/>
      <point x="250" y="362" type="line" smooth="yes"/>
      <point x="322" y="362"/>
      <point x="368" y="315"/>
      <point x="347" y="217" type="curve" smooth="yes"/>
      <point x="338" y="175" type="line" smooth="yes"/>
      <point x="323" y="105"/>
      <point x="281" y="56"/>
      <point x="193" y="56" type="curve" smooth="yes"/>
      <point x="149" y="56" type="line"/>
      <point x="136" y="0" type="line"/>
      <point x="199" y="0" type="line" smooth="yes"/>
      <point x="298" y="0"/>
      <point x="382" y="49"/>
      <point x="410" y="182" type="curve" smooth="yes"/>
      <point x="430" y="277"/>
      <point x="406" y="362"/>
      <point x="329" y="386" type="curve"/>
      <point x="330" y="390" type="line"/>
      <point x="394" y="407"/>
      <point x="440" y="467"/>
      <point x="454" y="548" type="curve" smooth="yes"/>
      <point x="475" y="669"/>
      <point x="410" y="736"/>
      <point x="318" y="736" type="curve" smooth="yes"/>
      <point x="239" y="736"/>
      <point x="175" y="687"/>
      <point x="153" y="581" type="curve" smooth="yes"/>
    </contour>
    <contour>
      <point x="66" y="465" type="line"/>
      <point x="166" y="465" type="line"/>
      <point x="178" y="523" type="line"/>
      <point x="79" y="523" type="line"/>
    </contour>
  </outline>
</glyph>
<glyph name="ae" format="2">
  <advance width="607"/>
  <unicode hex="00E6"/>
  <outline>
    <contour>
      <point x="102" y="-7" type="curve" smooth="yes"/>
      <point x="161" y="-7"/>
      <point x="209" y="24"/>
      <point x="240" y="83" type="curve"/>
      <point x="244" y="83" type="line"/>
      <point x="257" y="26"/>
      <point x="300" y="-7"/>
      <point x="371" y="-7" type="curve" smooth="yes"/>
      <point x="462" y="-7"/>
      <point x="526" y="50"/>
      <point x="548" y="158" type="curve"/>
      <point x="483" y="158" type="line"/>
      <point x="467" y="86"/>
      <point x="434" y="50"/>
      <point x="380" y="50" type="curve" smooth="yes"/>
      <point x="309" y="50"/>
      <point x="292" y="94"/>
      <point x="310" y="178" type="curve" smooth="yes"/>
      <point x="348" y="356" type="line" smooth="yes"/>
      <point x="363" y="426"/>
      <point x="392" y="473"/>
      <point x="453" y="473" type="curve" smooth="yes"/>
      <point x="522" y="473"/>
      <point x="538" y="427"/>
      <point x="521" y="345" type="curve" smooth="yes"/>
      <point x="511" y="296" type="line"/>
      <point x="521" y="309" type="line"/>
      <point x="324" y="309" type="line"/>
      <point x="314" y="255" type="line"/>
      <point x="570" y="255" type="line"/>
      <point x="585" y="327" type="line" smooth="yes"/>
      <point x="610" y="447"/>
      <point x="573" y="530"/>
      <point x="458" y="530" type="curve" smooth="yes"/>
      <point x="409" y="530"/>
      <point x="367" y="510"/>
      <point x="339" y="474" type="curve"/>
      <point x="323" y="512"/>
      <point x="288" y="530"/>
      <point x="243" y="530" type="curve" smooth="yes"/>
      <point x="166" y="530"/>
      <point x="89" y="490"/>
      <point x="67" y="374" type="curve"/>
      <point x="131" y="374" type="line"/>
      <point x="144" y="440"/>
      <point x="180" y="471"/>
      <point x="229" y="471" type="curve" smooth="yes"/>
      <point x="285" y="471"/>
      <point x="295" y="430"/>
      <point x="283" y="373" type="curve" smooth="yes"/>
      <point x="275" y="333" type="line" smooth="yes"/>
      <point x="263" y="278"/>
      <point x="252" y="224"/>
      <point x="240" y="169" type="curve" smooth="yes"/>
      <point x="224" y="93"/>
      <point x="183" y="49"/>
      <point x="132" y="49" type="curve" smooth="yes"/>
      <point x="96" y="49"/>
      <point x="71" y="70"/>
      <point x="74" y="120" type="curve" smooth="yes"/>
      <point x="79" y="203"/>
      <point x="127" y="255"/>
      <point x="217" y="255" type="curve" smooth="yes"/>
      <point x="268" y="255" type="line"/>
      <point x="278" y="309" type="line"/>
      <point x="219" y="309" type="line" smooth="yes"/>
      <point x="106" y="309"/>
      <point x="19" y="252"/>
      <point x="4" y="127" type="curve" smooth="yes"/>
      <point x="-6" y="44"/>
      <point x="35" y="-7"/>
    </contour>
  </outline>
</glyph>
<glyph name="eth" format="2">
  <advance width="403"/>
  <unicode hex="00F0"/>
  <outline>
    <contour>
      <point x="156" y="-6" type="curve" smooth="yes"/>
      <point x="242" y="-6"/>
      <point x="315" y="36"/>
      <point x="344" y="171" type="curve" smooth="yes"/>
      <point x="368" y="282" type="line" smooth="yes"/>
      <point x="398" y="420"/>
      <point x="375" y="578"/>
      <point x="283" y="729" type="curve"/>
      <point x="216" y="729" type="line"/>
      <point x="275" y="620"/>
      <point x="313" y="509"/>
      <point x="310" y="384" type="curve"/>
      <point x="304" y="385" type="line"/>
      <point x="287" y="435"/>
      <point x="246" y="458"/>
      <point x="199" y="458" type="curve" smooth="yes"/>
      <point x="126" y="458"/>
      <point x="70" y="412"/>
      <point x="44" y="297" type="curve" smooth="yes"/>
      <point x="21" y="194" type="line" smooth="yes"/>
      <point x="-6" y="74"/>
      <point x="52" y="-6"/>
    </contour>
    <contour>
      <point x="165" y="52" type="curve" smooth="yes"/>
      <point x="96" y="52"/>
      <point x="75" y="98"/>
      <point x="92" y="178" type="curve" smooth="yes"/>
      <point x="121" y="314" type="line" smooth="yes"/>
      <point x="132" y="366"/>
      <point x="165" y="400"/>
      <point x="212" y="400" type="curve" smooth="yes"/>
      <point x="262" y="400"/>
      <point x="296" y="371"/>
      <point x="301" y="317" type="curve"/>
      <point x="298" y="299"/>
      <point x="294" y="282"/>
      <point x="291" y="266" type="curve" smooth="yes"/>
      <point x="269" y="160" type="line" smooth="yes"/>
      <point x="256" y="98"/>
      <point x="225" y="52"/>
    </contour>
    <contour>
      <point x="151" y="568" type="line"/>
      <point x="427" y="626" type="line"/>
      <point x="438" y="678" type="line"/>
      <point x="162" y="621" type="line"/>
    </contour>
  </outline>
</glyph>
<glyph name="divide" format="2">
  <advance width="501"/>
  <unicode hex="00F7"/>
  <outline>
    <contour>
      <point x="30" y="335" type="line"/>
      <point x="452" y="335" type="line"/>
      <point x="464" y="395" type="line"/>
      <point x="42" y="395" type="line"/>
    </contour>
    <contour>
      <point x="223" y="467" type="line"/>
      <point x="315" y="467" type="line"/>
      <point x="335" y="562" type="line"/>
      <point x="243" y="562" type="line"/>
    </contour>
    <contour>
      <point x="159" y="168" type="line"/>
      <point x="251" y="168" type="line"/>
      <point x="271" y="263" type="line"/>
      <point x="179" y="263" type="line"/>
    </contour>
  </outline>
</glyph>
<glyph name="thorn" format="2">
  <advance width="399"/>
  <unicode hex="00FE"/>
  <outline>
    <contour>
      <point x="-41" y="-167" type="line"/>
      <point x="28" y="-167" type="line"/>
      <point x="81" y="83" type="line"/>
      <point x="84" y="83" type="line"/>
      <point x="94" y="29"/>
      <point x="129" y="-7"/>
      <point x="187" y="-7" type="curve" smooth="yes"/>
      <point x="258" y="-7"/>
      <point x="310" y="42"/>
      <point x="335" y="158" type="curve" smooth="yes"/>
      <point x="376" y="347" type="line" smooth="yes"/>
      <point x="399" y="452"/>
      <point x="372" y="530"/>
      <point x="283" y="530" type="curve" smooth="yes"/>
      <point x="233" y="530"/>
      <point x="192" y="502"/>
      <point x="165" y="453" type="curve"/>
      <point x="159" y="453" type="line"/>
      <point x="216" y="729" type="line"/>
      <point x="148" y="729" type="line"/>
    </contour>
    <contour>
      <point x="173" y="54" type="curve" smooth="yes"/>
      <point x="126" y="54"/>
      <point x="101" y="89"/>
      <point x="95" y="153" type="curve"/>
      <point x="142" y="377" type="line"/>
      <point x="173" y="438"/>
      <point x="206" y="472"/>
      <point x="251" y="472" type="curve" smooth="yes"/>
      <point x="302" y="472"/>
      <point x="325" y="432"/>
      <point x="307" y="348" type="curve" smooth="yes"/>
      <point x="267" y="164" type="line" smooth="yes"/>
      <point x="251" y="90"/>
      <point x="221" y="54"/>
    </contour>
  </outline>
</glyph>
<glyph name="idotless" format="2">
  <advance width="168"/>
  <unicode hex="0131"/>
  <anchor x="28" y="0" name="bottom"/>
  <anchor x="64" y="0" name="ogonek"/>
  <anchor x="140" y="523" name="top"/>
  <outline>
    <contour>
      <point x="-5" y="0" type="line"/>
      <point x="63" y="0" type="line"/>
      <point x="173" y="523" type="line"/>
      <point x="105" y="523" type="line"/>
    </contour>
  </outline>
</glyph>
<glyph name="Eng" format="2">
  <advance width="454"/>
  <unicode hex="014A"/>
  <outline>
    <contour>
      <point x="122" y="-167" type="line"/>
      <point x="236" y="-167" type="line" smooth="yes"/>
      <point x="280" y="-167"/>
      <point x="308" y="-144"/>
      <point x="317" y="-100" type="curve" smooth="yes"/>
      <point x="491" y="729" type="line"/>
      <point x="426" y="729" type="line"/>
      <point x="300" y="128" type="line"/>
      <point x="296" y="128" type="line"/>
      <point x="296" y="162" type="line"/>
      <point x="248" y="729" type="line"/>
      <point x="159" y="729" type="line"/>
      <point x="5" y="0" type="line"/>
      <point x="70" y="0" type="line"/>
      <point x="196" y="600" type="line"/>
      <point x="200" y="600" type="line"/>
      <point x="201" y="565" type="line"/>
      <point x="249" y="0" type="line"/>
      <point x="270" y="0" type="line"/>
      <point x="247" y="-111" type="line"/>
      <point x="134" y="-111" type="line"/>
    </contour>
  </outline>
</glyph>
<glyph name="eng" format="2">
  <advance width="416"/>
  <unicode hex="014B"/>
  <outline>
    <contour>
      <point x="137" y="-167" type="line"/>
      <point x="212" y="-167" type="line" smooth="yes"/>
      <point x="255" y="-167"/>
      <point x="284" y="-144"/>
      <point x="293" y="-101" type="curve" smooth="yes"/>
      <point x="389" y="354" type="line" smooth="yes"/>
      <point x="412" y="463"/>
      <point x="379" y="530"/>
      <point x="292" y="530" type="curve" smooth="yes"/>
      <point x="243" y="530"/>
      <point x="196" y="505"/>
      <point x="165" y="453" type="curve"/>
      <point x="158" y="453" type="line"/>
      <point x="167" y="523" type="line"/>
      <point x="105" y="523" type="line"/>
      <point x="-6" y="0" type="line"/>
      <point x="62" y="0" type="line"/>
      <point x="143" y="378" type="line"/>
      <point x="173" y="435"/>
      <point x="210" y="472"/>
      <point x="260" y="472" type="curve" smooth="yes"/>
      <point x="320" y="472"/>
      <point x="334" y="422"/>
      <point x="320" y="356" type="curve" smooth="yes"/>
      <point x="222" y="-109" type="line"/>
      <point x="149" y="-109" type="line"/>
    </contour>
  </outline>
</glyph>
<glyph name="florin" format="2">
  <advance width="455"/>
  <unicode hex="0192"/>
  <outline>
    <contour>
      <point x="165" y="-5" type="curve"/>
      <point x="399" y="662" type="line"/>
      <point x="508" y="662" type="line"/>
      <point x="523" y="729" type="line"/>
      <point x="426" y="729" type="line" smooth="yes"/>
      <point x="378" y="729"/>
      <point x="336" y="703"/>
      <point x="316" y="647" type="curve" smooth="yes"/>
      <point x="81" y="-18" type="line"/>
      <point x="-28" y="-18" type="line"/>
      <point x="-43" y="-85" type="line"/>
      <point x="55" y="-85" type="line" smooth="yes"/>
      <point x="105" y="-85"/>
      <point x="147" y="-59"/>
    </contour>
    <contour>
      <point x="132" y="410" type="line"/>
      <point x="438" y="410" type="line"/>
      <point x="452" y="476" type="line"/>
      <point x="146" y="476" type="line"/>
    </contour>
  </outline>
</glyph>
<glyph name="jdotless" format="2">
  <advance width="168"/>
  <unicode hex="0237"/>
  <anchor x="139" y="523" name="top"/>
  <outline>
    <contour>
      <point x="-115" y="-167" type="line"/>
      <point x="-40" y="-167" type="line" smooth="yes"/>
      <point x="4" y="-167"/>
      <point x="33" y="-143"/>
      <point x="42" y="-99" type="curve" smooth="yes"/>
      <point x="173" y="523" type="line"/>
      <point x="105" y="523" type="line"/>
      <point x="-28" y="-107" type="line"/>
      <point x="-103" y="-107" type="line"/>
    </contour>
  </outline>
</glyph>
<glyph name="gravecomb" format="2">
  <unicode hex="0300"/>
  <anchor x="201" y="523" name="_top"/>
  <outline>
    <contour>
      <point x="183" y="594" type="line"/>
      <point x="249" y="594" type="line"/>
      <point x="211" y="728" type="line"/>
      <point x="139" y="728" type="line"/>
    </contour>
  </outline>
</glyph>
<glyph name="acutecomb" format="2">
  <unicode hex="0301"/>
  <anchor x="134" y="523" name="_top"/>
  <outline>
    <contour>
      <point x="111" y="594" type="line"/>
      <point x="188" y="594" type="line"/>
      <point x="288" y="728" type="line"/>
      <point x="206" y="728" type="line"/>
    </contour>
  </outline>
</glyph>
<glyph name="circumflexcomb" format="2">
  <unicode hex="0302"/>
  <anchor x="210" y="523" name="_top"/>
  <outline>
    <contour>
      <point x="111" y="594" type="line"/>
      <point x="177" y="594" type="line"/>
      <point x="250" y="692" type="line"/>
      <point x="273" y="594" type="line"/>
      <point x="330" y="594" type="line"/>
      <point x="296" y="728" type="line"/>
      <point x="216" y="728" type="line"/>
    </contour>
  </outline>
</glyph>
<glyph name="tildecomb" format="2">
  <unicode hex="0303"/>
  <anchor x="233" y="527" name="_top"/>
  <outline>
    <contour>
      <point x="316" y="607" type="curve" smooth="yes"/>
      <point x="364" y="607"/>
      <point x="398" y="647"/>
      <point x="409" y="713" type="curve"/>
      <point x="372" y="713" type="line"/>
      <point x="365" y="684"/>
      <point x="351" y="667"/>
      <point x="326" y="667" type="curve" smooth="yes"/>
      <point x="285" y="667"/>
      <point x="257" y="714"/>
      <point x="205" y="714" type="curve" smooth="yes"/>
      <point x="166" y="714"/>
      <point x="128" y="686"/>
      <point x="114" y="608" type="curve"/>
      <point x="151" y="608" type="line"/>
      <point x="156" y="633"/>
      <point x="169" y="655"/>
      <point x="194" y="655" type="curve" smooth="yes"/>
      <point x="232" y="655"/>
      <point x="260" y="607"/>
    </contour>
  </outline>
</glyph>
<glyph name="macroncomb" format="2">
  <unicode hex="0304"/>
  <anchor x="236" y="523" name="_top"/>
  <outline>
    <contour>
      <point x="113" y="606" type="line"/>
      <point x="394" y="606" type="line"/>
      <point x="407" y="667" type="line"/>
      <point x="126" y="667" type="line"/>
    </contour>
  </outline>
</glyph>
<glyph name="brevecomb" format="2">
  <unicode hex="0306"/>
  <anchor x="202" y="523" name="_top"/>
  <outline>
    <contour>
      <point x="223" y="587" type="curve" smooth="yes"/>
      <point x="277" y="587"/>
      <point x="332" y="623"/>
      <point x="346" y="728" type="curve"/>
      <point x="291" y="728" type="line"/>
      <point x="283" y="661"/>
      <point x="257" y="638"/>
      <point x="228" y="638" type="curve" smooth="yes"/>
      <point x="197" y="638"/>
      <point x="181" y="663"/>
      <point x="193" y="728" type="curve"/>
      <point x="139" y="728" type="line"/>
      <point x="126" y="643"/>
      <point x="156" y="587"/>
    </contour>
  </outline>
</glyph>
<glyph name="dotaccentcomb" format="2">
  <unicode hex="0307"/>
  <anchor x="131" y="523" name="_top"/>
  <outline>
    <contour>
      <point x="113" y="607" type="line"/>
      <point x="184" y="607" type="line"/>
      <point x="209" y="728" type="line"/>
      <point x="139" y="728" type="line"/>
    </contour>
  </outline>
</glyph>
<glyph name="dieresiscomb" format="2">
  <unicode hex="0308"/>
  <anchor x="219" y="523" name="_top"/>
  <outline>
    <contour>
      <point x="115" y="611" type="line"/>
      <point x="185" y="611" type="line"/>
      <point x="211" y="735" type="line"/>
      <point x="141" y="735" type="line"/>
    </contour>
    <contour>
      <point x="290" y="611" type="line"/>
      <point x="360" y="611" type="line"/>
      <point x="386" y="735" type="line"/>
      <point x="316" y="735" type="line"/>
    </contour>
  </outline>
</glyph>
<glyph name="hookabovecomb" format="2">
  <unicode hex="0309"/>
  <anchor x="172" y="523" name="_top"/>
  <outline>
    <contour>
      <point x="166" y="577" type="line"/>
      <point x="241" y="604"/>
      <point x="295" y="648"/>
      <point x="295" y="706" type="curve" smooth="yes"/>
      <point x="295" y="758"/>
      <point x="253" y="784"/>
      <point x="194" y="784" type="curve" smooth="yes"/>
      <point x="179" y="784"/>
      <point x="165" y="783"/>
      <point x="150" y="779" type="curve"/>
      <point x="141" y="731" type="line"/>
      <point x="151" y="735"/>
      <point x="165" y="736"/>
      <point x="176" y="736" type="curve" smooth="yes"/>
      <point x="208" y="736"/>
      <point x="230" y="726"/>
      <point x="230" y="698" type="curve" smooth="yes"/>
      <point x="230" y="660"/>
      <point x="193" y="639"/>
      <point x="145" y="620" type="curve"/>
    </contour>
  </outline>
</glyph>
<glyph name="ringcomb" format="2">
  <unicode hex="030A"/>
  <anchor x="195" y="523" name="_top"/>
  <outline>
    <contour>
      <point x="198" y="587" type="curve" smooth="yes"/>
      <point x="238" y="587"/>
      <point x="271" y="619"/>
      <point x="283" y="674" type="curve" smooth="yes"/>
      <point x="295" y="739"/>
      <point x="272" y="783"/>
      <point x="217" y="783" type="curve" smooth="yes"/>
      <point x="176" y="783"/>
      <point x="143" y="751"/>
      <point x="132" y="696" type="curve" smooth="yes"/>
      <point x="119" y="631"/>
      <point x="142" y="587"/>
    </contour>
    <contour>
      <point x="197" y="627" type="curve" smooth="yes"/>
      <point x="173" y="627"/>
      <point x="168" y="653"/>
      <point x="176" y="689" type="curve" smooth="yes"/>
      <point x="183" y="722"/>
      <point x="196" y="743"/>
      <point x="217" y="743" type="curve" smooth="yes"/>
      <point x="241" y="743"/>
      <point x="246" y="717"/>
      <point x="239" y="681" type="curve" smooth="yes"/>
      <point x="232" y="648"/>
      <point x="219" y="627"/>
    </contour>
  </outline>
</glyph>
<glyph name="hungarumlautcomb" format="2">
  <unicode hex="030B"/>
  <anchor x="195" y="523" name="_top"/>
  <outline>
    <contour>
      <point x="111" y="594" type="line"/>
      <point x="184" y="594" type="line"/>
      <point x="285" y="728" type="line"/>
      <point x="207" y="728" type="line"/>
    </contour>
    <contour>
      <point x="236" y="594" type="line"/>
      <point x="313" y="594" type="line"/>
      <point x="424" y="728" type="line"/>
      <point x="340" y="728" type="line"/>
    </contour>
  </outline>
</glyph>
<glyph name="caroncomb" format="2">
  <unicode hex="030C"/>
  <anchor x="197" y="523" name="_top"/>
  <outline>
    <contour>
      <point x="172" y="594" type="line"/>
      <point x="252" y="594" type="line"/>
      <point x="358" y="728" type="line"/>
      <point x="291" y="728" type="line"/>
      <point x="218" y="630" type="line"/>
      <point x="195" y="728" type="line"/>
      <point x="139" y="728" type="line"/>
    </contour>
  </outline>
</glyph>
<glyph name="commaturnedabovecomb" format="2">
  <unicode hex="0312"/>
  <anchor x="135" y="523" name="_top"/>
  <outline>
    <contour>
      <point x="113" y="604" type="line"/>
      <point x="191" y="604" type="line"/>
      <point x="209" y="690" type="line"/>
      <point x="170" y="690" type="line"/>
      <point x="246" y="813" type="line"/>
      <point x="201" y="813" type="line"/>
      <point x="130" y="683" type="line"/>
    </contour>
  </outline>
</glyph>
<glyph name="horncomb" format="2">
  <unicode hex="031B"/>
  <anchor x="95" y="518" name="_topright"/>
  <outline>
    <contour>
      <point x="87" y="481" type="line"/>
      <point x="158" y="481"/>
      <point x="202" y="506"/>
      <point x="216" y="573" type="curve" smooth="yes"/>
      <point x="223" y="605" type="line"/>
      <point x="169" y="605" type="line"/>
      <point x="163" y="576" type="line" smooth="yes"/>
      <point x="154" y="532"/>
      <point x="131" y="519"/>
      <point x="95" y="518" type="curve"/>
    </contour>
  </outline>
</glyph>
<glyph name="dotbelowcomb" format="2">
  <unicode hex="0323"/>
  <anchor x="26" y="0" name="_bottom"/>
  <outline>
    <contour>
      <point x="-51" y="-167" type="line"/>
      <point x="31" y="-167" type="line"/>
      <point x="53" y="-66" type="line"/>
      <point x="-29" y="-66" type="line"/>
    </contour>
  </outline>
</glyph>
<glyph name="commaaccentcomb" format="2">
  <unicode hex="0326"/>
  <anchor x="34" y="0" name="_bottom"/>
  <outline>
    <contour>
      <point x="-72" y="-266" type="line"/>
      <point x="-23" y="-266" type="line"/>
      <point x="42" y="-150" type="line"/>
      <point x="61" y="-62" type="line"/>
      <point x="-19" y="-62" type="line"/>
      <point x="-38" y="-152" type="line"/>
      <point x="3" y="-152" type="line"/>
    </contour>
  </outline>
</glyph>
<glyph name="cedillacomb" format="2">
  <unicode hex="0327"/>
  <anchor x="69" y="0" name="_bottom"/>
  <outline>
    <contour>
      <point x="41" y="-205" type="curve" smooth="yes"/>
      <point x="85" y="-205"/>
      <point x="122" y="-183"/>
      <point x="133" y="-137" type="curve" smooth="yes"/>
      <point x="147" y="-76"/>
      <point x="108" y="-27"/>
      <point x="51" y="-45" type="curve"/>
      <point x="72" y="-52" type="line"/>
      <point x="96" y="7" type="line"/>
      <point x="47" y="7" type="line"/>
      <point x="21" y="-56" type="line"/>
      <point x="34" y="-70" type="line"/>
      <point x="51" y="-65"/>
      <point x="82" y="-67"/>
      <point x="82" y="-104" type="curve" smooth="yes"/>
      <point x="82" y="-137"/>
      <point x="67" y="-158"/>
      <point x="42" y="-158" type="curve" smooth="yes"/>
      <point x="19" y="-158"/>
      <point x="7" y="-144"/>
      <point x="8" y="-122" type="curve"/>
      <point x="-42" y="-122" type="line"/>
      <point x="-44" y="-172"/>
      <point x="-11" y="-205"/>
    </contour>
  </outline>
</glyph>
<glyph name="ogonekcomb" format="2">
  <unicode hex="0328"/>
  <anchor x="97" y="0" name="_ogonek"/>
  <outline>
    <contour>
      <point x="24" y="-186" type="curve" smooth="yes"/>
      <point x="45" y="-186"/>
      <point x="63" y="-182"/>
      <point x="75" y="-175" type="curve"/>
      <point x="83" y="-135" type="line"/>
      <point x="75" y="-140"/>
      <point x="62" y="-144"/>
      <point x="50" y="-144" type="curve" smooth="yes"/>
      <point x="28" y="-144"/>
      <point x="16" y="-132"/>
      <point x="16" y="-112" type="curve" smooth="yes"/>
      <point x="16" y="-81"/>
      <point x="44" y="-47"/>
      <point x="97" y="0" type="curve"/>
      <point x="94" y="10" type="line"/>
      <point x="83" y="23" type="line"/>
      <point x="3" y="-32"/>
      <point x="-41" y="-81"/>
      <point x="-41" y="-127" type="curve" smooth="yes"/>
      <point x="-41" y="-163"/>
      <point x="-15" y="-186"/>
    </contour>
  </outline>
</glyph>
<glyph name="strokeshortcomb" format="2">
  <unicode hex="0335"/>
  <anchor x="226" y="611" name="_center"/>
  <outline>
    <contour>
      <point x="109" y="581" type="line"/>
      <point x="330" y="581" type="line"/>
      <point x="342" y="641" type="line"/>
      <point x="121" y="641" type="line"/>
    </contour>
  </outline>
</glyph>
<glyph name="strokelongcomb" format="2">
  <unicode hex="0336"/>
  <anchor x="267" y="289" name="_center"/>
  <outline>
    <contour>
      <point x="42" y="260" type="line"/>
      <point x="481" y="260" type="line"/>
      <point x="491" y="317" type="line"/>
      <point x="52" y="317" type="line"/>
    </contour>
  </outline>
</glyph>
<glyph name="slashshortcomb" format="2">
  <unicode hex="0337"/>
  <anchor x="141" y="365" name="_center"/>
  <outline>
    <contour>
      <point x="45" y="283" type="line"/>
      <point x="222" y="372" type="line"/>
      <point x="237" y="446" type="line"/>
      <point x="60" y="357" type="line"/>
    </contour>
  </outline>
</glyph>
<glyph name="mu" format="2">
  <advance width="414"/>
  <unicode hex="03BC"/>
  <outline>
    <contour>
      <point x="-38" y="-132" type="line"/>
      <point x="29" y="-132" type="line"/>
      <point x="70" y="57" type="line"/>
      <point x="50" y="38" type="line"/>
      <point x="61" y="12"/>
      <point x="85" y="-6"/>
      <point x="128" y="-6" type="curve" smooth="yes"/>
      <point x="172" y="-6"/>
      <point x="220" y="19"/>
      <point x="250" y="70" type="curve"/>
      <point x="256" y="70" type="line"/>
      <point x="248" y="0" type="line"/>
      <point x="309" y="0" type="line"/>
      <point x="418" y="523" type="line"/>
      <point x="350" y="523" type="line"/>
      <point x="271" y="144" type="line"/>
      <point x="235" y="79"/>
      <point x="198" y="51"/>
      <point x="155" y="51" type="curve" smooth="yes"/>
      <point x="96" y="51"/>
      <point x="79" y="97"/>
      <point x="94" y="167" type="curve" smooth="yes"/>
      <point x="170" y="523" type="line"/>
      <point x="102" y="523" type="line"/>
    </contour>
  </outline>
</glyph>
<glyph name="pi" format="2">
  <advance width="426"/>
  <unicode hex="03C0"/>
  <outline>
    <contour>
      <point x="27" y="0" type="line"/>
      <point x="103" y="0" type="line"/>
      <point x="201" y="459" type="line"/>
      <point x="315" y="459" type="line"/>
      <point x="231" y="64" type="line" smooth="yes"/>
      <point x="223" y="26"/>
      <point x="234" y="0"/>
      <point x="286" y="0" type="curve" smooth="yes"/>
      <point x="342" y="0" type="line"/>
      <point x="355" y="59" type="line"/>
      <point x="304" y="59" type="line"/>
      <point x="389" y="459" type="line"/>
      <point x="440" y="459" type="line"/>
      <point x="454" y="524" type="line"/>
      <point x="79" y="524" type="line"/>
      <point x="65" y="459" type="line"/>
      <point x="125" y="459" type="line"/>
    </contour>
  </outline>
</glyph>
<glyph name="Germandbls" format="2">
  <advance width="472"/>
  <unicode hex="1E9E"/>
  <outline>
    <contour>
      <point x="5" y="0" type="line"/>
      <point x="74" y="0" type="line"/>
      <point x="215" y="666" type="line"/>
      <point x="405" y="666" type="line"/>
      <point x="246" y="430" type="line"/>
      <point x="237" y="380" type="line"/>
      <point x="254" y="380" type="line" smooth="yes"/>
      <point x="330" y="380"/>
      <point x="376" y="340"/>
      <point x="360" y="251" type="curve" smooth="yes"/>
      <point x="349" y="191" type="line" smooth="yes"/>
      <point x="336" y="122"/>
      <point x="286" y="61"/>
      <point x="190" y="61" type="curve" smooth="yes"/>
      <point x="161" y="61" type="line"/>
      <point x="148" y="0" type="line"/>
      <point x="191" y="0" type="line" smooth="yes"/>
      <point x="309" y="0"/>
      <point x="398" y="60"/>
      <point x="425" y="214" type="curve" smooth="yes"/>
      <point x="449" y="350"/>
      <point x="400" y="421"/>
      <point x="291" y="421" type="curve" smooth="yes"/>
      <point x="279" y="421" type="line"/>
      <point x="308" y="401" type="line"/>
      <point x="313" y="426" type="line"/>
      <point x="475" y="664" type="line"/>
      <point x="489" y="729" type="line"/>
      <point x="159" y="729" type="line"/>
    </contour>
  </outline>
</glyph>
<glyph name="emdash" format="2">
  <advance width="562"/>
  <unicode hex="2014"/>
  <outline>
    <contour>
      <point x="42" y="290" type="line"/>
      <point x="532" y="290" type="line"/>
      <point x="546" y="356" type="line"/>
      <point x="56" y="356" type="line"/>
    </contour>
  </outline>
</glyph>
<glyph name="bullet" format="2">
  <advance width="220"/>
  <unicode hex="2022"/>
  <outline>
    <contour>
      <point x="27" y="277" type="curve" smooth="yes"/>
      <point x="27" y="228"/>
      <point x="63" y="192"/>
      <point x="113" y="192" type="curve" smooth="yes"/>
      <point x="166" y="192"/>
      <point x="200" y="228"/>
      <point x="200" y="277" type="curve" smooth="yes"/>
      <point x="200" y="327"/>
      <point x="166" y="363"/>
      <point x="113" y="363" type="curve" smooth="yes"/>
      <point x="63" y="363"/>
      <point x="27" y="327"/>
    </contour>
  </outline>
</glyph>
<glyph name="guilsinglleft" format="2">
  <advance width="255"/>
  <unicode hex="2039"/>
  <anchor x="-7" y="0" name="#entry"/>
  <anchor x="188" y="0" name="#exit"/>
  <outline>
    <contour>
      <point x="116" y="57" type="line"/>
      <point x="178" y="57" type="line"/>
      <point x="117" y="289" type="line"/>
      <point x="277" y="523" type="line"/>
      <point x="204" y="523" type="line"/>
      <point x="40" y="290" type="line"/>
    </contour>
  </outline>
</glyph>
<glyph name="zeroinferior" format="2">
  <advance width="327"/>
  <unicode hex="2080"/>
  <outline>
    <contour>
      <point x="111" y="-64" type="curve" smooth="yes"/>
      <point x="179" y="-64"/>
      <point x="225" y="-25"/>
      <point x="244" y="65" type="curve" smooth="yes"/>
      <point x="277" y="221" type="line" smooth="yes"/>
      <point x="299" y="325"/>
      <point x="259" y="382"/>
      <point x="173" y="382" type="curve" smooth="yes"/>
      <point x="104" y="382"/>
      <point x="58" y="343"/>
      <point x="39" y="253" type="curve" smooth="yes"/>
      <point x="6" y="96" type="line" smooth="yes"/>
      <point x="-16" y="-9"/>
      <point x="25" y="-64"/>
    </contour>
    <contour>
      <point x="114" y="-7" type="curve" smooth="yes"/>
      <point x="76" y="-7"/>
      <point x="59" y="17"/>
      <point x="70" y="69" type="curve" smooth="yes"/>
      <point x="111" y="264" type="line" smooth="yes"/>
      <point x="119" y="302"/>
      <point x="136" y="324"/>
      <point x="170" y="324" type="curve" smooth="yes"/>
      <point x="207" y="324"/>
      <point x="224" y="300"/>
      <point x="213" y="248" type="curve" smooth="yes"/>
      <point x="172" y="53" type="line" smooth="yes"/>
      <point x="164" y="15"/>
      <point x="147" y="-7"/>
    </contour>
  </outline>
</glyph>
<glyph name="oneinferior" format="2">
  <advance width="210"/>
  <unicode hex="2081"/>
  <outline>
    <contour>
      <point x="92" y="-60" type="line"/>
      <point x="184" y="377" type="line"/>
      <point x="126" y="377" type="line"/>
      <point x="100" y="305" type="line"/>
      <point x="34" y="305" type="line"/>
      <point x="22" y="245" type="line"/>
      <point x="86" y="245" type="line"/>
      <point x="22" y="-60" type="line"/>
    </contour>
  </outline>
</glyph>
<glyph name="twoinferior" format="2">
  <advance width="305"/>
  <unicode hex="2082"/>
  <outline>
    <contour>
      <point x="-32" y="-60" type="line"/>
      <point x="208" y="-60" type="line"/>
      <point x="220" y="-1" type="line"/>
      <point x="72" y="-1" type="line"/>
      <point x="58" y="-2" type="line"/>
      <point x="59" y="2" type="line"/>
      <point x="70" y="12" type="line"/>
      <point x="177" y="123" type="line" smooth="yes"/>
      <point x="234" y="182"/>
      <point x="268" y="226"/>
      <point x="268" y="285" type="curve" smooth="yes"/>
      <point x="268" y="347"/>
      <point x="225" y="382"/>
      <point x="163" y="382" type="curve" smooth="yes"/>
      <point x="87" y="382"/>
      <point x="39" y="329"/>
      <point x="28" y="243" type="curve"/>
      <point x="91" y="243" type="line"/>
      <point x="97" y="288"/>
      <point x="115" y="321"/>
      <point x="154" y="321" type="curve" smooth="yes"/>
      <point x="189" y="321"/>
      <point x="204" y="297"/>
      <point x="196" y="261" type="curve" smooth="yes"/>
      <point x="194" y="252" type="line" smooth="yes"/>
      <point x="189" y="230"/>
      <point x="174" y="206"/>
      <point x="142" y="172" type="curve" smooth="yes"/>
      <point x="-19" y="2" type="line"/>
    </contour>
  </outline>
</glyph>
<glyph name="threeinferior" format="2">
  <advance width="309"/>
  <unicode hex="2083"/>
  <outline>
    <contour>
      <point x="94" y="-64" type="curve" smooth="yes"/>
      <point x="164" y="-64"/>
      <point x="217" y="-23"/>
      <point x="228" y="51" type="curve" smooth="yes"/>
      <point x="235" y="98"/>
      <point x="224" y="141"/>
      <point x="188" y="156" type="curve"/>
      <point x="189" y="161" type="line"/>
      <point x="235" y="175"/>
      <point x="265" y="212"/>
      <point x="272" y="266" type="curve" smooth="yes"/>
      <point x="281" y="335"/>
      <point x="241" y="381"/>
      <point x="170" y="381" type="curve" smooth="yes"/>
      <point x="92" y="381"/>
      <point x="46" y="325"/>
      <point x="35" y="245" type="curve"/>
      <point x="100" y="245" type="line"/>
      <point x="110" y="297"/>
      <point x="127" y="322"/>
      <point x="163" y="322" type="curve" smooth="yes"/>
      <point x="198" y="322"/>
      <point x="209" y="294"/>
      <point x="202" y="259" type="curve" smooth="yes"/>
      <point x="198" y="239" type="line" smooth="yes"/>
      <point x="192" y="209"/>
      <point x="168" y="189"/>
      <point x="129" y="189" type="curve" smooth="yes"/>
      <point x="98" y="189" type="line"/>
      <point x="87" y="139" type="line"/>
      <point x="117" y="139" type="line" smooth="yes"/>
      <point x="154" y="139"/>
      <point x="171" y="115"/>
      <point x="162" y="72" type="curve" smooth="yes"/>
      <point x="157" y="48" type="line" smooth="yes"/>
      <point x="150" y="14"/>
      <point x="128" y="-2"/>
      <point x="98" y="-2" type="curve" smooth="yes"/>
      <point x="73" y="-2"/>
      <point x="42" y="9"/>
      <point x="56" y="76" type="curve"/>
      <point x="-10" y="76" type="line"/>
      <point x="-26" y="-9"/>
      <point x="11" y="-64"/>
    </contour>
  </outline>
</glyph>
<glyph name="fourinferior" format="2">
  <advance width="319"/>
  <unicode hex="2084"/>
  <outline>
    <contour>
      <point x="108" y="-60" type="line"/>
      <point x="178" y="-60" type="line"/>
      <point x="200" y="45" type="line"/>
      <point x="248" y="45" type="line"/>
      <point x="260" y="105" type="line"/>
      <point x="213" y="105" type="line"/>
      <point x="233" y="202" type="line"/>
      <point x="179" y="202" type="line"/>
      <point x="146" y="105" type="line"/>
      <point x="72" y="105" type="line"/>
      <point x="73" y="109" type="line"/>
      <point x="238" y="377" type="line"/>
      <point x="166" y="377" type="line"/>
      <point x="-10" y="93" type="line"/>
      <point x="-20" y="45" type="line"/>
      <point x="130" y="45" type="line"/>
    </contour>
  </outline>
</glyph>
<glyph name="fiveinferior" format="2">
  <advance width="314"/>
  <unicode hex="2085"/>
  <outline>
    <contour>
      <point x="100" y="-64" type="curve" smooth="yes"/>
      <point x="170" y="-64"/>
      <point x="219" y="-24"/>
      <point x="239" y="74" type="curve" smooth="yes"/>
      <point x="252" y="141"/>
      <point x="251" y="229"/>
      <point x="165" y="229" type="curve" smooth="yes"/>
      <point x="139" y="229"/>
      <point x="112" y="218"/>
      <point x="96" y="196" type="curve"/>
      <point x="91" y="196" type="line"/>
      <point x="128" y="319" type="line"/>
      <point x="283" y="319" type="line"/>
      <point x="295" y="377" type="line"/>
      <point x="83" y="377" type="line"/>
      <point x="15" y="134" type="line"/>
      <point x="78" y="133" type="line"/>
      <point x="90" y="163"/>
      <point x="109" y="180"/>
      <point x="136" y="180" type="curve" smooth="yes"/>
      <point x="184" y="180"/>
      <point x="180" y="128"/>
      <point x="173" y="99" type="curve" smooth="yes"/>
      <point x="165" y="61" type="line" smooth="yes"/>
      <point x="156" y="18"/>
      <point x="135" y="-3"/>
      <point x="103" y="-3" type="curve" smooth="yes"/>
      <point x="54" y="-2"/>
      <point x="53" y="36"/>
      <point x="61" y="75" type="curve"/>
      <point x="-5" y="76" type="line"/>
      <point x="-16" y="6"/>
      <point x="-3" y="-64"/>
    </contour>
  </outline>
</glyph>
<glyph name="sixinferior" format="2">
  <advance width="320"/>
  <unicode hex="2086"/>
  <outline>
    <contour>
      <point x="108" y="-64" type="curve" smooth="yes"/>
      <point x="179" y="-64"/>
      <point x="228" y="-19"/>
      <point x="246" y="83" type="curve" smooth="yes"/>
      <point x="261" y="168"/>
      <point x="238" y="226"/>
      <point x="168" y="226" type="curve" smooth="yes"/>
      <point x="135" y="226"/>
      <point x="108" y="210"/>
      <point x="92" y="179" type="curve"/>
      <point x="88" y="180" type="line"/>
      <point x="93" y="197"/>
      <point x="100" y="226"/>
      <point x="105" y="249" type="curve" smooth="yes"/>
      <point x="117" y="304"/>
      <point x="138" y="325"/>
      <point x="175" y="325" type="curve" smooth="yes"/>
      <point x="210" y="325"/>
      <point x="224" y="303"/>
      <point x="219" y="260" type="curve"/>
      <point x="285" y="260" type="line"/>
      <point x="289" y="340"/>
      <point x="249" y="381"/>
      <point x="176" y="381" type="curve" smooth="yes"/>
      <point x="111" y="381"/>
      <point x="59" y="346"/>
      <point x="37" y="241" type="curve" smooth="yes"/>
      <point x="9" y="107" type="line" smooth="yes"/>
      <point x="-13" y="2"/>
      <point x="21" y="-64"/>
    </contour>
    <contour>
      <point x="111" y="-4" type="curve" smooth="yes"/>
      <point x="68" y="-4"/>
      <point x="60" y="32"/>
      <point x="71" y="83" type="curve" smooth="yes"/>
      <point x="82" y="134" type="line"/>
      <point x="94" y="160"/>
      <point x="114" y="178"/>
      <point x="139" y="178" type="curve" smooth="yes"/>
      <point x="180" y="178"/>
      <point x="188" y="144"/>
      <point x="179" y="99" type="curve" smooth="yes"/>
      <point x="172" y="64" type="line" smooth="yes"/>
      <point x="163" y="19"/>
      <point x="144" y="-4"/>
    </contour>
  </outline>
</glyph>
<glyph name="seveninferior" format="2">
  <advance width="308"/>
  <unicode hex="2087"/>
  <outline>
    <contour>
      <point x="87" y="-60" type="line"/>
      <point x="293" y="317" type="line"/>
      <point x="306" y="377" type="line"/>
      <point x="56" y="377" type="line"/>
      <point x="26" y="231" type="line"/>
      <point x="88" y="231" type="line"/>
      <point x="106" y="320" type="line"/>
      <point x="223" y="320" type="line"/>
      <point x="220" y="312" type="line"/>
      <point x="9" y="-60" type="line"/>
    </contour>
  </outline>
</glyph>
<glyph name="eightinferior" format="2">
  <advance width="316"/>
  <unicode hex="2088"/>
  <outline>
    <contour>
      <point x="104" y="-65" type="curve" smooth="yes"/>
      <point x="185" y="-65"/>
      <point x="238" y="-15"/>
      <point x="238" y="69" type="curve" smooth="yes"/>
      <point x="238" y="107"/>
      <point x="225" y="140"/>
      <point x="192" y="156" type="curve"/>
      <point x="193" y="161" type="line"/>
      <point x="238" y="173"/>
      <point x="275" y="214"/>
      <point x="275" y="279" type="curve" smooth="yes"/>
      <point x="275" y="339"/>
      <point x="237" y="382"/>
      <point x="167" y="382" type="curve" smooth="yes"/>
      <point x="87" y="382"/>
      <point x="41" y="322"/>
      <point x="41" y="253" type="curve" smooth="yes"/>
      <point x="41" y="214"/>
      <point x="58" y="185"/>
      <point x="81" y="173" type="curve"/>
      <point x="81" y="168" type="line"/>
      <point x="26" y="156"/>
      <point x="-9" y="103"/>
      <point x="-9" y="42" type="curve" smooth="yes"/>
      <point x="-9" y="-25"/>
      <point x="34" y="-65"/>
    </contour>
    <contour>
      <point x="109" y="-3" type="curve" smooth="yes"/>
      <point x="62" y="-3"/>
      <point x="53" y="38"/>
      <point x="61" y="65" type="curve" smooth="yes"/>
      <point x="66" y="87" type="line" smooth="yes"/>
      <point x="73" y="118"/>
      <point x="94" y="139"/>
      <point x="124" y="139" type="curve" smooth="yes"/>
      <point x="168" y="139"/>
      <point x="177" y="110"/>
      <point x="172" y="72" type="curve" smooth="yes"/>
      <point x="167" y="49" type="line" smooth="yes"/>
      <point x="160" y="17"/>
      <point x="141" y="-3"/>
    </contour>
    <contour>
      <point x="150" y="189" type="curve" smooth="yes"/>
      <point x="105" y="189"/>
      <point x="96" y="231"/>
      <point x="104" y="258" type="curve" smooth="yes"/>
      <point x="107" y="272" type="line" smooth="yes"/>
      <point x="114" y="305"/>
      <point x="136" y="320"/>
      <point x="161" y="320" type="curve" smooth="yes"/>
      <point x="208" y="320"/>
      <point x="217" y="287"/>
      <point x="208" y="253" type="curve" smooth="yes"/>
      <point x="204" y="238" type="line" smooth="yes"/>
      <point x="196" y="208"/>
      <point x="178" y="189"/>
    </contour>
  </outline>
</glyph>
<glyph name="sheqel" format="2">
  <advance width="629"/>
  <unicode hex="20AA"/>
  <outline>
    <contour>
      <point x="162" y="0" type="line"/>
      <point x="428" y="0" type="line" smooth="yes"/>
      <point x="487" y="0"/>
      <point x="515" y="28"/>
      <point x="527" y="82" type="curve" smooth="yes"/>
      <point x="664" y="729" type="line"/>
      <point x="594" y="729" type="line"/>
      <point x="454" y="66" type="line"/>
      <point x="234" y="66" type="line"/>
      <point x="340" y="565" type="line"/>
      <point x="282" y="565" type="line"/>
    </contour>
    <contour>
      <point x="10" y="0" type="line"/>
      <point x="80" y="0" type="line"/>
      <point x="220" y="663" type="line"/>
      <point x="441" y="663" type="line"/>
      <point x="335" y="164" type="line"/>
      <point x="393" y="164" type="line"/>
      <point x="496" y="647" type="line" smooth="yes"/>
      <point x="508" y="701"/>
      <point x="489" y="729"/>
      <point x="430" y="729" type="curve" smooth="yes"/>
      <point x="164" y="729" type="line"/>
    </contour>
  </outline>
</glyph>
<glyph name="rupeeIndian" format="2">
  <advance width="413"/>
  <unicode hex="20B9"/>
  <outline>
    <contour>
      <point x="183" y="0" type="line"/>
      <point x="258" y="0" type="line"/>
      <point x="142" y="322" type="line"/>
      <point x="139" y="319" type="line"/>
      <point x="150" y="319" type="line" smooth="yes"/>
      <point x="255" y="319"/>
      <point x="335" y="386"/>
      <point x="357" y="528" type="curve" smooth="yes"/>
      <point x="368" y="597"/>
      <point x="355" y="652"/>
      <point x="319" y="683" type="curve"/>
      <point x="319" y="675" type="line"/>
      <point x="459" y="675" type="line"/>
      <point x="471" y="729" type="line"/>
      <point x="143" y="729" type="line"/>
      <point x="130" y="670" type="line"/>
      <point x="212" y="670" type="line" smooth="yes"/>
      <point x="274" y="670"/>
      <point x="310" y="632"/>
      <point x="288" y="531" type="curve" smooth="yes"/>
      <point x="281" y="499" type="line" smooth="yes"/>
      <point x="260" y="403"/>
      <point x="208" y="373"/>
      <point x="143" y="373" type="curve" smooth="yes"/>
      <point x="68" y="373" type="line"/>
      <point x="62" y="345" type="line"/>
    </contour>
    <contour>
      <point x="93" y="495" type="line"/>
      <point x="318" y="495" type="line"/>
      <point x="329" y="544" type="line"/>
      <point x="104" y="544" type="line"/>
    </contour>
    <contour>
      <point x="317" y="490" type="line"/>
      <point x="419" y="490" type="line"/>
      <point x="432" y="549" type="line"/>
      <point x="330" y="549" type="line"/>
    </contour>
  </outline>
</glyph>
<glyph name="liraTurkish" format="2">
  <advance width="512"/>
  <unicode hex="20BA"/>
  <outline>
    <contour>
      <point x="74" y="0" type="line"/>
      <point x="135" y="0" type="line" smooth="yes"/>
      <point x="309" y="0"/>
      <point x="445" y="126"/>
      <point x="485" y="323" type="curve"/>
      <point x="407" y="323" type="line"/>
      <point x="377" y="175"/>
      <point x="284" y="74"/>
      <point x="165" y="72" type="curve"/>
      <point x="304" y="729" type="line"/>
      <point x="228" y="729" type="line"/>
    </contour>
    <contour>
      <point x="42" y="261" type="line"/>
      <point x="364" y="386" type="line"/>
      <point x="377" y="448" type="line"/>
      <point x="55" y="323" type="line"/>
    </contour>
    <contour>
      <point x="78" y="431" type="line"/>
      <point x="400" y="556" type="line"/>
      <point x="413" y="617" type="line"/>
      <point x="91" y="493" type="line"/>
    </contour>
  </outline>
</glyph>
<glyph name="literSign" format="2">
  <advance width="411"/>
  <unicode hex="2113"/>
  <outline>
    <contour>
      <point x="184" y="-10" type="curve" smooth="yes"/>
      <point x="240" y="-10"/>
      <point x="293" y="18"/>
      <point x="339" y="108" type="curve"/>
      <point x="287" y="133" type="line"/>
      <point x="260" y="82"/>
      <point x="233" y="50"/>
      <point x="192" y="50" type="curve" smooth="yes"/>
      <point x="110" y="50"/>
      <point x="133" y="237"/>
      <point x="163" y="390" type="curve" smooth="yes"/>
      <point x="199" y="574"/>
      <point x="242" y="671"/>
      <point x="302" y="671" type="curve" smooth="yes"/>
      <point x="353" y="671"/>
      <point x="354" y="607"/>
      <point x="337" y="537" type="curve" smooth="yes"/>
      <point x="299" y="389"/>
      <point x="185" y="236"/>
      <point x="13" y="188" type="curve"/>
      <point x="2" y="132" type="line"/>
      <point x="206" y="181"/>
      <point x="360" y="357"/>
      <point x="402" y="536" type="curve" smooth="yes"/>
      <point x="430" y="657"/>
      <point x="394" y="738"/>
      <point x="313" y="738" type="curve" smooth="yes"/>
      <point x="217" y="738"/>
      <point x="148" y="647"/>
      <point x="98" y="400" type="curve" smooth="yes"/>
      <point x="58" y="199"/>
      <point x="51" y="-10"/>
    </contour>
  </outline>
</glyph>
<glyph name="numero" format="2">
  <advance width="722"/>
  <unicode hex="2116"/>
  <outline>
    <contour>
      <point x="5" y="0" type="line"/>
      <point x="70" y="0" type="line"/>
      <point x="196" y="600" type="line"/>
      <point x="200" y="600" type="line"/>
      <point x="201" y="565" type="line"/>
      <point x="249" y="0" type="line"/>
      <point x="338" y="0" type="line"/>
      <point x="491" y="729" type="line"/>
      <point x="426" y="729" type="line"/>
      <point x="300" y="128" type="line"/>
      <point x="296" y="128" type="line"/>
      <point x="296" y="162" type="line"/>
      <point x="248" y="729" type="line"/>
      <point x="159" y="729" type="line"/>
    </contour>
    <contour>
      <point x="465" y="215" type="line"/>
      <point x="653" y="215" type="line"/>
      <point x="664" y="270" type="line"/>
      <point x="476" y="270" type="line"/>
    </contour>
    <contour>
      <point x="587" y="323" type="curve" smooth="yes"/>
      <point x="654" y="323"/>
      <point x="702" y="384"/>
      <point x="731" y="521" type="curve" smooth="yes"/>
      <point x="756" y="645"/>
      <point x="745" y="739"/>
      <point x="651" y="739" type="curve" smooth="yes"/>
      <point x="582" y="739"/>
      <point x="535" y="676"/>
      <point x="507" y="543" type="curve" smooth="yes"/>
      <point x="477" y="398"/>
      <point x="500" y="323"/>
    </contour>
    <contour>
      <point x="585" y="376" type="curve" smooth="yes"/>
      <point x="540" y="378"/>
      <point x="554" y="459"/>
      <point x="569" y="534" type="curve" smooth="yes"/>
      <point x="593" y="646"/>
      <point x="613" y="685"/>
      <point x="648" y="685" type="curve" smooth="yes"/>
      <point x="693" y="685"/>
      <point x="690" y="626"/>
      <point x="669" y="528" type="curve" smooth="yes"/>
      <point x="643" y="401"/>
      <point x="619" y="373"/>
    </contour>
  </outline>
</glyph>
<glyph name="trademark" format="2">
  <advance width="576"/>
  <unicode hex="2122"/>
  <outline>
    <contour>
      <point x="303" y="418" type="line"/>
      <point x="354" y="418" type="line"/>
      <point x="383" y="554" type="line"/>
      <point x="405" y="663" type="line"/>
      <point x="407" y="663" type="line"/>
      <point x="414" y="418" type="line"/>
      <point x="458" y="418" type="line"/>
      <point x="570" y="663" type="line"/>
      <point x="572" y="663" type="line"/>
      <point x="547" y="554" type="line"/>
      <point x="518" y="418" type="line"/>
      <point x="570" y="418" type="line"/>
      <point x="636" y="729" type="line"/>
      <point x="558" y="729" type="line"/>
      <point x="453" y="492" type="line"/>
      <point x="451" y="492" type="line"/>
      <point x="446" y="729" type="line"/>
      <point x="369" y="729" type="line"/>
    </contour>
    <contour>
      <point x="125" y="418" type="line"/>
      <point x="179" y="418" type="line"/>
      <point x="235" y="682" type="line"/>
      <point x="311" y="682" type="line"/>
      <point x="321" y="729" type="line"/>
      <point x="119" y="729" type="line"/>
      <point x="109" y="682" type="line"/>
      <point x="181" y="682" type="line"/>
    </contour>
  </outline>
</glyph>
<glyph name="arrowup" format="2">
  <advance width="485"/>
  <unicode hex="2191"/>
  <outline>
    <contour>
      <point x="253" y="96" type="line"/>
      <point x="318" y="96" type="line"/>
      <point x="318" y="532" type="line"/>
      <point x="460" y="427" type="line"/>
      <point x="460" y="502" type="line"/>
      <point x="285" y="633" type="line"/>
      <point x="111" y="502" type="line"/>
      <point x="111" y="427" type="line"/>
      <point x="253" y="532" type="line"/>
    </contour>
  </outline>
</glyph>
<glyph name="leftRightArrow" format="2">
  <advance width="657"/>
  <unicode hex="2194"/>
  <outline>
    <contour>
      <point x="203" y="190" type="line"/>
      <point x="278" y="190" type="line"/>
      <point x="173" y="332" type="line"/>
      <point x="528" y="332" type="line"/>
      <point x="423" y="190" type="line"/>
      <point x="498" y="190" type="line"/>
      <point x="629" y="365" type="line"/>
      <point x="498" y="539" type="line"/>
      <point x="423" y="539" type="line"/>
      <point x="528" y="397" type="line"/>
      <point x="173" y="397" type="line"/>
      <point x="278" y="539" type="line"/>
      <point x="203" y="539" type="line"/>
      <point x="72" y="365" type="line"/>
    </contour>
  </outline>
</glyph>
<glyph name="emptyset" format="2">
  <advance width="792"/>
  <unicode hex="2205"/>
  <outline>
    <contour>
      <point x="691" y="559" type="line"/>
      <point x="124" y="212" type="line"/>
      <point x="137" y="171" type="line"/>
      <point x="712" y="521" type="line"/>
    </contour>
    <contour>
      <point x="418" y="0" type="curve" smooth="yes"/>
      <point x="617" y="0"/>
      <point x="777" y="150"/>
      <point x="777" y="366" type="curve" smooth="yes"/>
      <point x="777" y="578"/>
      <point x="617" y="729"/>
      <point x="418" y="729" type="curve" smooth="yes"/>
      <point x="218" y="729"/>
      <point x="59" y="579"/>
      <point x="59" y="366" type="curve" smooth="yes"/>
      <point x="59" y="150"/>
      <point x="218" y="0"/>
    </contour>
    <contour>
      <point x="418" y="41" type="curve" smooth="yes"/>
      <point x="247" y="41"/>
      <point x="105" y="178"/>
      <point x="105" y="366" type="curve" smooth="yes"/>
      <point x="105" y="553"/>
      <point x="247" y="688"/>
      <point x="418" y="688" type="curve" smooth="yes"/>
      <point x="590" y="688"/>
      <point x="732" y="553"/>
      <point x="732" y="366" type="curve" smooth="yes"/>
      <point x="732" y="178"/>
      <point x="590" y="41"/>
    </contour>
  </outline>
</glyph>
<glyph name="product" format="2">
  <advance width="428"/>
  <unicode hex="220F"/>
  <outline>
    <contour>
      <point x="-25" y="-92" type="line"/>
      <point x="51" y="-92" type="line"/>
      <point x="210" y="659" type="line"/>
      <point x="386" y="659" type="line"/>
      <point x="227" y="-92" type="line"/>
      <point x="303" y="-92" type="line"/>
      <point x="477" y="729" type="line"/>
      <point x="149" y="729" type="line"/>
    </contour>
  </outline>
</glyph>
<glyph name="summation" format="2">
  <advance width="395"/>
  <unicode hex="2211"/>
  <outline>
    <contour>
      <point x="-23" y="-92" type="line"/>
      <point x="298" y="-92" type="line"/>
      <point x="309" y="-30" type="line"/>
      <point x="64" y="-30" type="line"/>
      <point x="65" y="-26" type="line"/>
      <point x="292" y="318" type="line"/>
      <point x="186" y="663" type="line"/>
      <point x="187" y="667" type="line"/>
      <point x="432" y="667" type="line"/>
      <point x="443" y="729" type="line"/>
      <point x="122" y="729" type="line"/>
      <point x="110" y="658" type="line"/>
      <point x="212" y="323" type="line"/>
      <point x="210" y="314" type="line"/>
      <point x="-11" y="-21" type="line"/>
    </contour>
  </outline>
</glyph>
<glyph name="minus" format="2">
  <advance width="501"/>
  <unicode hex="2212"/>
  <outline>
    <contour>
      <point x="40" y="331" type="line"/>
      <point x="442" y="331" type="line"/>
      <point x="454" y="391" type="line"/>
      <point x="52" y="391" type="line"/>
    </contour>
  </outline>
</glyph>
<glyph name="radical" format="2">
  <advance width="486"/>
  <unicode hex="221A"/>
  <outline>
    <contour>
      <point x="117" y="-92" type="line"/>
      <point x="199" y="-92" type="line"/>
      <point x="563" y="729" type="line"/>
      <point x="489" y="729" type="line"/>
      <point x="170" y="1" type="line"/>
      <point x="166" y="1" type="line"/>
      <point x="149" y="376" type="line"/>
      <point x="48" y="376" type="line"/>
      <point x="32" y="302" type="line"/>
      <point x="94" y="302" type="line"/>
    </contour>
  </outline>
</glyph>
<glyph name="infinity" format="2">
  <advance width="810"/>
  <unicode hex="221E"/>
  <outline>
    <contour>
      <point x="199" y="170" type="curve" smooth="yes"/>
      <point x="289" y="170"/>
      <point x="359" y="235"/>
      <point x="418" y="312" type="curve"/>
      <point x="452" y="229"/>
      <point x="498" y="170"/>
      <point x="589" y="170" type="curve" smooth="yes"/>
      <point x="696" y="170"/>
      <point x="780" y="258"/>
      <point x="799" y="363" type="curve" smooth="yes"/>
      <point x="818" y="469"/>
      <point x="765" y="559"/>
      <point x="657" y="559" type="curve" smooth="yes"/>
      <point x="563" y="559"/>
      <point x="495" y="491"/>
      <point x="436" y="417" type="curve"/>
      <point x="405" y="491"/>
      <point x="359" y="559"/>
      <point x="267" y="559" type="curve" smooth="yes"/>
      <point x="159" y="559"/>
      <point x="72" y="471"/>
      <point x="54" y="363" type="curve" smooth="yes"/>
      <point x="34" y="252"/>
      <point x="90" y="170"/>
    </contour>
    <contour>
      <point x="214" y="240" type="curve" smooth="yes"/>
      <point x="145" y="240"/>
      <point x="109" y="290"/>
      <point x="122" y="365" type="curve" smooth="yes"/>
      <point x="135" y="437"/>
      <point x="189" y="490"/>
      <point x="257" y="490" type="curve" smooth="yes"/>
      <point x="322" y="490"/>
      <point x="355" y="444"/>
      <point x="392" y="365" type="curve"/>
      <point x="325" y="282"/>
      <point x="273" y="240"/>
    </contour>
    <contour>
      <point x="597" y="240" type="curve" smooth="yes"/>
      <point x="533" y="240"/>
      <point x="501" y="285"/>
      <point x="463" y="365" type="curve"/>
      <point x="528" y="444"/>
      <point x="577" y="490"/>
      <point x="641" y="490" type="curve" smooth="yes"/>
      <point x="709" y="490"/>
      <point x="744" y="435"/>
      <point x="732" y="365" type="curve" smooth="yes"/>
      <point x="720" y="295"/>
      <point x="664" y="240"/>
    </contour>
  </outline>
</glyph>
<glyph name="integral" format="2">
  <advance width="345"/>
  <unicode hex="222B"/>
  <outline>
    <contour>
      <point x="-53" y="-92" type="line"/>
      <point x="59" y="-92" type="line" smooth="yes"/>
      <point x="104" y="-92"/>
      <point x="141" y="-63"/>
      <point x="151" y="-14" type="curve" smooth="yes"/>
      <point x="295" y="663" type="line"/>
      <point x="408" y="663" type="line"/>
      <point x="422" y="729" type="line"/>
      <point x="309" y="729" type="line" smooth="yes"/>
      <point x="262" y="729"/>
      <point x="226" y="704"/>
      <point x="215" y="652" type="curve" smooth="yes"/>
      <point x="71" y="-27" type="line"/>
      <point x="-39" y="-27" type="line"/>
    </contour>
  </outline>
</glyph>
<glyph name="approxequal" format="2">
  <advance width="501"/>
  <unicode hex="2248"/>
  <outline>
    <contour>
      <point x="90" y="386" type="curve"/>
      <point x="131" y="386" type="line"/>
      <point x="136" y="421"/>
      <point x="149" y="449"/>
      <point x="183" y="449" type="curve" smooth="yes"/>
      <point x="225" y="449"/>
      <point x="272" y="384"/>
      <point x="333" y="384" type="curve" smooth="yes"/>
      <point x="383" y="384"/>
      <point x="430" y="420"/>
      <point x="439" y="511" type="curve"/>
      <point x="399" y="511" type="line"/>
      <point x="393" y="472"/>
      <point x="378" y="447"/>
      <point x="344" y="447" type="curve" smooth="yes"/>
      <point x="299" y="447"/>
      <point x="252" y="511"/>
      <point x="194" y="511" type="curve" smooth="yes"/>
      <point x="143" y="511"/>
      <point x="100" y="472"/>
    </contour>
    <contour>
      <point x="56" y="220" type="curve"/>
      <point x="97" y="220" type="line"/>
      <point x="101" y="256"/>
      <point x="115" y="283"/>
      <point x="148" y="283" type="curve" smooth="yes"/>
      <point x="190" y="283"/>
      <point x="238" y="219"/>
      <point x="299" y="219" type="curve" smooth="yes"/>
      <point x="349" y="219"/>
      <point x="395" y="256"/>
      <point x="404" y="346" type="curve"/>
      <point x="365" y="346" type="line"/>
      <point x="358" y="307"/>
      <point x="343" y="282"/>
      <point x="308" y="282" type="curve" smooth="yes"/>
      <point x="264" y="282"/>
      <point x="218" y="346"/>
      <point x="160" y="346" type="curve" smooth="yes"/>
      <point x="110" y="346"/>
      <point x="66" y="309"/>
    </contour>
  </outline>
</glyph>
<glyph name="notequal" format="2">
  <advance width="500"/>
  <unicode hex="2260"/>
  <outline>
    <contour>
      <point x="87" y="130" type="line"/>
      <point x="152" y="130" type="line"/>
      <point x="450" y="591" type="line"/>
      <point x="384" y="591" type="line"/>
    </contour>
    <contour>
      <point x="13" y="235" type="line"/>
      <point x="475" y="235" type="line"/>
      <point x="488" y="295" type="line"/>
      <point x="26" y="295" type="line"/>
    </contour>
    <contour>
      <point x="56" y="435" type="line"/>
      <point x="518" y="435" type="line"/>
      <point x="531" y="495" type="line"/>
      <point x="69" y="495" type="line"/>
    </contour>
  </outline>
</glyph>
<glyph name="lessequal" format="2">
  <advance width="501"/>
  <unicode hex="2264"/>
  <outline>
    <contour>
      <point x="414" y="148" type="line"/>
      <point x="429" y="222" type="line"/>
      <point x="111" y="378" type="line"/>
      <point x="112" y="385" type="line"/>
      <point x="495" y="534" type="line"/>
      <point x="512" y="617" type="line"/>
      <point x="44" y="430" type="line"/>
      <point x="26" y="341" type="line"/>
    </contour>
    <contour>
      <point x="-46" y="0" type="line"/>
      <point x="382" y="0" type="line"/>
      <point x="396" y="65" type="line"/>
      <point x="-32" y="65" type="line"/>
    </contour>
  </outline>
</glyph>
<glyph name="greaterequal" format="2">
  <advance width="501"/>
  <unicode hex="2265"/>
  <outline>
    <contour>
      <point x="19" y="147" type="line"/>
      <point x="487" y="334" type="line"/>
      <point x="506" y="423" type="line"/>
      <point x="118" y="616" type="line"/>
      <point x="103" y="542" type="line"/>
      <point x="420" y="386" type="line"/>
      <point x="419" y="379" type="line"/>
      <point x="37" y="230" type="line"/>
    </contour>
    <contour>
      <point x="-12" y="0" type="line"/>
      <point x="416" y="0" type="line"/>
      <point x="430" y="65" type="line"/>
      <point x="2" y="65" type="line"/>
    </contour>
  </outline>
</glyph>
<glyph name="whiteCircle" format="2">
  <advance width="581"/>
  <unicode hex="25CB"/>
  <anchor x="312" y="365" name="center"/>
  <outline>
    <contour>
      <point x="273" y="-29" type="curve" smooth="yes"/>
      <point x="396" y="-29"/>
      <point x="484" y="52"/>
      <point x="511" y="171" type="curve" smooth="yes"/>
      <point x="533" y="276"/>
      <point x="555" y="381"/>
      <point x="577" y="486" type="curve" smooth="yes"/>
      <point x="609" y="644"/>
      <point x="518" y="758"/>
      <point x="352" y="758" type="curve" smooth="yes"/>
      <point x="239" y="758"/>
      <point x="141" y="687"/>
      <point x="112" y="550" type="curve" smooth="yes"/>
      <point x="91" y="448"/>
      <point x="69" y="346"/>
      <point x="48" y="244" type="curve" smooth="yes"/>
      <point x="14" y="83"/>
      <point x="110" y="-29"/>
    </contour>
    <contour>
      <point x="275" y="15" type="curve" smooth="yes"/>
      <point x="138" y="15"/>
      <point x="65" y="107"/>
      <point x="94" y="241" type="curve" smooth="yes"/>
      <point x="115" y="341"/>
      <point x="136" y="440"/>
      <point x="157" y="540" type="curve" smooth="yes"/>
      <point x="180" y="651"/>
      <point x="254" y="713"/>
      <point x="351" y="713" type="curve" smooth="yes"/>
      <point x="474" y="713"/>
      <point x="563" y="634"/>
      <point x="531" y="488" type="curve" smooth="yes"/>
      <point x="510" y="387"/>
      <point x="488" y="285"/>
      <point x="467" y="184" type="curve" smooth="yes"/>
      <point x="443" y="73"/>
      <point x="367" y="15"/>
    </contour>
  </outline>
</glyph>
<glyph name="blackCircle" format="2">
  <advance width="581"/>
  <unicode hex="25CF"/>
  <anchor x="312" y="365" name="center"/>
  <outline>
    <contour>
      <point x="273" y="-29" type="curve" smooth="yes"/>
      <point x="110" y="-29"/>
      <point x="14" y="83"/>
      <point x="48" y="244" type="curve" smooth="yes"/>
      <point x="69" y="346"/>
      <point x="91" y="448"/>
      <point x="112" y="550" type="curve" smooth="yes"/>
      <point x="141" y="687"/>
      <point x="239" y="758"/>
      <point x="352" y="758" type="curve" smooth="yes"/>
      <point x="518" y="758"/>
      <point x="609" y="644"/>
      <point x="577" y="486" type="curve" smooth="yes"/>
      <point x="555" y="381"/>
      <point x="533" y="276"/>
      <point x="511" y="171" type="curve" smooth="yes"/>
      <point x="484" y="52"/>
      <point x="396" y="-29"/>
    </contour>
  </outline>
</glyph>
<glyph name="whiteFrowningFace" format="2">
  <advance width="880"/>
  <unicode hex="2639"/>
  <outline>
    <contour>
      <point x="463" y="-10" type="curve" smooth="yes"/>
      <point x="686" y="-10"/>
      <point x="848" y="141"/>
      <point x="848" y="366" type="curve" smooth="yes"/>
      <point x="848" y="588"/>
      <point x="686" y="739"/>
      <point x="463" y="739" type="curve" smooth="yes"/>
      <point x="239" y="739"/>
      <point x="76" y="588"/>
      <point x="76" y="366" type="curve" smooth="yes"/>
      <point x="76" y="141"/>
      <point x="239" y="-10"/>
    </contour>
    <contour>
      <point x="273" y="185" type="line"/>
      <point x="306" y="239"/>
      <point x="375" y="278"/>
      <point x="463" y="278" type="curve" smooth="yes"/>
      <point x="551" y="278"/>
      <point x="619" y="239"/>
      <point x="652" y="185" type="curve"/>
      <point x="688" y="200" type="line"/>
      <point x="652" y="272"/>
      <point x="571" y="321"/>
      <point x="463" y="321" type="curve" smooth="yes"/>
      <point x="354" y="321"/>
      <point x="273" y="272"/>
      <point x="237" y="200" type="curve"/>
    </contour>
    <contour>
      <point x="463" y="34" type="curve" smooth="yes"/>
      <point x="265" y="34"/>
      <point x="124" y="168"/>
      <point x="124" y="366" type="curve" smooth="yes"/>
      <point x="124" y="563"/>
      <point x="265" y="695"/>
      <point x="463" y="695" type="curve" smooth="yes"/>
      <point x="658" y="695"/>
      <point x="800" y="563"/>
      <point x="800" y="366" type="curve" smooth="yes"/>
      <point x="800" y="168"/>
      <point x="659" y="34"/>
    </contour>
    <contour>
      <point x="375" y="392" type="curve" smooth="yes"/>
      <point x="396" y="392"/>
      <point x="407" y="406"/>
      <point x="407" y="429" type="curve" smooth="yes"/>
      <point x="407" y="488" type="line" smooth="yes"/>
      <point x="407" y="511"/>
      <point x="396" y="525"/>
      <point x="375" y="525" type="curve" smooth="yes"/>
      <point x="354" y="525"/>
      <point x="343" y="511"/>
      <point x="343" y="488" type="curve" smooth="yes"/>
      <point x="343" y="429" type="line" smooth="yes"/>
      <point x="343" y="406"/>
      <point x="354" y="392"/>
    </contour>
    <contour>
      <point x="549" y="392" type="curve" smooth="yes"/>
      <point x="571" y="392"/>
      <point x="582" y="406"/>
      <point x="582" y="429" type="curve" smooth="yes"/>
      <point x="582" y="488" type="line" smooth="yes"/>
      <point x="582" y="511"/>
      <point x="571" y="525"/>
      <point x="549" y="525" type="curve" smooth="yes"/>
      <point x="529" y="525"/>
      <point x="518" y="511"/>
      <point x="518" y="488" type="curve" smooth="yes"/>
      <point x="518" y="429" type="line" smooth="yes"/>
      <point x="518" y="406"/>
      <point x="529" y="392"/>
    </contour>
  </outline>
</glyph>
<glyph name="whiteSmilingFace" format="2">
  <advance width="880"/>
  <unicode hex="263A"/>
  <outline>
    <contour>
      <point x="463" y="-10" type="curve" smooth="yes"/>
      <point x="686" y="-10"/>
      <point x="848" y="141"/>
      <point x="848" y="366" type="curve" smooth="yes"/>
      <point x="848" y="588"/>
      <point x="686" y="739"/>
      <point x="463" y="739" type="curve" smooth="yes"/>
      <point x="239" y="739"/>
      <point x="76" y="588"/>
      <point x="76" y="366" type="curve" smooth="yes"/>
      <point x="76" y="141"/>
      <point x="239" y="-10"/>
    </contour>
    <contour>
      <point x="461" y="111" type="curve" smooth="yes"/>
      <point x="597" y="111"/>
      <point x="694" y="189"/>
      <point x="713" y="306" type="curve"/>
      <point x="746" y="306" type="line"/>
      <point x="746" y="328" type="line"/>
      <point x="628" y="328" type="line"/>
      <point x="628" y="306" type="line"/>
      <point x="666" y="306" type="line"/>
      <point x="651" y="215"/>
      <point x="569" y="155"/>
      <point x="461" y="155" type="curve" smooth="yes"/>
      <point x="353" y="155"/>
      <point x="272" y="217"/>
      <point x="257" y="306" type="curve"/>
      <point x="297" y="306" type="line"/>
      <point x="297" y="328" type="line"/>
      <point x="178" y="328" type="line"/>
      <point x="178" y="306" type="line"/>
      <point x="211" y="306" type="line"/>
      <point x="229" y="190"/>
      <point x="326" y="111"/>
    </contour>
    <contour>
      <point x="463" y="34" type="curve" smooth="yes"/>
      <point x="265" y="34"/>
      <point x="124" y="168"/>
      <point x="124" y="366" type="curve" smooth="yes"/>
      <point x="124" y="563"/>
      <point x="265" y="695"/>
      <point x="463" y="695" type="curve" smooth="yes"/>
      <point x="658" y="695"/>
      <point x="800" y="563"/>
      <point x="800" y="366" type="curve" smooth="yes"/>
      <point x="800" y="168"/>
      <point x="659" y="34"/>
    </contour>
    <contour>
      <point x="375" y="392" type="curve" smooth="yes"/>
      <point x="396" y="392"/>
      <point x="407" y="406"/>
      <point x="407" y="429" type="curve" smooth="yes"/>
      <point x="407" y="488" type="line" smooth="yes"/>
      <point x="407" y="511"/>
      <point x="396" y="525"/>
      <point x="375" y="525" type="curve" smooth="yes"/>
      <point x="354" y="525"/>
      <point x="343" y="511"/>
      <point x="343" y="488" type="curve" smooth="yes"/>
      <point x="343" y="429" type="line" smooth="yes"/>
      <point x="343" y="406"/>
      <point x="354" y="392"/>
    </contour>
    <contour>
      <point x="549" y="392" type="curve" smooth="yes"/>
      <point x="571" y="392"/>
      <point x="582" y="406"/>
      <point x="582" y="429" type="curve" smooth="yes"/>
      <point x="582" y="488" type="line" smooth="yes"/>
      <point x="582" y="511"/>
      <point x="571" y="525"/>
      <point x="549" y="525" type="curve" smooth="yes"/>
      <point x="529" y="525"/>
      <point x="518" y="511"/>
      <point x="518" y="488" type="curve" smooth="yes"/>
      <point x="518" y="429" type="line" smooth="yes"/>
      <point x="518" y="406"/>
      <point x="529" y="392"/>
    </contour>
  </outline>
</glyph>
<glyph name="checkmark" format="2">
  <advance width="778"/>
  <unicode hex="2713"/>
  <outline>
    <contour>
      <point x="283" y="116" type="line"/>
      <point x="786" y="551" type="line"/>
      <point x="738" y="608" type="line"/>
      <point x="290" y="221" type="line"/>
      <point x="133" y="428" type="line"/>
      <point x="79" y="379" type="line"/>
    </contour>
  </outline>
</glyph>
<glyph name="fi" format="2">
  <advance width="407"/>
  <unicode hex="FB01"/>
  <anchor x="203.5" y="0" name="caret_1"/>
  <outline>
    <contour>
      <point x="35" y="0" type="line"/>
      <point x="103" y="0" type="line"/>
      <point x="201" y="466" type="line"/>
      <point x="330" y="466" type="line"/>
      <point x="232" y="0" type="line"/>
      <point x="302" y="0" type="line"/>
      <point x="412" y="523" type="line"/>
      <point x="213" y="523" type="line"/>
      <point x="245" y="673" type="line"/>
      <point x="447" y="673" type="line"/>
      <point x="458" y="729" type="line"/>
      <point x="258" y="729" type="line" smooth="yes"/>
      <point x="211" y="729"/>
      <point x="184" y="705"/>
      <point x="175" y="664" type="curve" smooth="yes"/>
      <point x="145" y="523" type="line"/>
      <point x="79" y="523" type="line"/>
      <point x="67" y="466" type="line"/>
      <point x="133" y="466" type="line"/>
    </contour>
  </outline>
</glyph>
<glyph name="I.ss04" format="2">
  <advance width="190"/>
  <note>
I
</note>
  <anchor x="40" y="0" name="bottom"/>
  <anchor x="74" y="0" name="ogonek"/>
  <anchor x="194" y="729" name="top"/>
  <anchor x="118" y="729" name="topleft"/>
  <outline>
    <contour>
      <point x="5" y="0" type="line"/>
      <point x="74" y="0" type="line"/>
      <point x="228" y="729" type="line"/>
      <point x="159" y="729" type="line"/>
    </contour>
  </outline>
</glyph>
<glyph name="_AE.E" format="2">
  <advance width="353"/>
  <anchor x="76" y="0" name="#entry"/>
  <outline>
    <contour>
      <point x="139" y="668" type="line"/>
      <point x="397" y="668" type="line"/>
      <point x="410" y="729" type="line"/>
      <point x="139" y="729" type="line"/>
    </contour>
    <contour>
      <point x="76" y="0" type="line"/>
      <point x="262" y="0" type="line"/>
      <point x="275" y="61" type="line"/>
      <point x="96" y="61" type="line"/>
    </contour>
    <contour>
      <point x="121" y="345" type="line"/>
      <point x="308" y="345" type="line"/>
      <point x="320" y="405" type="line"/>
      <point x="121" y="405" type="line"/>
    </contour>
  </outline>
</glyph>
<glyph name="_Euro.bars" format="2">
  <advance width="335"/>
  <anchor x="229" y="0" name="_bottom"/>
  <outline>
    <contour>
      <point x="295" y="267" type="line"/>
      <point x="307" y="322" type="line"/>
      <point x="135" y="317" type="line"/>
      <point x="125" y="272" type="line"/>
    </contour>
    <contour>
      <point x="41" y="267" type="line"/>
      <point x="125" y="272" type="line"/>
      <point x="135" y="317" type="line"/>
      <point x="53" y="322" type="line"/>
    </contour>
    <contour>
      <point x="69" y="398" type="line"/>
      <point x="153" y="403" type="line"/>
      <point x="163" y="447" type="line"/>
      <point x="81" y="452" type="line"/>
    </contour>
    <contour>
      <point x="323" y="398" type="line"/>
      <point x="335" y="452" type="line"/>
      <point x="163" y="447" type="line"/>
      <point x="153" y="403" type="line"/>
    </contour>
  </outline>
</glyph>
<glyph name="_OE.O" format="2">
  <advance width="424"/>
  <anchor x="235" y="0" name="#exit"/>
  <outline>
    <contour>
      <point x="184" y="0" type="curve" smooth="yes"/>
      <point x="271" y="0" type="line"/>
      <point x="271" y="59" type="line"/>
      <point x="191" y="59" type="line" smooth="yes"/>
      <point x="105" y="59"/>
      <point x="88" y="120"/>
      <point x="113" y="236" type="curve" smooth="yes"/>
      <point x="172" y="513" type="line" smooth="yes"/>
      <point x="197" y="630"/>
      <point x="238" y="670"/>
      <point x="318" y="670" type="curve" smooth="yes"/>
      <point x="471" y="670" type="line"/>
      <point x="471" y="729" type="line"/>
      <point x="331" y="729" type="line" smooth="yes"/>
      <point x="204" y="729"/>
      <point x="136" y="666"/>
      <point x="105" y="519" type="curve" smooth="yes"/>
      <point x="46" y="243" type="line" smooth="yes"/>
      <point x="12" y="86"/>
      <point x="60" y="0"/>
    </contour>
  </outline>
</glyph>
<glyph name="_Stem.Uppercase" format="2">
  <advance width="238"/>
  <outline>
    <contour>
      <point x="41" y="0" type="line"/>
      <point x="110" y="0" type="line"/>
      <point x="239" y="729" type="line"/>
      <point x="170" y="729" type="line"/>
    </contour>
  </outline>
</glyph>
<glyph name="_bitcoin.bars" format="2">
  <advance width="234"/>
  <anchor x="85" y="0" name="_bottom"/>
  <outline>
    <contour>
      <point x="233" y="706" type="line"/>
      <point x="284" y="706" type="line"/>
      <point x="319" y="850" type="line"/>
      <point x="258" y="850" type="line"/>
    </contour>
    <contour>
      <point x="-41" y="-121" type="line"/>
      <point x="20" y="-121" type="line"/>
      <point x="48" y="35" type="line"/>
      <point x="-3" y="35" type="line"/>
    </contour>
    <contour>
      <point x="52" y="-121" type="line"/>
      <point x="113" y="-121" type="line"/>
      <point x="141" y="35" type="line"/>
      <point x="90" y="35" type="line"/>
    </contour>
    <contour>
      <point x="140" y="706" type="line"/>
      <point x="191" y="706" type="line"/>
      <point x="226" y="850" type="line"/>
      <point x="165" y="850" type="line"/>
    </contour>
  </outline>
</glyph>
<glyph name="_copyright.C" format="2">
  <advance width="350"/>
  <anchor x="199" y="365" name="_center"/>
  <outline>
    <contour>
      <point x="162" y="83" type="curve" smooth="yes"/>
      <point x="241" y="83"/>
      <point x="284" y="133"/>
      <point x="308" y="250" type="curve"/>
      <point x="244" y="259" type="line"/>
      <point x="228" y="172"/>
      <point x="206" y="137"/>
      <point x="162" y="137" type="curve" smooth="yes"/>
      <point x="102" y="137"/>
      <point x="88" y="176"/>
      <point x="102" y="243" type="curve" smooth="yes"/>
      <point x="157" y="504" type="line" smooth="yes"/>
      <point x="170" y="565"/>
      <point x="193" y="592"/>
      <point x="231" y="592" type="curve" smooth="yes"/>
      <point x="300" y="592"/>
      <point x="305" y="543"/>
      <point x="285" y="451" type="curve"/>
      <point x="348" y="441" type="line"/>
      <point x="376" y="568"/>
      <point x="343" y="646"/>
      <point x="230" y="646" type="curve" smooth="yes"/>
      <point x="160" y="646"/>
      <point x="113" y="604"/>
      <point x="92" y="505" type="curve" smooth="yes"/>
      <point x="41" y="262" type="line" smooth="yes"/>
      <point x="18" y="153"/>
      <point x="58" y="83"/>
    </contour>
  </outline>
</glyph>
<glyph name="_dollar.bar" format="2">
  <advance width="150"/>
  <anchor x="29" y="0" name="_bottom"/>
  <outline>
    <contour>
      <point x="-41" y="-121" type="line"/>
      <point x="29" y="-121" type="line"/>
      <point x="46" y="8" type="line"/>
      <point x="-4" y="8" type="line"/>
    </contour>
    <contour>
      <point x="147" y="716" type="line"/>
      <point x="197" y="716" type="line"/>
      <point x="235" y="850" type="line"/>
      <point x="165" y="850" type="line"/>
    </contour>
  </outline>
</glyph>
<glyph name="_published.P" format="2">
  <advance width="302"/>
  <anchor x="162" y="365" name="_center"/>
  <outline>
    <contour>
      <point x="4" y="93" type="line"/>
      <point x="61" y="93" type="line"/>
      <point x="167" y="589" type="line"/>
      <point x="193" y="589" type="line" smooth="yes"/>
      <point x="237" y="589"/>
      <point x="263" y="561"/>
      <point x="249" y="472" type="curve" smooth="yes"/>
      <point x="235" y="383"/>
      <point x="195" y="358"/>
      <point x="142" y="358" type="curve" smooth="yes"/>
      <point x="110" y="358" type="line"/>
      <point x="100" y="310" type="line"/>
      <point x="146" y="310" type="line" smooth="yes"/>
      <point x="228" y="310"/>
      <point x="292" y="357"/>
      <point x="307" y="478" type="curve" smooth="yes"/>
      <point x="319" y="575"/>
      <point x="282" y="636"/>
      <point x="200" y="636" type="curve" smooth="yes"/>
      <point x="120" y="636" type="line"/>
    </contour>
  </outline>
</glyph>
<glyph name="_tail.Q" format="2">
  <advance width="234"/>
  <anchor x="19" y="0" name="_bottom"/>
  <outline>
    <contour>
      <point x="5" y="-166" type="curve" smooth="yes"/>
      <point x="103" y="-166" type="line"/>
      <point x="114" y="-115" type="line"/>
      <point x="20" y="-115" type="line"/>
      <point x="52" y="11" type="line"/>
      <point x="-9" y="11" type="line"/>
      <point x="-39" y="-111" type="line" smooth="yes"/>
      <point x="-47" y="-145"/>
      <point x="-29" y="-166"/>
    </contour>
  </outline>
</glyph>
<glyph name="_tail.Q.ss01" format="2">
  <advance width="278"/>
  <anchor x="-15" y="0" name="_bottom"/>
  <outline>
    <contour>
      <point x="179" y="-14" type="line"/>
      <point x="193" y="54" type="line"/>
      <point x="25" y="192" type="line"/>
      <point x="11" y="124" type="line"/>
    </contour>
  </outline>
</glyph>
<glyph name="_yen.bars" format="2">
  <advance width="402"/>
  <anchor x="144" y="0" name="_bottom"/>
  <outline>
    <contour>
      <point x="44" y="278" type="line"/>
      <point x="366" y="278" type="line"/>
      <point x="378" y="336" type="line"/>
      <point x="56" y="336" type="line"/>
    </contour>
    <contour>
      <point x="14" y="138" type="line"/>
      <point x="336" y="138" type="line"/>
      <point x="348" y="196" type="line"/>
      <point x="26" y="196" type="line"/>
    </contour>
  </outline>
</glyph>
<glyph name="a.ss01" format="2">
  <advance width="395"/>
  <note>
a
</note>
  <anchor x="130" y="0" name="bottom"/>
  <anchor x="290" y="0" name="ogonek"/>
  <anchor x="242" y="523" name="top"/>
  <outline>
    <contour>
      <point x="110" y="-7" type="curve" smooth="yes"/>
      <point x="163" y="-7"/>
      <point x="206" y="20"/>
      <point x="231" y="64" type="curve"/>
      <point x="236" y="64" type="line"/>
      <point x="228" y="0" type="line"/>
      <point x="290" y="0" type="line"/>
      <point x="367" y="361" type="line" smooth="yes"/>
      <point x="387" y="454"/>
      <point x="352" y="530"/>
      <point x="233" y="530" type="curve" smooth="yes"/>
      <point x="140" y="530"/>
      <point x="81" y="472"/>
      <point x="64" y="381" type="curve"/>
      <point x="128" y="379" type="line"/>
      <point x="142" y="449"/>
      <point x="181" y="474"/>
      <point x="226" y="474" type="curve" smooth="yes"/>
      <point x="296" y="474"/>
      <point x="314" y="434"/>
      <point x="301" y="373" type="curve" smooth="yes"/>
      <point x="250" y="131" type="line"/>
      <point x="223" y="75"/>
      <point x="188" y="46"/>
      <point x="140" y="46" type="curve" smooth="yes"/>
      <point x="88" y="46"/>
      <point x="71" y="89"/>
      <point x="84" y="154" type="curve" smooth="yes"/>
      <point x="85" y="159" type="line" smooth="yes"/>
      <point x="100" y="233"/>
      <point x="138" y="265"/>
      <point x="214" y="265" type="curve" smooth="yes"/>
      <point x="293" y="265" type="line"/>
      <point x="303" y="317" type="line"/>
      <point x="214" y="317" type="line" smooth="yes"/>
      <point x="100" y="317"/>
      <point x="32" y="262"/>
      <point x="14" y="136" type="curve" smooth="yes"/>
      <point x="0" y="41"/>
      <point x="44" y="-7"/>
    </contour>
  </outline>
</glyph>
<glyph name="braceleft.case" format="2">
  <advance width="312"/>
  <outline>
    <contour>
      <point x="108" y="-63" type="curve" smooth="yes"/>
      <point x="209" y="-63" type="line"/>
      <point x="221" y="-6" type="line"/>
      <point x="124" y="-6" type="line"/>
      <point x="179" y="253" type="line" smooth="yes"/>
      <point x="192" y="312"/>
      <point x="172" y="355"/>
      <point x="128" y="364" type="curve"/>
      <point x="129" y="368" type="line"/>
      <point x="175" y="373"/>
      <point x="214" y="419"/>
      <point x="227" y="479" type="curve" smooth="yes"/>
      <point x="282" y="736" type="line"/>
      <point x="379" y="736" type="line"/>
      <point x="391" y="793" type="line"/>
      <point x="290" y="793" type="line" smooth="yes"/>
      <point x="246" y="793"/>
      <point x="220" y="766"/>
      <point x="212" y="727" type="curve" smooth="yes"/>
      <point x="159" y="478" type="line" smooth="yes"/>
      <point x="148" y="424"/>
      <point x="111" y="394"/>
      <point x="78" y="394" type="curve" smooth="yes"/>
      <point x="60" y="394" type="line"/>
      <point x="48" y="335" type="line"/>
      <point x="66" y="335" type="line" smooth="yes"/>
      <point x="99" y="335"/>
      <point x="122" y="306"/>
      <point x="111" y="252" type="curve" smooth="yes"/>
      <point x="58" y="3" type="line" smooth="yes"/>
      <point x="50" y="-36"/>
      <point x="64" y="-63"/>
    </contour>
  </outline>
</glyph>
<glyph name="bracketleft.case" format="2">
  <advance width="271"/>
  <outline>
    <contour>
      <point x="-8" y="-63" type="line"/>
      <point x="168" y="-63" type="line"/>
      <point x="180" y="-6" type="line"/>
      <point x="73" y="-6" type="line"/>
      <point x="231" y="736" type="line"/>
      <point x="338" y="736" type="line"/>
      <point x="350" y="793" type="line"/>
      <point x="174" y="793" type="line"/>
    </contour>
  </outline>
</glyph>
<glyph name="brevecomb_acutecomb" format="2">
  <anchor x="202" y="523" name="_top"/>
  <outline>
    <contour>
      <point x="219" y="570" type="curve" smooth="yes"/>
      <point x="273" y="570"/>
      <point x="328" y="605"/>
      <point x="342" y="710" type="curve"/>
      <point x="287" y="710" type="line"/>
      <point x="279" y="638"/>
      <point x="253" y="614"/>
      <point x="223" y="614" type="curve" smooth="yes"/>
      <point x="191" y="614"/>
      <point x="175" y="640"/>
      <point x="189" y="710" type="curve"/>
      <point x="135" y="710" type="line"/>
      <point x="122" y="625"/>
      <point x="152" y="570"/>
    </contour>
    <contour>
      <point x="208" y="737" type="line"/>
      <point x="271" y="737" type="line"/>
      <point x="354" y="842" type="line"/>
      <point x="286" y="842" type="line"/>
    </contour>
  </outline>
</glyph>
<glyph name="brevecomb_hookabovecomb" format="2">
  <anchor x="202" y="523" name="_top"/>
  <outline>
    <contour>
      <point x="219" y="570" type="curve" smooth="yes"/>
      <point x="273" y="570"/>
      <point x="328" y="605"/>
      <point x="342" y="710" type="curve"/>
      <point x="287" y="710" type="line"/>
      <point x="279" y="638"/>
      <point x="253" y="614"/>
      <point x="223" y="614" type="curve" smooth="yes"/>
      <point x="191" y="614"/>
      <point x="175" y="640"/>
      <point x="189" y="710" type="curve"/>
      <point x="135" y="710" type="line"/>
      <point x="122" y="625"/>
      <point x="152" y="570"/>
    </contour>
    <contour>
      <point x="230" y="713" type="line"/>
      <point x="283" y="731"/>
      <point x="310" y="759"/>
      <point x="310" y="791" type="curve" smooth="yes"/>
      <point x="310" y="822"/>
      <point x="283" y="839"/>
      <point x="242" y="839" type="curve" smooth="yes"/>
      <point x="228" y="839"/>
      <point x="215" y="838"/>
      <point x="202" y="834" type="curve"/>
      <point x="197" y="804" type="line"/>
      <point x="203" y="806"/>
      <point x="212" y="807"/>
      <point x="221" y="807" type="curve" smooth="yes"/>
      <point x="235" y="807"/>
      <point x="251" y="803"/>
      <point x="251" y="785" type="curve" smooth="yes"/>
      <point x="251" y="767"/>
      <point x="237" y="756"/>
      <point x="214" y="743" type="curve"/>
    </contour>
  </outline>
</glyph>
<glyph name="brevecomb_tildecomb" format="2">
  <anchor x="218" y="523" name="_top"/>
  <outline>
    <contour>
      <point x="235" y="570" type="curve" smooth="yes"/>
      <point x="289" y="570"/>
      <point x="344" y="605"/>
      <point x="358" y="710" type="curve"/>
      <point x="303" y="710" type="line"/>
      <point x="295" y="638"/>
      <point x="269" y="614"/>
      <point x="239" y="614" type="curve" smooth="yes"/>
      <point x="207" y="614"/>
      <point x="191" y="640"/>
      <point x="205" y="710" type="curve"/>
      <point x="151" y="710" type="line"/>
      <point x="138" y="625"/>
      <point x="168" y="570"/>
    </contour>
    <contour>
      <point x="310" y="740" type="curve" smooth="yes"/>
      <point x="350" y="740"/>
      <point x="383" y="767"/>
      <point x="392" y="822" type="curve"/>
      <point x="358" y="822" type="line"/>
      <point x="353" y="800"/>
      <point x="342" y="790"/>
      <point x="322" y="790" type="curve" smooth="yes"/>
      <point x="290" y="790"/>
      <point x="263" y="821"/>
      <point x="222" y="821" type="curve" smooth="yes"/>
      <point x="181" y="821"/>
      <point x="151" y="790"/>
      <point x="142" y="739" type="curve"/>
      <point x="177" y="739" type="line"/>
      <point x="181" y="758"/>
      <point x="190" y="772"/>
      <point x="210" y="772" type="curve" smooth="yes"/>
      <point x="240" y="772"/>
      <point x="268" y="740"/>
    </contour>
  </outline>
</glyph>
<glyph name="caroncomb.alt" format="2">
  <anchor x="84" y="729" name="_topright"/>
  <outline>
    <contour>
      <point x="94" y="515" type="line"/>
      <point x="160" y="515" type="line"/>
      <point x="246" y="729" type="line"/>
      <point x="180" y="729" type="line"/>
    </contour>
  </outline>
</glyph>
<glyph name="caroncomb.alt.t" format="2">
  <anchor x="41" y="630" name="_topright"/>
  <outline>
    <contour>
      <point x="96" y="523" type="line"/>
      <point x="161" y="523" type="line"/>
      <point x="224" y="681" type="line"/>
      <point x="157" y="681" type="line"/>
    </contour>
  </outline>
</glyph>
<glyph name="circumflexcomb_acutecomb" format="2">
  <anchor x="210" y="523" name="_top"/>
  <outline>
    <contour>
      <point x="106" y="570" type="line"/>
      <point x="172" y="570" type="line"/>
      <point x="245" y="668" type="line"/>
      <point x="268" y="570" type="line"/>
      <point x="325" y="570" type="line"/>
      <point x="291" y="703" type="line"/>
      <point x="211" y="703" type="line"/>
    </contour>
    <contour>
      <point x="225" y="748" type="line"/>
      <point x="289" y="748" type="line"/>
      <point x="362" y="842" type="line"/>
      <point x="294" y="842" type="line"/>
    </contour>
  </outline>
</glyph>
<glyph name="circumflexcomb_gravecomb" format="2">
  <anchor x="210" y="523" name="_top"/>
  <outline>
    <contour>
      <point x="106" y="570" type="line"/>
      <point x="172" y="570" type="line"/>
      <point x="245" y="668" type="line"/>
      <point x="268" y="570" type="line"/>
      <point x="325" y="570" type="line"/>
      <point x="291" y="703" type="line"/>
      <point x="211" y="703" type="line"/>
    </contour>
    <contour>
      <point x="224" y="748" type="line"/>
      <point x="282" y="748" type="line"/>
      <point x="253" y="842" type="line"/>
      <point x="191" y="842" type="line"/>
    </contour>
  </outline>
</glyph>
<glyph name="circumflexcomb_hookabovecomb" format="2">
  <anchor x="208" y="523" name="_top"/>
  <anchor x="276" y="846" name="top"/>
  <outline>
    <contour>
      <point x="106" y="570" type="line"/>
      <point x="172" y="570" type="line"/>
      <point x="245" y="668" type="line"/>
      <point x="268" y="570" type="line"/>
      <point x="325" y="570" type="line"/>
      <point x="291" y="703" type="line"/>
      <point x="211" y="703" type="line"/>
    </contour>
    <contour>
      <point x="333" y="656" type="line"/>
      <point x="387" y="692"/>
      <point x="417" y="734"/>
      <point x="417" y="779" type="curve" smooth="yes"/>
      <point x="417" y="819"/>
      <point x="390" y="846"/>
      <point x="344" y="846" type="curve" smooth="yes"/>
      <point x="333" y="846"/>
      <point x="320" y="845"/>
      <point x="310" y="841" type="curve"/>
      <point x="303" y="801" type="line"/>
      <point x="309" y="803"/>
      <point x="317" y="804"/>
      <point x="326" y="804" type="curve" smooth="yes"/>
      <point x="346" y="804"/>
      <point x="364" y="796"/>
      <point x="364" y="772" type="curve" smooth="yes"/>
      <point x="364" y="743"/>
      <point x="346" y="719"/>
      <point x="319" y="697" type="curve"/>
    </contour>
  </outline>
</glyph>
